STARTFONT 2.1
COMMENT $XFree86$
COMMENT ISO10646-1 extension by Markus Kuhn <mkuhn@acm.org>, 2001-03-20
COMMENT  (c) Copyright Bigelow & Holmes 1986, 1985. Lucida is a registered
COMMENT  trademark of Bigelow & Holmes. See LEGAL NOTICE file for terms 
COMMENT  of the license. 
FONT -B&H-LucidaBright-DemiBold-R-Normal--34-240-100-100-P-202-ISO10646-1
SIZE 24 100 100
FONTBOUNDINGBOX 59 51 -21 -13
STARTPROPERTIES 22
COMMENT Begin LogicalFontDescription
FONTNAME_REGISTRY ""
FOUNDRY "B&H"
FAMILY_NAME "LucidaBright"
WEIGHT_NAME "DemiBold"
SLANT "R"
SETWIDTH_NAME "Normal"
ADD_STYLE_NAME ""
PIXEL_SIZE 34
POINT_SIZE 240
RESOLUTION_X 100
RESOLUTION_Y 100
SPACING "P"
AVERAGE_WIDTH 202
CHARSET_REGISTRY "ISO10646"
CHARSET_ENCODING "1"
COMMENT END LogicalFontDescription
FONT_ASCENT 31
FONT_DESCENT 8
DEFAULT_CHAR 0
COPYRIGHT "Copyright Bigelow & Holmes 1986, 1985."
FACE_NAME "Lucida Bright Demibold"
X_HEIGHT 18
CAP_HEIGHT 25
ENDPROPERTIES
CHARS 756
STARTCHAR char0
ENCODING 0
SWIDTH 798 0
DWIDTH 27 0
BBX 25 25 1 0
BITMAP
AAAAAA80
00000000
80000080
00000000
80000080
00000000
80000080
00000000
80000080
00000000
80000080
00000000
80000080
00000000
80000080
00000000
80000080
00000000
80000080
00000000
80000080
00000000
80000080
00000000
AAAAAA80
ENDCHAR
STARTCHAR space
ENCODING 32
SWIDTH 333 0
DWIDTH 11 0
BBX 1 1 0 0
BITMAP
00
ENDCHAR
STARTCHAR exclam
ENCODING 33
SWIDTH 265 0
DWIDTH 9 0
BBX 5 25 2 0
BITMAP
F8
F8
F8
F8
F8
F8
F8
F8
78
78
78
70
70
70
70
30
30
30
00
00
F8
F8
F8
F8
F8
ENDCHAR
STARTCHAR quotedbl
ENCODING 34
SWIDTH 461 0
DWIDTH 16 0
BBX 13 10 1 16
BITMAP
F8F8
F8F8
F8F8
78F0
78F0
7070
7070
7070
3060
3060
ENDCHAR
STARTCHAR numbersign
ENCODING 35
SWIDTH 663 0
DWIDTH 23 0
BBX 21 25 1 0
BITMAP
00F1E0
00E1C0
00E1C0
00E1C0
01E380
01C380
01C380
3FFFF8
3FFFF8
3FFFF8
038700
038700
038F00
078E00
070E00
070E00
FFFFE0
FFFFE0
FFFFE0
0E1C00
0E1C00
0E3800
1C3800
1C3800
3C7800
ENDCHAR
STARTCHAR dollar
ENCODING 36
SWIDTH 623 0
DWIDTH 21 0
BBX 16 31 3 -4
BITMAP
0180
0180
0FFC
1FFE
3F9E
7D8E
7D8E
7D8E
7D80
7D80
3F80
3F80
1F80
0FC0
07F0
01F8
01FC
01FE
01BF
019F
019F
E19F
E19F
E19E
F9BE
FFFC
7FF8
01C0
0180
0180
0180
ENDCHAR
STARTCHAR percent
ENCODING 37
SWIDTH 759 0
DWIDTH 26 0
BBX 25 25 0 0
BITMAP
1F800780
3FC00F00
79E01E00
70E03C00
F0F07800
F0F07800
F0F0F000
F0F1E000
F0F3C000
70E78000
79EF0000
3FDE0000
1F9E0000
003CFC00
0079FE00
00F3CF00
01E78780
03C78780
07878780
07078780
0F078780
1E078780
3C03CF00
7801FE00
F000FC00
ENDCHAR
STARTCHAR ampersand
ENCODING 38
SWIDTH 765 0
DWIDTH 26 0
BBX 25 25 1 0
BITMAP
00FE0000
03FF0000
07CF8000
0F87C000
0F87C000
0F87C000
0F87C000
07CF8000
07CE0000
03FC0000
07F00000
0FF07F80
3CF87F80
787C1E00
787E1E00
F83E1C00
F81F1C00
F81F9800
F80FF000
FC07F000
7E03F000
7F07F800
3FFEFE00
0FFCFF00
03F07F00
ENDCHAR
STARTCHAR quotesingle
ENCODING 39
SWIDTH 253 0
DWIDTH 9 0
BBX 6 11 1 15
BITMAP
FC
FC
FC
78
78
78
78
78
30
30
30
ENDCHAR
STARTCHAR parenleft
ENCODING 40
SWIDTH 327 0
DWIDTH 11 0
BBX 9 32 1 -6
BITMAP
0080
0180
0300
0700
0E00
1C00
1C00
3C00
3C00
7800
7800
7800
F800
F800
F800
F800
F800
F800
F800
F800
7800
7800
7800
3C00
3C00
1C00
1C00
0E00
0600
0300
0180
0080
ENDCHAR
STARTCHAR parenright
ENCODING 41
SWIDTH 327 0
DWIDTH 11 0
BBX 9 32 1 -6
BITMAP
8000
C000
6000
7000
3800
1C00
1C00
1E00
1E00
0F00
0F00
0F00
0F80
0F80
0F80
0F80
0F80
0F80
0F80
0F80
0F00
0F00
0F00
1E00
1E00
1C00
1C00
3800
3000
6000
C000
8000
ENDCHAR
STARTCHAR asterisk
ENCODING 42
SWIDTH 434 0
DWIDTH 15 0
BBX 13 12 1 13
BITMAP
0700
0700
0700
6730
FAF8
F8F8
0000
0D80
1DC0
78E0
38F0
1080
ENDCHAR
STARTCHAR plus
ENCODING 43
SWIDTH 623 0
DWIDTH 21 0
BBX 21 21 0 0
BITMAP
007000
007000
007000
007000
007000
007000
007000
007000
007000
FFFFF8
FFFFF8
FFFFF8
007000
007000
007000
007000
007000
007000
007000
007000
007000
ENDCHAR
STARTCHAR comma
ENCODING 44
SWIDTH 265 0
DWIDTH 9 0
BBX 5 12 2 -6
BITMAP
F8
F8
F8
F8
F8
F8
78
78
70
F0
E0
C0
ENDCHAR
STARTCHAR hyphen
ENCODING 45
SWIDTH 289 0
DWIDTH 10 0
BBX 8 4 1 8
BITMAP
FF
FF
FF
FF
ENDCHAR
STARTCHAR period
ENCODING 46
SWIDTH 265 0
DWIDTH 9 0
BBX 5 5 2 0
BITMAP
F8
F8
F8
F8
F8
ENDCHAR
STARTCHAR slash
ENCODING 47
SWIDTH 527 0
DWIDTH 18 0
BBX 18 32 0 -6
BITMAP
0001C0
0003C0
000380
000780
000700
000F00
000E00
001E00
001C00
003C00
003800
007800
007000
007000
00E000
00E000
01C000
01C000
038000
038000
078000
070000
0F0000
0E0000
1E0000
1C0000
3C0000
380000
780000
700000
F00000
E00000
ENDCHAR
STARTCHAR zero
ENCODING 48
SWIDTH 623 0
DWIDTH 21 0
BBX 19 25 1 0
BITMAP
01F000
07FC00
0F1E00
1E0F00
3C0780
7C07C0
7C07C0
7803C0
F803E0
F803E0
F803E0
F803E0
F803E0
F803E0
F803E0
F803E0
F803E0
7803C0
7C07C0
7C07C0
3C0780
1E0F00
0F1E00
07FC00
01F000
ENDCHAR
STARTCHAR one
ENCODING 49
SWIDTH 623 0
DWIDTH 21 0
BBX 13 25 4 0
BITMAP
FF80
FF80
0F80
0F80
0F80
0F80
0F80
0F80
0F80
0F80
0F80
0F80
0F80
0F80
0F80
0F80
0F80
0F80
0F80
0F80
0F80
0F80
1FC0
FFF8
FFF8
ENDCHAR
STARTCHAR two
ENCODING 50
SWIDTH 623 0
DWIDTH 21 0
BBX 16 25 2 0
BITMAP
0FE0
7FF8
707E
603E
603F
701F
001F
001F
001F
001E
003C
007C
0070
00E0
01C0
0300
0E00
1C00
1800
3800
7FFF
7FFF
FFFF
FFFF
FFFF
ENDCHAR
STARTCHAR three
ENCODING 51
SWIDTH 623 0
DWIDTH 21 0
BBX 16 25 3 0
BITMAP
3FE0
FFF8
F0FC
E07E
E03E
E03E
003E
003E
003C
0078
00F0
1FC0
1FF0
00FC
007E
003E
001F
001F
001F
E01F
E03F
E03E
F0FC
FFF8
3FE0
ENDCHAR
STARTCHAR four
ENCODING 52
SWIDTH 623 0
DWIDTH 21 0
BBX 20 25 0 0
BITMAP
000F80
001F80
003F80
003F80
006F80
00CF80
01CF80
038F80
070F80
0E0F80
0C0F80
180F80
300F80
700F80
FFFFF0
FFFFF0
FFFFF0
FFFFF0
000F80
000F80
000F80
000F80
001FC0
007FF0
007FF0
ENDCHAR
STARTCHAR five
ENCODING 53
SWIDTH 623 0
DWIDTH 21 0
BBX 14 25 4 0
BITMAP
FFFC
FFFC
FFFC
FFFC
C000
C000
C000
C000
C000
C000
FF00
FFE0
07F0
01F8
00FC
007C
007C
007C
007C
E07C
E078
E0F8
F1F0
FFE0
7F80
ENDCHAR
STARTCHAR six
ENCODING 54
SWIDTH 623 0
DWIDTH 21 0
BBX 19 25 1 0
BITMAP
00FF00
07FFC0
0F83C0
1F01C0
3E01C0
3C01C0
7C0000
780000
F80000
F8FC00
F9FF00
FBFF80
FE1FC0
FC07C0
F807E0
F803E0
F803E0
7803E0
7803E0
7C03C0
3C07C0
3E0780
1F0F00
0FFE00
03F800
ENDCHAR
STARTCHAR seven
ENCODING 55
SWIDTH 623 0
DWIDTH 21 0
BBX 17 25 3 0
BITMAP
FFFF80
FFFF80
FFFF80
FFFF80
FFFF80
000700
000E00
001C00
001C00
003800
007000
00E000
01E000
01C000
03C000
078000
0F8000
0F0000
1F0000
1E0000
3E0000
3E0000
3C0000
7C0000
7C0000
ENDCHAR
STARTCHAR eight
ENCODING 56
SWIDTH 623 0
DWIDTH 21 0
BBX 18 25 2 0
BITMAP
03F800
0FFE00
3E3F00
3E1F80
7C0F80
7C0F80
7C0F80
7E0F00
3F0F00
3F9C00
1FF800
07F800
07FC00
1CFF00
3C3F80
781F80
F80FC0
F807C0
F807C0
F807C0
FC0780
7C0F80
7E1F00
1FFE00
07F000
ENDCHAR
STARTCHAR nine
ENCODING 57
SWIDTH 623 0
DWIDTH 21 0
BBX 19 25 1 0
BITMAP
03F800
0FFE00
3E1F00
3C0F80
7C0780
7807C0
F803C0
F803E0
F803E0
F803E0
FC03E0
7C07E0
7F0FE0
3FFBE0
1FF3E0
07E3E0
0003C0
0003C0
0007C0
700780
700F80
701F00
783E00
7FFC00
1FE000
ENDCHAR
STARTCHAR colon
ENCODING 58
SWIDTH 265 0
DWIDTH 9 0
BBX 5 18 2 0
BITMAP
F8
F8
F8
F8
F8
00
00
00
00
00
00
00
00
F8
F8
F8
F8
F8
ENDCHAR
STARTCHAR semicolon
ENCODING 59
SWIDTH 265 0
DWIDTH 9 0
BBX 5 24 2 -6
BITMAP
F8
F8
F8
F8
F8
00
00
00
00
00
00
00
00
F8
F8
F8
F8
F8
78
78
78
70
E0
C0
ENDCHAR
STARTCHAR less
ENCODING 60
SWIDTH 623 0
DWIDTH 21 0
BBX 20 21 1 0
BITMAP
000010
000070
0001F0
0007E0
001F80
007F00
01FC00
07F000
1FC000
7F0000
FC0000
7F0000
1FC000
07F000
01FC00
007F00
001F80
0007E0
0001F0
000070
000010
ENDCHAR
STARTCHAR equal
ENCODING 61
SWIDTH 623 0
DWIDTH 21 0
BBX 20 9 1 5
BITMAP
FFFFF0
FFFFF0
FFFFF0
000000
000000
000000
FFFFF0
FFFFF0
FFFFF0
ENDCHAR
STARTCHAR greater
ENCODING 62
SWIDTH 623 0
DWIDTH 21 0
BBX 20 21 1 0
BITMAP
800000
E00000
F80000
7E0000
1F8000
0FE000
03F800
00FE00
003F80
000FE0
0003F0
000FE0
003F80
00FE00
03F800
0FE000
1F8000
7E0000
F80000
E00000
800000
ENDCHAR
STARTCHAR question
ENCODING 63
SWIDTH 505 0
DWIDTH 17 0
BBX 15 25 1 0
BITMAP
3FC0
FFF8
F0FC
E07E
E03E
E03E
003E
003E
003C
0038
0070
00E0
01C0
0380
0780
0780
0F80
0F80
0000
0000
0F80
0F80
0F80
0F80
0F80
ENDCHAR
STARTCHAR at
ENCODING 64
SWIDTH 861 0
DWIDTH 29 0
BBX 27 25 2 0
BITMAP
000FE000
007FFC00
00F01E00
03C00700
07000180
0E0F01C0
1C1F80C0
38787060
30707060
60E07060
61E07060
61C0E060
C1C0E060
C3C0E060
C3C1E0C0
C3C360C0
C3E6E180
C3FCF300
61F8FE00
70E0F800
30000000
1C000000
0F01C000
07FFC000
00FF0000
ENDCHAR
STARTCHAR A
ENCODING 65
SWIDTH 795 0
DWIDTH 27 0
BBX 27 25 0 0
BITMAP
000E0000
000E0000
001F0000
001F0000
003F8000
003F8000
003FC000
006FC000
0067C000
00C7E000
00C3E000
0183F000
0181F000
0301F800
0300F800
07FFFC00
07FFFC00
0E007E00
0C003E00
1C003F00
18001F00
38001F80
78001F80
FE007FE0
FE007FE0
ENDCHAR
STARTCHAR B
ENCODING 66
SWIDTH 639 0
DWIDTH 22 0
BBX 20 25 1 0
BITMAP
FFFE00
FFFF80
3F0FC0
1F07E0
1F03E0
1F03E0
1F03E0
1F03E0
1F03C0
1F07C0
1F1F00
1FFC00
1FFE00
1F0F80
1F07C0
1F03E0
1F01F0
1F01F0
1F01F0
1F01F0
1F01F0
1F03E0
3F87E0
FFFFC0
FFFE00
ENDCHAR
STARTCHAR C
ENCODING 67
SWIDTH 711 0
DWIDTH 24 0
BBX 21 25 1 0
BITMAP
007FC0
03FFF8
0FC0F8
1F0038
3E0038
3C0038
7C0000
7C0000
F80000
F80000
F80000
F80000
F80000
F80000
F80000
F80000
FC0000
7C0000
7E0000
3E0000
3F8008
1FC078
0FFFF8
03FFF0
007FC0
ENDCHAR
STARTCHAR D
ENCODING 68
SWIDTH 794 0
DWIDTH 27 0
BBX 25 25 1 0
BITMAP
FFFF8000
FFFFF000
3F03F800
1F007C00
1F003E00
1F001F00
1F001F00
1F001F00
1F000F80
1F000F80
1F000F80
1F000F80
1F000F80
1F000F80
1F000F80
1F000F80
1F000F00
1F001F00
1F001F00
1F001E00
1F003E00
1F007C00
3F81F800
FFFFE000
FFFF8000
ENDCHAR
STARTCHAR E
ENCODING 69
SWIDTH 601 0
DWIDTH 20 0
BBX 19 25 1 0
BITMAP
FFFFE0
FFFFE0
3F01E0
1F00E0
1F00E0
1F0000
1F0000
1F0000
1F0000
1F0300
1F0300
1FFF00
1FFF00
1F0300
1F0300
1F0000
1F0000
1F0000
1F0000
1F0000
1F00E0
1F00E0
3F80E0
FFFFE0
FFFFE0
ENDCHAR
STARTCHAR F
ENCODING 70
SWIDTH 584 0
DWIDTH 20 0
BBX 18 25 1 0
BITMAP
FFFFC0
FFFFC0
3F03C0
1F01C0
1F01C0
1F0000
1F0000
1F0000
1F0000
1F0300
1F0300
1FFF00
1FFF00
1F0300
1F0300
1F0000
1F0000
1F0000
1F0000
1F0000
1F0000
1F0000
3F8000
FFE000
FFE000
ENDCHAR
STARTCHAR G
ENCODING 71
SWIDTH 753 0
DWIDTH 26 0
BBX 24 25 1 0
BITMAP
007FC0
03FFF8
0FC0F8
1F0038
3E0038
3C0038
7C0000
7C0000
F80000
F80000
F80000
F80000
F80000
F80000
F807FF
F807FF
F801FC
7C00F8
7C00F8
3E00F8
3E00F8
1F00F8
0FC0F8
03FFF8
007FC0
ENDCHAR
STARTCHAR H
ENCODING 72
SWIDTH 798 0
DWIDTH 27 0
BBX 26 25 1 0
BITMAP
FFE1FFC0
FFE1FFC0
3F807F00
1F003E00
1F003E00
1F003E00
1F003E00
1F003E00
1F003E00
1F003E00
1F003E00
1FFFFE00
1FFFFE00
1F003E00
1F003E00
1F003E00
1F003E00
1F003E00
1F003E00
1F003E00
1F003E00
1F003E00
3F807F00
FFE1FFC0
FFE1FFC0
ENDCHAR
STARTCHAR I
ENCODING 73
SWIDTH 349 0
DWIDTH 12 0
BBX 11 25 0 0
BITMAP
FFE0
FFE0
3F80
1F00
1F00
1F00
1F00
1F00
1F00
1F00
1F00
1F00
1F00
1F00
1F00
1F00
1F00
1F00
1F00
1F00
1F00
1F00
3F80
FFE0
FFE0
ENDCHAR
STARTCHAR J
ENCODING 74
SWIDTH 452 0
DWIDTH 15 0
BBX 15 31 0 -6
BITMAP
0FFE
0FFE
03F8
01F0
01F0
01F0
01F0
01F0
01F0
01F0
01F0
01F0
01F0
01F0
01F0
01F0
01F0
01F0
01F0
01F0
01F0
01F0
01F0
01F0
01F0
01F0
E1E0
E1E0
E3E0
FFC0
FF00
ENDCHAR
STARTCHAR K
ENCODING 75
SWIDTH 747 0
DWIDTH 25 0
BBX 25 25 1 0
BITMAP
FFC0FE00
FFC0FE00
3F807800
1F007000
1F00E000
1F018000
1F070000
1F0E0000
1F1C0000
1F380000
1F700000
1FF80000
1FFC0000
1FFE0000
1F7F0000
1F3F8000
1F1F8000
1F0FC000
1F07E000
1F07F000
1F03F800
1F01FC00
3F80FE00
FFC7FF80
FFC7FF80
ENDCHAR
STARTCHAR L
ENCODING 76
SWIDTH 584 0
DWIDTH 20 0
BBX 19 25 1 0
BITMAP
FFE000
FFE000
3F8000
1F0000
1F0000
1F0000
1F0000
1F0000
1F0000
1F0000
1F0000
1F0000
1F0000
1F0000
1F0000
1F0000
1F0000
1F0000
1F0000
1F00E0
1F00E0
1F00E0
3F80E0
FFFFE0
FFFFE0
ENDCHAR
STARTCHAR M
ENCODING 77
SWIDTH 904 0
DWIDTH 31 0
BBX 30 25 0 0
BITMAP
FF8003FC
FFC007FC
3FC007F0
1FC00FE0
1FE00FE0
1FE01FE0
1FF01FE0
1DF03FE0
1DF83BE0
1CF83BE0
1CF873E0
1CFC73E0
1C7CF3E0
1C7EE3E0
1C3FE3E0
1C3FC3E0
1C3FC3E0
1C1F83E0
1C1F83E0
1C0F03E0
1C0F03E0
1C0603E0
3E0007F0
FF000FFC
FF000FFC
ENDCHAR
STARTCHAR N
ENCODING 78
SWIDTH 788 0
DWIDTH 27 0
BBX 25 25 1 0
BITMAP
FE00FF80
FF00FF80
3F003E00
1F801C00
1FC01C00
1FC01C00
1FE01C00
1FF01C00
1DF81C00
1DF81C00
1CFC1C00
1C7E1C00
1C7E1C00
1C3F1C00
1C1F9C00
1C1FDC00
1C0FDC00
1C07FC00
1C03FC00
1C03FC00
1C01FC00
1C00FC00
3E00FC00
FF807C00
FF803C00
ENDCHAR
STARTCHAR O
ENCODING 79
SWIDTH 810 0
DWIDTH 28 0
BBX 25 25 1 0
BITMAP
00FF8000
03FFE000
0FC1F800
1F007C00
3E003E00
3C001E00
7C001F00
7C001F00
F8000F80
F8000F80
F8000F80
F8000F80
F8000F80
F8000F80
F8000F80
F8000F80
F8000F80
7C001F00
7C001F00
3E003E00
3E003E00
1F007C00
0FC1F800
03FFE000
00FF8000
ENDCHAR
STARTCHAR P
ENCODING 80
SWIDTH 614 0
DWIDTH 21 0
BBX 20 25 0 0
BITMAP
FFFF00
FFFFC0
3F07E0
1F03E0
1F01F0
1F01F0
1F01F0
1F01F0
1F01F0
1F01F0
1F03E0
1F03C0
1F0FC0
1FFF00
1FFC00
1F0000
1F0000
1F0000
1F0000
1F0000
1F0000
1F0000
3F8000
FFE000
FFE000
ENDCHAR
STARTCHAR Q
ENCODING 81
SWIDTH 810 0
DWIDTH 28 0
BBX 29 30 1 -5
BITMAP
00FF8000
03FFE000
0FC1F800
1F007C00
3E003E00
3C001E00
7C001F00
7C001F00
F8000F80
F8000F80
F8000F80
F8000F80
F8000F80
F8000F80
F8000F80
F8000F80
F8000F80
7C001F00
7C001F00
3E003F00
3E003E00
1F007C00
0FC1F800
03FFF000
00FFC000
0000F800
00007F80
00003FF8
00000FE0
000007C0
ENDCHAR
STARTCHAR R
ENCODING 82
SWIDTH 720 0
DWIDTH 24 0
BBX 24 25 1 0
BITMAP
FFFF00
FFFFC0
3F07E0
1F03E0
1F01F0
1F01F0
1F01F0
1F01F0
1F01F0
1F03E0
1F07E0
1F0FC0
1FFF80
1FFF00
1F3F00
1F1F80
1F0FC0
1F0FC0
1F07E0
1F03F0
1F03F0
1F01F8
3F81FC
FFC0FF
FFC07F
ENDCHAR
STARTCHAR S
ENCODING 83
SWIDTH 556 0
DWIDTH 19 0
BBX 16 25 2 0
BITMAP
07F8
1FFE
3E1E
7C0E
F80E
F80E
F800
FC00
FE00
7F00
7FC0
3FF0
0FF8
03FC
01FE
007F
003F
001F
001F
E01F
E01F
E03E
F87C
FFF8
3FE0
ENDCHAR
STARTCHAR T
ENCODING 84
SWIDTH 714 0
DWIDTH 24 0
BBX 23 25 1 0
BITMAP
FFFFFE
FFFFFE
E07C1E
E07C0E
E07C0E
007C00
007C00
007C00
007C00
007C00
007C00
007C00
007C00
007C00
007C00
007C00
007C00
007C00
007C00
007C00
007C00
007C00
00FE00
03FF80
03FF80
ENDCHAR
STARTCHAR U
ENCODING 85
SWIDTH 747 0
DWIDTH 25 0
BBX 25 25 0 0
BITMAP
FFE0FF80
FFE0FF80
3F803E00
1F001C00
1F001C00
1F001C00
1F001C00
1F001C00
1F001C00
1F001C00
1F001C00
1F001C00
1F001C00
1F001C00
1F001C00
1F001C00
1F001C00
1F001C00
1F001C00
0F003C00
0F803800
0F807800
07E0F000
03FFE000
007F8000
ENDCHAR
STARTCHAR V
ENCODING 86
SWIDTH 753 0
DWIDTH 26 0
BBX 26 25 0 0
BITMAP
FFE01FC0
FFE01FC0
3F800700
1F800600
1F800600
0F800E00
0FC00C00
07C01C00
07E01800
03E03800
03F03000
03F03000
01F07000
01F86000
00F8E000
00FCC000
007CC000
007F8000
003F8000
003F8000
003F0000
001F0000
001E0000
000E0000
000C0000
ENDCHAR
STARTCHAR W
ENCODING 87
SWIDTH 955 0
DWIDTH 32 0
BBX 32 25 0 0
BITMAP
FF80C03F
FF80E03F
7E01E00C
3F01E01C
3F01F018
1F03F018
1F03F010
1F83F030
0F87F830
0F86F830
0FC6F860
0FCEFC60
07CC7C60
07CC7CC0
07FC7EC0
03F83EC0
03F83F80
03F83F80
03F01F80
01F01F80
01F01F00
01E00F00
00E00F00
00E00E00
00C00600
ENDCHAR
STARTCHAR X
ENCODING 88
SWIDTH 702 0
DWIDTH 24 0
BBX 24 25 0 0
BITMAP
7FE07F
7FE07F
3F801C
1FC038
0FC030
07E070
07E0E0
03F0C0
01F180
01FB80
00FF00
007E00
007E00
00FF00
01FF80
03DF80
038FC0
0787E0
0F07E0
0E03F0
1E03F8
3C01F8
7800FC
FE07FF
FE07FF
ENDCHAR
STARTCHAR Y
ENCODING 89
SWIDTH 717 0
DWIDTH 24 0
BBX 25 25 0 0
BITMAP
FFE03F80
FFE03F80
3F800E00
1F800C00
0FC01C00
0FC03800
07E03000
03F07000
03F06000
01F8C000
00FDC000
00FD8000
007F0000
003F0000
003E0000
003E0000
003E0000
003E0000
003E0000
003E0000
003E0000
003E0000
007F0000
01FFC000
01FFC000
ENDCHAR
STARTCHAR Z
ENCODING 90
SWIDTH 639 0
DWIDTH 22 0
BBX 18 25 2 0
BITMAP
7FFFC0
7FFFC0
700FC0
701F80
701F80
003F00
003E00
007E00
00FC00
00FC00
01F800
01F000
03F000
03E000
07E000
0FC000
0FC000
1F8000
1F0000
3F0000
7E01C0
7E01C0
FC01C0
FFFFC0
FFFFC0
ENDCHAR
STARTCHAR bracketleft
ENCODING 91
SWIDTH 327 0
DWIDTH 11 0
BBX 8 32 2 -6
BITMAP
FF
FF
F8
F8
F8
F8
F8
F8
F8
F8
F8
F8
F8
F8
F8
F8
F8
F8
F8
F8
F8
F8
F8
F8
F8
F8
F8
F8
F8
F8
FF
FF
ENDCHAR
STARTCHAR backslash
ENCODING 92
SWIDTH 527 0
DWIDTH 18 0
BBX 18 32 0 -6
BITMAP
E00000
F00000
700000
780000
380000
3C0000
1C0000
1E0000
0E0000
0F0000
070000
078000
038000
03C000
01C000
01C000
00E000
00E000
007000
007000
003800
003800
003C00
001C00
001E00
000E00
000F00
000700
000780
000380
0003C0
0001C0
ENDCHAR
STARTCHAR bracketright
ENCODING 93
SWIDTH 327 0
DWIDTH 11 0
BBX 8 32 1 -6
BITMAP
FF
FF
1F
1F
1F
1F
1F
1F
1F
1F
1F
1F
1F
1F
1F
1F
1F
1F
1F
1F
1F
1F
1F
1F
1F
1F
1F
1F
1F
1F
FF
FF
ENDCHAR
STARTCHAR asciicircum
ENCODING 94
SWIDTH 623 0
DWIDTH 21 0
BBX 20 22 1 4
BITMAP
002000
006000
006000
006000
00F000
00F000
01F800
01F800
039C00
039C00
079E00
070E00
0F0F00
0E0700
1E0780
1C0380
3C03C0
3801C0
7801E0
7000E0
F000F0
E00070
ENDCHAR
STARTCHAR underscore
ENCODING 95
SWIDTH 500 0
DWIDTH 17 0
BBX 14 3 2 -4
BITMAP
FFFC
FFFC
FFFC
ENDCHAR
STARTCHAR grave
ENCODING 96
SWIDTH 617 0
DWIDTH 21 0
BBX 8 5 5 21
BITMAP
F8
38
1C
0E
07
ENDCHAR
STARTCHAR a
ENCODING 97
SWIDTH 556 0
DWIDTH 19 0
BBX 17 18 1 0
BITMAP
0FF000
3FF800
387C00
383E00
383E00
003E00
003E00
0FFE00
3FFE00
7E3E00
FC3E00
F83E00
F83E00
F83E00
FC7E00
7FDE00
7F9F80
1F0F80
ENDCHAR
STARTCHAR b
ENCODING 98
SWIDTH 640 0
DWIDTH 22 0
BBX 21 26 0 0
BITMAP
FF0000
FF0000
3F0000
1F0000
1F0000
1F0000
1F0000
1F0000
1F0F80
1F3FC0
1F7FE0
1F7FF0
1FC3F0
1F81F8
1F00F8
1F00F8
1F00F8
1F00F8
1F00F8
1F00F8
1F01F0
1F01F0
1FC3F0
1FFFE0
1F7FC0
1E1F00
ENDCHAR
STARTCHAR c
ENCODING 99
SWIDTH 541 0
DWIDTH 18 0
BBX 16 18 1 0
BITMAP
03FE
0FFF
3E0F
3C07
7C07
7807
F800
F800
F800
F800
F800
F800
7C00
7E00
3F01
1FFF
0FFF
03FC
ENDCHAR
STARTCHAR d
ENCODING 100
SWIDTH 652 0
DWIDTH 22 0
BBX 21 26 1 0
BITMAP
003FC0
003FC0
000FC0
0007C0
0007C0
0007C0
0007C0
0007C0
07C7C0
1FF7C0
3FFFC0
7E1FC0
7C07C0
7807C0
F807C0
F807C0
F807C0
F807C0
F807C0
F807C0
FC0FC0
7E1FC0
7FF7C0
3FF7E0
1FE7F8
0F87F8
ENDCHAR
STARTCHAR e
ENCODING 101
SWIDTH 568 0
DWIDTH 19 0
BBX 16 18 1 0
BITMAP
07F0
1FF8
3C3C
7C1E
781E
781F
F81F
FFFF
FFFF
F800
F800
F800
7C00
7E00
3F01
1FFF
0FFF
03FC
ENDCHAR
STARTCHAR f
ENCODING 102
SWIDTH 416 0
DWIDTH 14 0
BBX 14 26 1 0
BITMAP
03F8
07FC
0F9C
1F1C
1F1C
1F00
1F00
1F00
FFF0
FFF0
1F00
1F00
1F00
1F00
1F00
1F00
1F00
1F00
1F00
1F00
1F00
1F00
1F00
3F80
FFE0
FFE0
ENDCHAR
STARTCHAR g
ENCODING 103
SWIDTH 599 0
DWIDTH 20 0
BBX 19 25 1 -7
BITMAP
07FFE0
1FFFE0
3E3EC0
3C1E00
7C1F00
7C1F00
7C1F00
7C1F00
3C1F00
3C1E00
1E3E00
07FC00
0FF000
3C0000
3FFE00
3FFF80
3FFFC0
0FFFC0
3807C0
F807C0
F807C0
F80F80
FE1F00
7FFE00
0FF800
ENDCHAR
STARTCHAR h
ENCODING 104
SWIDTH 654 0
DWIDTH 22 0
BBX 22 26 0 0
BITMAP
FF0000
FF0000
3F0000
1F0000
1F0000
1F0000
1F0000
1F0000
1F0F00
1F3FC0
1F7FC0
1F7FE0
1FC3E0
1F83E0
1F03E0
1F03E0
1F03E0
1F03E0
1F03E0
1F03E0
1F03E0
1F03E0
1F03E0
3F87F0
FFFFFC
FFFFFC
ENDCHAR
STARTCHAR i
ENCODING 105
SWIDTH 325 0
DWIDTH 11 0
BBX 11 26 0 0
BITMAP
1F00
1F00
1F00
1F00
1F00
0000
0000
0000
FF00
FF00
3F00
1F00
1F00
1F00
1F00
1F00
1F00
1F00
1F00
1F00
1F00
1F00
1F00
3F80
FFE0
FFE0
ENDCHAR
STARTCHAR j
ENCODING 106
SWIDTH 355 0
DWIDTH 12 0
BBX 11 33 -1 -7
BITMAP
03E0
03E0
03E0
03E0
03E0
0000
0000
0000
0FE0
0FE0
03E0
03E0
03E0
03E0
03E0
03E0
03E0
03E0
03E0
03E0
03E0
03E0
03E0
03E0
03E0
03E0
03E0
E3E0
E3E0
E3C0
F7C0
FF80
7F00
ENDCHAR
STARTCHAR k
ENCODING 107
SWIDTH 654 0
DWIDTH 21 0
BBX 22 26 0 0
BITMAP
FF0000
FF0000
3F0000
1F0000
1F0000
1F0000
1F0000
1F0000
1F07F0
1F07F0
1F01C0
1F0380
1F0700
1F1E00
1F3800
1F7800
1FFC00
1FFC00
1F7E00
1F3F00
1F1F80
1F1FC0
1F0FE0
3F07F0
FFC3FC
FFC3FC
ENDCHAR
STARTCHAR l
ENCODING 108
SWIDTH 325 0
DWIDTH 11 0
BBX 11 26 0 0
BITMAP
FF00
FF00
3F00
1F00
1F00
1F00
1F00
1F00
1F00
1F00
1F00
1F00
1F00
1F00
1F00
1F00
1F00
1F00
1F00
1F00
1F00
1F00
1F00
3F80
FFE0
FFE0
ENDCHAR
STARTCHAR m
ENCODING 109
SWIDTH 967 0
DWIDTH 33 0
BBX 33 18 0 0
BITMAP
FF1F01E000
FF3FC7F800
3F7FCFF800
1FFFFFFC00
1FC7F87C00
1F83F07C00
1F03E07C00
1F03E07C00
1F03E07C00
1F03E07C00
1F03E07C00
1F03E07C00
1F03E07C00
1F03E07C00
1F03E07C00
3F03E07E00
FFCFF9FF80
FFCFF9FF80
ENDCHAR
STARTCHAR n
ENCODING 110
SWIDTH 654 0
DWIDTH 22 0
BBX 22 18 0 0
BITMAP
FF0F00
FF3FC0
7F7FC0
1F7FE0
1FC3E0
1F83E0
1F03E0
1F03E0
1F03E0
1F03E0
1F03E0
1F03E0
1F03E0
1F03E0
1F03E0
3F87F0
FFFFFC
FFFFFC
ENDCHAR
STARTCHAR o
ENCODING 111
SWIDTH 617 0
DWIDTH 21 0
BBX 19 18 1 0
BITMAP
03F800
0FFE00
3F1F80
3C0780
7C07C0
7803C0
F803E0
F803E0
F803E0
F803E0
F803E0
F803E0
7803C0
7C07C0
3C0780
3F1F80
0FFE00
03F800
ENDCHAR
STARTCHAR p
ENCODING 112
SWIDTH 652 0
DWIDTH 22 0
BBX 21 25 0 -7
BITMAP
FF0F80
FF3FC0
3F7FE0
1F7FF0
1FC3F0
1F81F8
1F00F8
1F00F8
1F00F8
1F00F8
1F00F8
1F00F8
1F01F0
1F01F0
1FC3F0
1FFFE0
1F7FC0
1F1F00
1F0000
1F0000
1F0000
1F0000
3F8000
FFE000
FFE000
ENDCHAR
STARTCHAR q
ENCODING 113
SWIDTH 640 0
DWIDTH 22 0
BBX 21 25 1 -7
BITMAP
07C7C0
1FF7C0
3FFFC0
7E1FC0
7C07C0
7C07C0
F807C0
F807C0
F807C0
F807C0
F807C0
F807C0
FC0FC0
7E1FC0
7FF7C0
3FF7C0
1FE7C0
0F87C0
0007C0
0007C0
0007C0
0007C0
000FE0
003FF8
003FF8
ENDCHAR
STARTCHAR r
ENCODING 114
SWIDTH 462 0
DWIDTH 16 0
BBX 15 18 0 0
BITMAP
FF0E
FF3E
3F7E
1FFE
1F8E
1F0E
1F00
1F00
1F00
1F00
1F00
1F00
1F00
1F00
1F00
3F80
FFE0
FFE0
ENDCHAR
STARTCHAR s
ENCODING 115
SWIDTH 525 0
DWIDTH 18 0
BBX 15 18 2 0
BITMAP
0FE0
3FF8
7C78
F838
F838
FC38
FF00
7FE0
7FF8
3FFC
0FFE
01FE
E07E
E03E
E03E
F87C
FFF8
3FE0
ENDCHAR
STARTCHAR t
ENCODING 116
SWIDTH 389 0
DWIDTH 13 0
BBX 11 23 1 0
BITMAP
0600
3E00
3E00
3E00
3E00
FFE0
FFE0
3E00
3E00
3E00
3E00
3E00
3E00
3E00
3E00
3E00
3E00
3E00
3E00
3F00
1FE0
1FE0
07E0
ENDCHAR
STARTCHAR u
ENCODING 117
SWIDTH 654 0
DWIDTH 22 0
BBX 22 18 0 0
BITMAP
FF1FE0
FF1FE0
3F07E0
1F03E0
1F03E0
1F03E0
1F03E0
1F03E0
1F03E0
1F03E0
1F03E0
1F03E0
1F07E0
1F0FE0
1FFBE0
0FFBF8
0FF3FC
03C3FC
ENDCHAR
STARTCHAR v
ENCODING 118
SWIDTH 657 0
DWIDTH 22 0
BBX 22 18 0 0
BITMAP
FFC1FC
FFC1FC
3F0070
1F0060
1F80E0
0F80C0
0FC1C0
07C180
07E380
03E300
03F700
01F600
01FE00
00FC00
00FC00
007800
007800
003000
ENDCHAR
STARTCHAR w
ENCODING 119
SWIDTH 880 0
DWIDTH 30 0
BBX 30 18 0 0
BITMAP
FFC1C1FC
FFC1C1FC
7E03E070
3F03E060
1F07E060
1F07F0E0
1F87F0C0
0F8FF8C0
0F8CF9C0
07DCF980
07D8FF80
07F87F00
03F07F00
03F03F00
03E03E00
01E01E00
01C01C00
00C01C00
ENDCHAR
STARTCHAR x
ENCODING 120
SWIDTH 608 0
DWIDTH 21 0
BBX 21 18 0 0
BITMAP
FFE3F8
FFE3F8
3F81E0
1F8180
0FC380
07E700
03FE00
03FC00
01F800
00FC00
01FE00
03FF00
073F80
0E1F80
1C0FC0
3807E0
FE1FF8
FE1FF8
ENDCHAR
STARTCHAR y
ENCODING 121
SWIDTH 654 0
DWIDTH 22 0
BBX 22 25 0 -7
BITMAP
FFC0FC
FFC0FC
3F0070
1F0060
1F8060
0F80C0
0FC0C0
07C180
07E380
07E300
03E700
03F600
01FE00
01FC00
00F800
00F800
007000
007000
002000
006000
00C000
01C000
038000
078000
1F0000
ENDCHAR
STARTCHAR z
ENCODING 122
SWIDTH 584 0
DWIDTH 20 0
BBX 16 18 2 0
BITMAP
7FFF
7FFF
607F
607E
70FC
01F8
01F8
03F0
07E0
0FE0
0FC0
1F80
3F00
3F07
7E07
FC07
FFFF
FFFF
ENDCHAR
STARTCHAR braceleft
ENCODING 123
SWIDTH 366 0
DWIDTH 12 0
BBX 9 32 2 -6
BITMAP
0780
0F80
1F00
3E00
3E00
3E00
3E00
3E00
3E00
3E00
3E00
3E00
3E00
3C00
7C00
F000
F000
7800
3C00
3E00
3E00
3E00
3E00
3E00
3E00
3E00
3E00
3E00
3E00
1F00
0F80
0780
ENDCHAR
STARTCHAR bar
ENCODING 124
SWIDTH 259 0
DWIDTH 9 0
BBX 3 32 3 -6
BITMAP
E0
E0
E0
E0
E0
E0
E0
E0
E0
E0
E0
E0
E0
E0
E0
E0
E0
E0
E0
E0
E0
E0
E0
E0
E0
E0
E0
E0
E0
E0
E0
E0
ENDCHAR
STARTCHAR braceright
ENCODING 125
SWIDTH 366 0
DWIDTH 12 0
BBX 9 32 2 -6
BITMAP
F000
F800
7C00
3E00
3E00
3E00
3E00
3E00
3E00
3E00
3E00
3E00
3E00
1E00
0F00
0780
0780
1F00
1E00
3E00
3E00
3E00
3E00
3E00
3E00
3E00
3E00
3E00
3E00
7C00
F800
F000
ENDCHAR
STARTCHAR asciitilde
ENCODING 126
SWIDTH 623 0
DWIDTH 21 0
BBX 20 7 1 6
BITMAP
1E0000
3F8030
7FE030
E1F870
C07FE0
C01FC0
000F80
ENDCHAR
STARTCHAR space
ENCODING 160
SWIDTH 333 0
DWIDTH 11 0
BBX 1 1 0 0
BITMAP
00
ENDCHAR
STARTCHAR exclamdown
ENCODING 161
SWIDTH 265 0
DWIDTH 9 0
BBX 5 25 2 -7
BITMAP
F8
F8
F8
F8
F8
00
00
30
30
30
70
70
70
70
78
78
78
F8
F8
F8
F8
F8
F8
F8
F8
ENDCHAR
STARTCHAR cent
ENCODING 162
SWIDTH 623 0
DWIDTH 21 0
BBX 17 25 1 0
BITMAP
006000
006000
006000
03FF00
0FFF80
1F6780
3C6380
7C6380
786380
F86000
F86000
F86000
F86000
F86000
F86000
F86000
7C6000
7C6000
3F6180
1FFF80
0FFF80
03FF00
006000
006000
006000
ENDCHAR
STARTCHAR sterling
ENCODING 163
SWIDTH 623 0
DWIDTH 21 0
BBX 15 25 4 0
BITMAP
01F8
07FE
079E
0F0E
0F0E
1F0E
1F00
1F00
1F00
1F00
1F00
7FE0
7FE0
1F00
1F00
1F00
1F00
1E00
1C00
3000
FFFE
FFFE
FFFE
FFFE
FFFE
ENDCHAR
STARTCHAR currency
ENCODING 164
SWIDTH 623 0
DWIDTH 21 0
BBX 21 23 0 1
BITMAP
400010
E00038
700070
38F8E0
1FFFC0
0FFF80
078F00
0F0780
0E0380
1C01C0
1C01C0
1C01C0
1C01C0
1C01C0
1E0380
0F0780
078F00
0FFF80
1FFFC0
38F8E0
700070
E00038
400010
ENDCHAR
STARTCHAR yen
ENCODING 165
SWIDTH 623 0
DWIDTH 21 0
BBX 22 25 0 0
BITMAP
FFC0FC
FFC0FC
7F0038
3F0070
1F80E0
1FC1C0
0FE180
07F300
03F600
01FE00
01FC00
0FFFC0
0FFFC0
00F800
00F800
00F800
0FFFC0
0FFFC0
00F800
00F800
00F800
00F800
01FC00
07FF00
07FF00
ENDCHAR
STARTCHAR brokenbar
ENCODING 166
SWIDTH 259 0
DWIDTH 9 0
BBX 3 32 3 -6
BITMAP
E0
E0
E0
E0
E0
E0
E0
E0
E0
E0
E0
E0
E0
E0
E0
00
00
E0
E0
E0
E0
E0
E0
E0
E0
E0
E0
E0
E0
E0
E0
E0
ENDCHAR
STARTCHAR section
ENCODING 167
SWIDTH 623 0
DWIDTH 21 0
BBX 16 31 3 -6
BITMAP
0FF8
3FFE
7E1E
FC0E
F80E
F80E
F800
FC00
7F80
7FE0
1FF8
3FFC
73FE
F0FF
F03F
F81F
FC0F
FF0F
7FCE
3FFC
1FF8
0FFC
01FE
007F
001F
E01F
E01F
E03F
F83E
FFFC
3FF0
ENDCHAR
STARTCHAR dieresis
ENCODING 168
SWIDTH 617 0
DWIDTH 21 0
BBX 10 4 5 21
BITMAP
E1C0
E1C0
E1C0
E1C0
ENDCHAR
STARTCHAR copyright
ENCODING 169
SWIDTH 855 0
DWIDTH 29 0
BBX 26 25 2 0
BITMAP
007F8000
01FFE000
07C0F800
0F003C00
1C000E00
383F8700
30FFC300
61F0C180
61E0C180
E3C001C0
C3C000C0
C3C000C0
C3C000C0
C3C000C0
C3C000C0
E1E001C0
61E00180
60F04180
307FC300
381F8700
1C000E00
0F003C00
07C0F800
01FFE000
007F8000
ENDCHAR
STARTCHAR ordfeminine
ENCODING 170
SWIDTH 488 0
DWIDTH 17 0
BBX 15 14 2 11
BITMAP
1FC0
7FF0
79F8
70F8
00F8
00F8
1FF8
7FF8
7CF8
F8F8
F9F8
FFF8
7F7E
3E3E
ENDCHAR
STARTCHAR guillemotleft
ENCODING 171
SWIDTH 566 0
DWIDTH 19 0
BBX 16 16 1 1
BITMAP
0102
0307
0706
0E0E
1E1C
3C3C
7C78
F8F8
F8F8
7C78
3C3C
1E1C
0E0E
0706
0303
0102
ENDCHAR
STARTCHAR logicalnot
ENCODING 172
SWIDTH 623 0
DWIDTH 21 0
BBX 20 9 1 5
BITMAP
FFFFF0
FFFFF0
FFFFF0
000070
000070
000070
000070
000070
000070
ENDCHAR
STARTCHAR hyphen
ENCODING 173
SWIDTH 289 0
DWIDTH 10 0
BBX 8 4 1 8
BITMAP
FF
FF
FF
FF
ENDCHAR
STARTCHAR registered
ENCODING 174
SWIDTH 623 0
DWIDTH 21 0
BBX 16 17 3 8
BITMAP
07E0
1FF8
3C3C
700E
6FC6
EFE7
C663
C663
C7C3
C7C3
C663
EE77
6E76
700E
3C3C
1FF8
07E0
ENDCHAR
STARTCHAR macron
ENCODING 175
SWIDTH 617 0
DWIDTH 21 0
BBX 10 3 5 22
BITMAP
FFC0
FFC0
FFC0
ENDCHAR
STARTCHAR degree
ENCODING 176
SWIDTH 259 0
DWIDTH 9 0
BBX 6 6 1 19
BITMAP
78
FC
CC
CC
FC
78
ENDCHAR
STARTCHAR plusminus
ENCODING 177
SWIDTH 623 0
DWIDTH 21 0
BBX 21 21 0 0
BITMAP
007000
007000
007000
007000
007000
007000
FFFFF8
FFFFF8
FFFFF8
007000
007000
007000
007000
007000
007000
000000
000000
000000
FFFFF8
FFFFF8
FFFFF8
ENDCHAR
STARTCHAR twosuperior
ENCODING 178
SWIDTH 374 0
DWIDTH 13 0
BBX 10 15 -20 10
BITMAP
7F00
C380
C1C0
81C0
01C0
01C0
0380
0300
0400
1800
3000
6000
7FC0
FFC0
FFC0
ENDCHAR
STARTCHAR threesuperior
ENCODING 179
SWIDTH 374 0
DWIDTH 13 0
BBX 10 15 -20 10
BITMAP
FF00
C380
81C0
01C0
01C0
0180
0200
7F00
0780
03C0
01C0
01C0
81C0
8380
FE00
ENDCHAR
STARTCHAR acute
ENCODING 180
SWIDTH 617 0
DWIDTH 21 0
BBX 8 5 8 21
BITMAP
1F
3C
38
70
E0
ENDCHAR
STARTCHAR mu
ENCODING 181
SWIDTH 705 0
DWIDTH 24 0
BBX 22 24 1 -6
BITMAP
FF1FE0
FF1FE0
3F07E0
1F03E0
1F03E0
1F03E0
1F03E0
1F03E0
1F03E0
1F03E0
1F03E0
1F03E0
1F03E0
1F0FE0
1FFFE0
1FFBF0
1FF3FC
1FE3FC
1F0000
1F0000
1F0000
1F0000
1F0000
1F0000
ENDCHAR
STARTCHAR paragraph
ENCODING 182
SWIDTH 623 0
DWIDTH 21 0
BBX 14 31 2 -6
BITMAP
1FFC
3FFC
7FFC
FF8C
FF8C
FF8C
FF8C
FF8C
FF8C
7F8C
7F8C
3F8C
0F8C
018C
018C
018C
018C
018C
018C
018C
018C
018C
018C
018C
018C
018C
018C
018C
018C
018C
018C
ENDCHAR
STARTCHAR periodcentered
ENCODING 183
SWIDTH 623 0
DWIDTH 21 0
BBX 4 5 9 7
BITMAP
F0
F0
F0
F0
F0
ENDCHAR
STARTCHAR cedilla
ENCODING 184
SWIDTH 617 0
DWIDTH 21 0
BBX 6 7 8 -7
BITMAP
30
60
78
3C
3C
FC
F8
ENDCHAR
STARTCHAR onesuperior
ENCODING 185
SWIDTH 374 0
DWIDTH 13 0
BBX 9 15 -21 10
BITMAP
FC00
1C00
1C00
1C00
1C00
1C00
1C00
1C00
1C00
1C00
1C00
1C00
1C00
3E00
FF80
ENDCHAR
STARTCHAR ordmasculine
ENCODING 186
SWIDTH 488 0
DWIDTH 17 0
BBX 15 14 1 11
BITMAP
0FE0
3FF8
7C7C
7C7C
F83E
F83E
F83E
F83E
F83E
F83E
7C7C
7C7C
3FF8
0FE0
ENDCHAR
STARTCHAR guillemotright
ENCODING 187
SWIDTH 566 0
DWIDTH 19 0
BBX 16 16 2 1
BITMAP
4080
E0C0
60E0
7070
3878
3C3C
1E3E
1F1F
1F1F
1E3E
3C3C
3878
7070
60E0
E0C0
4080
ENDCHAR
STARTCHAR onequarter
ENCODING 188
SWIDTH 803 0
DWIDTH 27 0
BBX 24 25 6 0
BITMAP
FC003F
1C003E
1C007C
1C00F8
1C01F0
1C01F0
1C03E0
1C07C0
1C0F80
1C0F80
1C1F1C
1C3E3C
1C7E3C
3E7C5C
FFF89C
01F11C
01F31C
03E61C
07C41C
0F8FFF
0F8FFF
1F001C
3E001C
7C001C
FC007F
ENDCHAR
STARTCHAR onehalf
ENCODING 189
SWIDTH 803 0
DWIDTH 27 0
BBX 24 25 6 0
BITMAP
FC003F
1C003E
1C007C
1C00F8
1C01F0
1C01F0
1C03E0
1C07C0
1C0F80
1C0F80
1C1FF8
1C3E1C
1C7E0E
3E7C0E
FFF80E
01F00E
01F01C
03E018
07C020
0F80C0
0F8180
1F0300
3E03FE
7C07FE
FC07FE
ENDCHAR
STARTCHAR threequarters
ENCODING 190
SWIDTH 803 0
DWIDTH 27 0
BBX 25 25 7 0
BITMAP
FF001F80
C3801F00
81C03E00
01C07C00
01C0F800
0180F800
0201F000
7F03E000
0787C000
03C7C000
01CF8E00
01DF1E00
81FF1E00
83BE2E00
FE7C4E00
00F88E00
00F98E00
01F30E00
03E20E00
07C7FF80
07C7FF80
0F800E00
1F000E00
3E000E00
7E003F80
ENDCHAR
STARTCHAR questiondown
ENCODING 191
SWIDTH 505 0
DWIDTH 17 0
BBX 15 25 1 -7
BITMAP
03E0
03E0
03E0
03E0
03E0
0000
0000
03E0
03E0
03C0
03C0
0380
0700
0E00
1C00
3800
7800
F800
F800
F80E
F80E
FC0E
7E1E
3FFE
0FF8
ENDCHAR
STARTCHAR Agrave
ENCODING 192
SWIDTH 795 0
DWIDTH 27 0
BBX 27 32 0 0
BITMAP
00F80000
00380000
001C0000
000E0000
00070000
00000000
00000000
000E0000
000E0000
001F0000
001F0000
003F8000
003F8000
003FC000
006FC000
0067C000
00C7E000
00C3E000
0183F000
0181F000
0301F800
0300F800
07FFFC00
07FFFC00
0E007E00
0C003E00
1C003F00
18001F00
38001F80
78001F80
FE007FE0
FE007FE0
ENDCHAR
STARTCHAR Aacute
ENCODING 193
SWIDTH 795 0
DWIDTH 27 0
BBX 27 32 0 0
BITMAP
0003E000
00078000
00070000
000E0000
001C0000
00000000
00000000
000E0000
000E0000
001F0000
001F0000
003F8000
003F8000
003FC000
006FC000
0067C000
00C7E000
00C3E000
0183F000
0181F000
0301F800
0300F800
07FFFC00
07FFFC00
0E007E00
0C003E00
1C003F00
18001F00
38001F80
78001F80
FE007FE0
FE007FE0
ENDCHAR
STARTCHAR Acircumflex
ENCODING 194
SWIDTH 795 0
DWIDTH 27 0
BBX 27 32 0 0
BITMAP
003F0000
003F0000
00738000
00E1C000
01C0E000
00000000
00000000
000E0000
000E0000
001F0000
001F0000
003F8000
003F8000
003FC000
006FC000
0067C000
00C7E000
00C3E000
0183F000
0181F000
0301F800
0300F800
07FFFC00
07FFFC00
0E007E00
0C003E00
1C003F00
18001F00
38001F80
78001F80
FE007FE0
FE007FE0
ENDCHAR
STARTCHAR Atilde
ENCODING 195
SWIDTH 795 0
DWIDTH 27 0
BBX 27 32 0 0
BITMAP
00786000
00FFE000
01FFE000
01FFC000
01838000
00000000
00000000
000E0000
000E0000
001F0000
001F0000
003F8000
003F8000
003FC000
006FC000
0067C000
00C7E000
00C3E000
0183F000
0181F000
0301F800
0300F800
07FFFC00
07FFFC00
0E007E00
0C003E00
1C003F00
18001F00
38001F80
78001F80
FE007FE0
FE007FE0
ENDCHAR
STARTCHAR Adieresis
ENCODING 196
SWIDTH 795 0
DWIDTH 27 0
BBX 27 31 0 0
BITMAP
0070E000
0070E000
0070E000
0070E000
00000000
00000000
000E0000
000E0000
001F0000
001F0000
003F8000
003F8000
003FC000
006FC000
0067C000
00C7E000
00C3E000
0183F000
0181F000
0301F800
0300F800
07FFFC00
07FFFC00
0E007E00
0C003E00
1C003F00
18001F00
38001F80
78001F80
FE007FE0
FE007FE0
ENDCHAR
STARTCHAR Aring
ENCODING 197
SWIDTH 795 0
DWIDTH 27 0
BBX 27 32 0 0
BITMAP
000E0000
001B0000
00110000
001B0000
000E0000
00000000
00000000
000E0000
000E0000
001F0000
001F0000
003F8000
003F8000
003FC000
006FC000
0067C000
00C7E000
00C3E000
0183F000
0181F000
0301F800
0300F800
07FFFC00
07FFFC00
0E007E00
0C003E00
1C003F00
18001F00
38001F80
78001F80
FE007FE0
FE007FE0
ENDCHAR
STARTCHAR AE
ENCODING 198
SWIDTH 959 0
DWIDTH 33 0
BBX 31 25 0 0
BITMAP
0001FFFC
0003FFFC
0003F03C
0007F01C
000FF01C
000DF000
001DF000
0019F000
0031F000
0071F038
0061F038
00E1FFF8
00C1FFF8
0181F038
0181F038
0301F000
07FFF000
07FFF000
0C01F000
0C01F000
1801F006
3001F006
7003F80E
FC0FFFFE
FC0FFFFE
ENDCHAR
STARTCHAR Ccedilla
ENCODING 199
SWIDTH 711 0
DWIDTH 24 0
BBX 21 32 1 -7
BITMAP
007FC0
03FFF8
0FC0F8
1F0038
3E0038
3C0038
7C0000
7C0000
F80000
F80000
F80000
F80000
F80000
F80000
F80000
F80000
FC0000
7C0000
7E0000
3E0000
3F8008
1FC078
0FFFF8
03FFF0
007FC0
003000
006000
007800
003C00
003C00
00FC00
00F800
ENDCHAR
STARTCHAR Egrave
ENCODING 200
SWIDTH 601 0
DWIDTH 20 0
BBX 19 32 1 0
BITMAP
07C000
01C000
00E000
007000
003800
000000
000000
FFFFE0
FFFFE0
3F01E0
1F00E0
1F00E0
1F0000
1F0000
1F0000
1F0000
1F0300
1F0300
1FFF00
1FFF00
1F0300
1F0300
1F0000
1F0000
1F0000
1F0000
1F0000
1F00E0
1F00E0
3F80E0
FFFFE0
FFFFE0
ENDCHAR
STARTCHAR Eacute
ENCODING 201
SWIDTH 601 0
DWIDTH 20 0
BBX 19 32 1 0
BITMAP
003E00
007800
007000
00E000
01C000
000000
000000
FFFFE0
FFFFE0
3F01E0
1F00E0
1F00E0
1F0000
1F0000
1F0000
1F0000
1F0300
1F0300
1FFF00
1FFF00
1F0300
1F0300
1F0000
1F0000
1F0000
1F0000
1F0000
1F00E0
1F00E0
3F80E0
FFFFE0
FFFFE0
ENDCHAR
STARTCHAR Ecircumflex
ENCODING 202
SWIDTH 601 0
DWIDTH 20 0
BBX 19 32 1 0
BITMAP
01F800
01F800
039C00
070E00
0E0700
000000
000000
FFFFE0
FFFFE0
3F01E0
1F00E0
1F00E0
1F0000
1F0000
1F0000
1F0000
1F0300
1F0300
1FFF00
1FFF00
1F0300
1F0300
1F0000
1F0000
1F0000
1F0000
1F0000
1F00E0
1F00E0
3F80E0
FFFFE0
FFFFE0
ENDCHAR
STARTCHAR Edieresis
ENCODING 203
SWIDTH 601 0
DWIDTH 20 0
BBX 19 31 1 0
BITMAP
070E00
070E00
070E00
070E00
000000
000000
FFFFE0
FFFFE0
3F01E0
1F00E0
1F00E0
1F0000
1F0000
1F0000
1F0000
1F0300
1F0300
1FFF00
1FFF00
1F0300
1F0300
1F0000
1F0000
1F0000
1F0000
1F0000
1F00E0
1F00E0
3F80E0
FFFFE0
FFFFE0
ENDCHAR
STARTCHAR Igrave
ENCODING 204
SWIDTH 349 0
DWIDTH 12 0
BBX 11 32 0 0
BITMAP
F800
3800
1C00
0E00
0700
0000
0000
FFE0
FFE0
3F80
1F00
1F00
1F00
1F00
1F00
1F00
1F00
1F00
1F00
1F00
1F00
1F00
1F00
1F00
1F00
1F00
1F00
1F00
1F00
3F80
FFE0
FFE0
ENDCHAR
STARTCHAR Iacute
ENCODING 205
SWIDTH 349 0
DWIDTH 12 0
BBX 11 32 0 0
BITMAP
03E0
0780
0700
0E00
1C00
0000
0000
FFE0
FFE0
3F80
1F00
1F00
1F00
1F00
1F00
1F00
1F00
1F00
1F00
1F00
1F00
1F00
1F00
1F00
1F00
1F00
1F00
1F00
1F00
3F80
FFE0
FFE0
ENDCHAR
STARTCHAR Icircumflex
ENCODING 206
SWIDTH 349 0
DWIDTH 12 0
BBX 12 32 1 0
BITMAP
1F80
1F80
39C0
70E0
E070
0000
0000
7FF0
7FF0
1FC0
0F80
0F80
0F80
0F80
0F80
0F80
0F80
0F80
0F80
0F80
0F80
0F80
0F80
0F80
0F80
0F80
0F80
0F80
0F80
1FC0
7FF0
7FF0
ENDCHAR
STARTCHAR Idieresis
ENCODING 207
SWIDTH 349 0
DWIDTH 12 0
BBX 11 31 0 0
BITMAP
E1C0
E1C0
E1C0
E1C0
0000
0000
FFE0
FFE0
3F80
1F00
1F00
1F00
1F00
1F00
1F00
1F00
1F00
1F00
1F00
1F00
1F00
1F00
1F00
1F00
1F00
1F00
1F00
1F00
3F80
FFE0
FFE0
ENDCHAR
STARTCHAR Eth
ENCODING 208
SWIDTH 794 0
DWIDTH 27 0
BBX 25 25 0 0
BITMAP
7FFF8000
7FFFF000
3F03F800
1F007C00
1F003E00
1F001F00
1F001F00
1F001F00
1F000F80
1F000F80
1F000F80
FFFC0F80
FFFC0F80
1F000F80
1F000F80
1F000F80
1F000F00
1F001F00
1F001F00
1F001E00
1F003E00
1F007C00
3F81F800
7FFFF000
7FFF8000
ENDCHAR
STARTCHAR Ntilde
ENCODING 209
SWIDTH 788 0
DWIDTH 27 0
BBX 25 32 1 0
BITMAP
00786000
00FFE000
01FFE000
01FFC000
01838000
00000000
00000000
FE00FF80
FF00FF80
3F003E00
1F801C00
1FC01C00
1FC01C00
1FE01C00
1FF01C00
1DF81C00
1DF81C00
1CFC1C00
1C7E1C00
1C7E1C00
1C3F1C00
1C1F9C00
1C1FDC00
1C0FDC00
1C07FC00
1C03FC00
1C03FC00
1C01FC00
1C00FC00
3E00FC00
FF807C00
FF803C00
ENDCHAR
STARTCHAR Ograve
ENCODING 210
SWIDTH 810 0
DWIDTH 28 0
BBX 25 32 1 0
BITMAP
01F00000
00700000
00380000
001C0000
000E0000
00000000
00000000
00FF8000
03FFE000
0FC1F800
1F007C00
3E003E00
3C001E00
7C001F00
7C001F00
F8000F80
F8000F80
F8000F80
F8000F80
F8000F80
F8000F80
F8000F80
F8000F80
F8000F80
7C001F00
7C001F00
3E003E00
3E003E00
1F007C00
0FC1F800
03FFE000
00FF8000
ENDCHAR
STARTCHAR Oacute
ENCODING 211
SWIDTH 810 0
DWIDTH 28 0
BBX 25 32 1 0
BITMAP
0007C000
000F0000
000E0000
001C0000
00380000
00000000
00000000
00FF8000
03FFE000
0FC1F800
1F007C00
3E003E00
3C001E00
7C001F00
7C001F00
F8000F80
F8000F80
F8000F80
F8000F80
F8000F80
F8000F80
F8000F80
F8000F80
F8000F80
7C001F00
7C001F00
3E003E00
3E003E00
1F007C00
0FC1F800
03FFE000
00FF8000
ENDCHAR
STARTCHAR Ocircumflex
ENCODING 212
SWIDTH 810 0
DWIDTH 28 0
BBX 25 32 1 0
BITMAP
007E0000
007E0000
00E70000
01C38000
0381C000
00000000
00000000
00FF8000
03FFE000
0FC1F800
1F007C00
3E003E00
3C001E00
7C001F00
7C001F00
F8000F80
F8000F80
F8000F80
F8000F80
F8000F80
F8000F80
F8000F80
F8000F80
F8000F80
7C001F00
7C001F00
3E003E00
3E003E00
1F007C00
0FC1F800
03FFE000
00FF8000
ENDCHAR
STARTCHAR Otilde
ENCODING 213
SWIDTH 810 0
DWIDTH 28 0
BBX 25 32 1 0
BITMAP
00F0C000
01FFC000
03FFC000
03FF8000
03070000
00000000
00000000
00FF8000
03FFE000
0FC1F800
1F007C00
3E003E00
3C001E00
7C001F00
7C001F00
F8000F80
F8000F80
F8000F80
F8000F80
F8000F80
F8000F80
F8000F80
F8000F80
F8000F80
7C001F00
7C001F00
3E003E00
3E003E00
1F007C00
0FC1F800
03FFE000
00FF8000
ENDCHAR
STARTCHAR Odieresis
ENCODING 214
SWIDTH 810 0
DWIDTH 28 0
BBX 25 31 1 0
BITMAP
01C38000
01C38000
01C38000
01C38000
00000000
00000000
00FF8000
03FFE000
0FC1F800
1F007C00
3E003E00
3C001E00
7C001F00
7C001F00
F8000F80
F8000F80
F8000F80
F8000F80
F8000F80
F8000F80
F8000F80
F8000F80
F8000F80
7C001F00
7C001F00
3E003E00
3E003E00
1F007C00
0FC1F800
03FFE000
00FF8000
ENDCHAR
STARTCHAR multiply
ENCODING 215
SWIDTH 623 0
DWIDTH 21 0
BBX 20 21 1 0
BITMAP
600060
E00070
F000F0
7801E0
3C03C0
1E0780
0F0F00
079E00
03FC00
01F800
00F000
01F800
03FC00
079E00
0F0F00
1E0780
3C03C0
7801E0
F000F0
E00070
600060
ENDCHAR
STARTCHAR Oslash
ENCODING 216
SWIDTH 810 0
DWIDTH 28 0
BBX 25 25 1 0
BITMAP
00FF0380
03FFE700
0FC0F600
1F007C00
3E003E00
3E003E00
7C007F00
7C00FF00
F801CF80
F8038F80
F8070F80
F80E0F80
F81C0F80
F8380F80
F8700F80
F8E00F80
F9C00F00
7F801F00
7F001F00
7E001E00
3E003E00
1F007C00
3781F800
73FFE000
E07F0000
ENDCHAR
STARTCHAR Ugrave
ENCODING 217
SWIDTH 747 0
DWIDTH 25 0
BBX 25 32 0 0
BITMAP
01F00000
00700000
00380000
001C0000
000E0000
00000000
00000000
FFE0FF80
FFE0FF80
3F803E00
1F001C00
1F001C00
1F001C00
1F001C00
1F001C00
1F001C00
1F001C00
1F001C00
1F001C00
1F001C00
1F001C00
1F001C00
1F001C00
1F001C00
1F001C00
1F001C00
0F003C00
0F803800
0F807800
07E0F000
03FFE000
007F8000
ENDCHAR
STARTCHAR Uacute
ENCODING 218
SWIDTH 747 0
DWIDTH 25 0
BBX 25 32 0 0
BITMAP
0007C000
000F0000
000E0000
001C0000
00380000
00000000
00000000
FFE0FF80
FFE0FF80
3F803E00
1F001C00
1F001C00
1F001C00
1F001C00
1F001C00
1F001C00
1F001C00
1F001C00
1F001C00
1F001C00
1F001C00
1F001C00
1F001C00
1F001C00
1F001C00
1F001C00
0F003C00
0F803800
0F807800
07E0F000
03FFE000
007F8000
ENDCHAR
STARTCHAR Ucircumflex
ENCODING 219
SWIDTH 747 0
DWIDTH 25 0
BBX 25 32 0 0
BITMAP
007E0000
007E0000
00E70000
01C38000
0381C000
00000000
00000000
FFE0FF80
FFE0FF80
3F803E00
1F001C00
1F001C00
1F001C00
1F001C00
1F001C00
1F001C00
1F001C00
1F001C00
1F001C00
1F001C00
1F001C00
1F001C00
1F001C00
1F001C00
1F001C00
1F001C00
0F003C00
0F803800
0F807800
07E0F000
03FFE000
007F8000
ENDCHAR
STARTCHAR Udieresis
ENCODING 220
SWIDTH 747 0
DWIDTH 25 0
BBX 25 31 0 0
BITMAP
01C38000
01C38000
01C38000
01C38000
00000000
00000000
FFE0FF80
FFE0FF80
3F803E00
1F001C00
1F001C00
1F001C00
1F001C00
1F001C00
1F001C00
1F001C00
1F001C00
1F001C00
1F001C00
1F001C00
1F001C00
1F001C00
1F001C00
1F001C00
1F001C00
0F003C00
0F803800
0F807800
07E0F000
03FFE000
007F8000
ENDCHAR
STARTCHAR Yacute
ENCODING 221
SWIDTH 717 0
DWIDTH 24 0
BBX 25 32 0 0
BITMAP
0007C000
000F0000
000E0000
001C0000
00380000
00000000
00000000
FFE03F80
FFE03F80
3F800E00
1F800C00
0FC01C00
0FC03800
07E03000
03F07000
03F06000
01F8C000
00FDC000
00FD8000
007F0000
003F0000
003E0000
003E0000
003E0000
003E0000
003E0000
003E0000
003E0000
003E0000
007F0000
01FFC000
01FFC000
ENDCHAR
STARTCHAR Thorn
ENCODING 222
SWIDTH 614 0
DWIDTH 21 0
BBX 20 25 0 0
BITMAP
FFE000
FFE000
3F8000
1F0000
1F0000
1FFF00
1FFFC0
1F07E0
1F03E0
1F01F0
1F01F0
1F01F0
1F01F0
1F01F0
1F01F0
1F03E0
1F03C0
1F0FC0
1FFF00
1FFC00
1F0000
1F0000
3F8000
FFE000
FFE000
ENDCHAR
STARTCHAR germandbls
ENCODING 223
SWIDTH 700 0
DWIDTH 24 0
BBX 21 26 1 0
BITMAP
01FC00
07FF00
0F9F80
0F0F80
1F0F80
1F0F80
1F0F00
1F0E00
1F1C00
1F3800
1F3800
1F7800
1F7C00
1F7F00
1F3F80
1F3FC0
1F0FE0
1F07F0
1F03F8
1F01F8
1F00F8
1F38F8
1F38F8
3F39F0
FFBFE0
FF9F80
ENDCHAR
STARTCHAR agrave
ENCODING 224
SWIDTH 556 0
DWIDTH 19 0
BBX 17 25 1 0
BITMAP
1F0000
070000
038000
01C000
00E000
000000
000000
0FF000
3FF800
387C00
383E00
383E00
003E00
003E00
0FFE00
3FFE00
7E3E00
FC3E00
F83E00
F83E00
F83E00
FC7E00
7FDE00
7F9F80
1F0F80
ENDCHAR
STARTCHAR aacute
ENCODING 225
SWIDTH 556 0
DWIDTH 19 0
BBX 17 25 1 0
BITMAP
00F800
01E000
01C000
038000
070000
000000
000000
0FF000
3FF800
387C00
383E00
383E00
003E00
003E00
0FFE00
3FFE00
7E3E00
FC3E00
F83E00
F83E00
F83E00
FC7E00
7FDE00
7F9F80
1F0F80
ENDCHAR
STARTCHAR acircumflex
ENCODING 226
SWIDTH 556 0
DWIDTH 19 0
BBX 17 25 1 0
BITMAP
07E000
07E000
0E7000
1C3800
381C00
000000
000000
0FF000
3FF800
387C00
383E00
383E00
003E00
003E00
0FFE00
3FFE00
7E3E00
FC3E00
F83E00
F83E00
F83E00
FC7E00
7FDE00
7F9F80
1F0F80
ENDCHAR
STARTCHAR atilde
ENCODING 227
SWIDTH 556 0
DWIDTH 19 0
BBX 17 25 1 0
BITMAP
0F0C00
1FFC00
3FFC00
3FF800
307000
000000
000000
0FF000
3FF800
387C00
383E00
383E00
003E00
003E00
0FFE00
3FFE00
7E3E00
FC3E00
F83E00
F83E00
F83E00
FC7E00
7FDE00
7F9F80
1F0F80
ENDCHAR
STARTCHAR adieresis
ENCODING 228
SWIDTH 556 0
DWIDTH 19 0
BBX 17 24 1 0
BITMAP
1C3800
1C3800
1C3800
1C3800
000000
000000
0FF000
3FF800
387C00
383E00
383E00
003E00
003E00
0FFE00
3FFE00
7E3E00
FC3E00
F83E00
F83E00
F83E00
FC7E00
7FDE00
7F9F80
1F0F80
ENDCHAR
STARTCHAR aring
ENCODING 229
SWIDTH 556 0
DWIDTH 19 0
BBX 17 25 1 0
BITMAP
01C000
036000
022000
036000
01C000
000000
000000
0FF000
3FF800
387C00
383E00
383E00
003E00
003E00
0FFE00
3FFE00
7E3E00
FC3E00
F83E00
F83E00
F83E00
FC7E00
7FDE00
7F9F80
1F0F80
ENDCHAR
STARTCHAR ae
ENCODING 230
SWIDTH 858 0
DWIDTH 29 0
BBX 27 18 1 0
BITMAP
0FF07C00
3FF9FF00
383F8780
381F03C0
001F03C0
001F03E0
001F03E0
07FFFFE0
3FFFFFE0
7E1F0000
FC1F0000
F81F0000
F81F8000
F81FC000
FC3FE020
7FE7FFE0
3FC3FFE0
1F00FF00
ENDCHAR
STARTCHAR ccedilla
ENCODING 231
SWIDTH 541 0
DWIDTH 18 0
BBX 16 25 1 -7
BITMAP
03FE
0FFF
3E0F
3C07
7C07
7807
F800
F800
F800
F800
F800
F800
7C00
7E00
3F01
1FFF
0FFF
03FC
00C0
0180
01E0
00F0
00F0
03F0
03E0
ENDCHAR
STARTCHAR egrave
ENCODING 232
SWIDTH 568 0
DWIDTH 19 0
BBX 16 25 1 0
BITMAP
1F00
0700
0380
01C0
00E0
0000
0000
07F0
1FF8
3C3C
7C1E
781E
781F
F81F
FFFF
FFFF
F800
F800
F800
7C00
7E00
3F01
1FFF
0FFF
03FC
ENDCHAR
STARTCHAR eacute
ENCODING 233
SWIDTH 568 0
DWIDTH 19 0
BBX 16 25 1 0
BITMAP
00F8
01E0
01C0
0380
0700
0000
0000
07F0
1FF8
3C3C
7C1E
781E
781F
F81F
FFFF
FFFF
F800
F800
F800
7C00
7E00
3F01
1FFF
0FFF
03FC
ENDCHAR
STARTCHAR ecircumflex
ENCODING 234
SWIDTH 568 0
DWIDTH 19 0
BBX 16 25 1 0
BITMAP
07E0
07E0
0E70
1C38
381C
0000
0000
07F0
1FF8
3C3C
7C1E
781E
781F
F81F
FFFF
FFFF
F800
F800
F800
7C00
7E00
3F01
1FFF
0FFF
03FC
ENDCHAR
STARTCHAR edieresis
ENCODING 235
SWIDTH 568 0
DWIDTH 19 0
BBX 16 24 1 0
BITMAP
1C38
1C38
1C38
1C38
0000
0000
07F0
1FF8
3C3C
7C1E
781E
781F
F81F
FFFF
FFFF
F800
F800
F800
7C00
7E00
3F01
1FFF
0FFF
03FC
ENDCHAR
STARTCHAR igrave
ENCODING 236
SWIDTH 325 0
DWIDTH 11 0
BBX 11 25 0 0
BITMAP
F800
3800
1C00
0E00
0700
0000
0000
FF00
FF00
3F00
1F00
1F00
1F00
1F00
1F00
1F00
1F00
1F00
1F00
1F00
1F00
1F00
3F80
FFE0
FFE0
ENDCHAR
STARTCHAR iacute
ENCODING 237
SWIDTH 325 0
DWIDTH 11 0
BBX 11 25 0 0
BITMAP
07C0
0F00
0E00
1C00
3800
0000
0000
FF00
FF00
3F00
1F00
1F00
1F00
1F00
1F00
1F00
1F00
1F00
1F00
1F00
1F00
1F00
3F80
FFE0
FFE0
ENDCHAR
STARTCHAR icircumflex
ENCODING 238
SWIDTH 325 0
DWIDTH 11 0
BBX 12 25 1 0
BITMAP
1F80
1F80
39C0
70E0
E070
0000
0000
7F80
7F80
1F80
0F80
0F80
0F80
0F80
0F80
0F80
0F80
0F80
0F80
0F80
0F80
0F80
1FC0
7FF0
7FF0
ENDCHAR
STARTCHAR idieresis
ENCODING 239
SWIDTH 325 0
DWIDTH 11 0
BBX 11 24 0 0
BITMAP
E1C0
E1C0
E1C0
E1C0
0000
0000
FF00
FF00
3F00
1F00
1F00
1F00
1F00
1F00
1F00
1F00
1F00
1F00
1F00
1F00
1F00
3F80
FFE0
FFE0
ENDCHAR
STARTCHAR eth
ENCODING 240
SWIDTH 652 0
DWIDTH 22 0
BBX 19 28 2 0
BITMAP
001800
003C00
FE7000
FFE000
1FE000
07F800
0FFC00
1C7E00
783F00
301F80
03FF80
0FFFC0
3F1FC0
3C07C0
7C07E0
7803E0
F803E0
F803E0
F803E0
F803E0
F803E0
F803C0
7807C0
7C07C0
3C0F80
1F1F00
0FFE00
03F800
ENDCHAR
STARTCHAR ntilde
ENCODING 241
SWIDTH 654 0
DWIDTH 22 0
BBX 22 25 0 0
BITMAP
01E180
03FF80
07FF80
07FF00
060E00
000000
000000
FF0F00
FF3FC0
7F7FC0
1F7FE0
1FC3E0
1F83E0
1F03E0
1F03E0
1F03E0
1F03E0
1F03E0
1F03E0
1F03E0
1F03E0
1F03E0
3F87F0
FFFFFC
FFFFFC
ENDCHAR
STARTCHAR ograve
ENCODING 242
SWIDTH 617 0
DWIDTH 21 0
BBX 19 25 1 0
BITMAP
0F8000
038000
01C000
00E000
007000
000000
000000
03F800
0FFE00
3F1F80
3C0780
7C07C0
7803C0
F803E0
F803E0
F803E0
F803E0
F803E0
F803E0
7803C0
7C07C0
3C0780
3F1F80
0FFE00
03F800
ENDCHAR
STARTCHAR oacute
ENCODING 243
SWIDTH 617 0
DWIDTH 21 0
BBX 19 25 1 0
BITMAP
003E00
007800
007000
00E000
01C000
000000
000000
03F800
0FFE00
3F1F80
3C0780
7C07C0
7803C0
F803E0
F803E0
F803E0
F803E0
F803E0
F803E0
7803C0
7C07C0
3C0780
3F1F80
0FFE00
03F800
ENDCHAR
STARTCHAR ocircumflex
ENCODING 244
SWIDTH 617 0
DWIDTH 21 0
BBX 19 25 1 0
BITMAP
03F000
03F000
073800
0E1C00
1C0E00
000000
000000
03F800
0FFE00
3F1F80
3C0780
7C07C0
7803C0
F803E0
F803E0
F803E0
F803E0
F803E0
F803E0
7803C0
7C07C0
3C0780
3F1F80
0FFE00
03F800
ENDCHAR
STARTCHAR otilde
ENCODING 245
SWIDTH 617 0
DWIDTH 21 0
BBX 19 25 1 0
BITMAP
078600
0FFE00
1FFE00
1FFC00
183800
000000
000000
03F800
0FFE00
3F1F80
3C0780
7C07C0
7803C0
F803E0
F803E0
F803E0
F803E0
F803E0
F803E0
7803C0
7C07C0
3C0780
3F1F80
0FFE00
03F800
ENDCHAR
STARTCHAR odieresis
ENCODING 246
SWIDTH 617 0
DWIDTH 21 0
BBX 19 24 1 0
BITMAP
0E1C00
0E1C00
0E1C00
0E1C00
000000
000000
03F800
0FFE00
3F1F80
3C0780
7C07C0
7803C0
F803E0
F803E0
F803E0
F803E0
F803E0
F803E0
7803C0
7C07C0
3C0780
3F1F80
0FFE00
03F800
ENDCHAR
STARTCHAR divide
ENCODING 247
SWIDTH 623 0
DWIDTH 21 0
BBX 20 17 1 1
BITMAP
00F000
00F000
00F000
00F000
000000
000000
000000
FFFFF0
FFFFF0
FFFFF0
000000
000000
000000
00F000
00F000
00F000
00F000
ENDCHAR
STARTCHAR oslash
ENCODING 248
SWIDTH 617 0
DWIDTH 21 0
BBX 21 18 0 0
BITMAP
01FC38
07FF20
1F8FC0
1E03C0
3E03E0
3C07E0
7C0FF0
7C1DF0
7C79F0
7CE1F0
7DC1F0
7F81F0
3F03E0
3E03E0
1E07C0
1F0F80
23FF00
E1FC00
ENDCHAR
STARTCHAR ugrave
ENCODING 249
SWIDTH 654 0
DWIDTH 22 0
BBX 22 25 0 0
BITMAP
03E000
00E000
007000
003800
001C00
000000
000000
FF1FE0
FF1FE0
3F07E0
1F03E0
1F03E0
1F03E0
1F03E0
1F03E0
1F03E0
1F03E0
1F03E0
1F03E0
1F07E0
1F0FE0
1FFBE0
0FFBF8
0FF3FC
03C3FC
ENDCHAR
STARTCHAR uacute
ENCODING 250
SWIDTH 654 0
DWIDTH 22 0
BBX 22 25 0 0
BITMAP
001F00
003C00
003800
007000
00E000
000000
000000
FF1FE0
FF1FE0
3F07E0
1F03E0
1F03E0
1F03E0
1F03E0
1F03E0
1F03E0
1F03E0
1F03E0
1F03E0
1F07E0
1F0FE0
1FFBE0
0FFBF8
0FF3FC
03C3FC
ENDCHAR
STARTCHAR ucircumflex
ENCODING 251
SWIDTH 654 0
DWIDTH 22 0
BBX 22 25 0 0
BITMAP
00FC00
00FC00
01CE00
038700
070380
000000
000000
FF1FE0
FF1FE0
3F07E0
1F03E0
1F03E0
1F03E0
1F03E0
1F03E0
1F03E0
1F03E0
1F03E0
1F03E0
1F07E0
1F0FE0
1FFBE0
0FFBF8
0FF3FC
03C3FC
ENDCHAR
STARTCHAR udieresis
ENCODING 252
SWIDTH 654 0
DWIDTH 22 0
BBX 22 24 0 0
BITMAP
038700
038700
038700
038700
000000
000000
FF1FE0
FF1FE0
3F07E0
1F03E0
1F03E0
1F03E0
1F03E0
1F03E0
1F03E0
1F03E0
1F03E0
1F03E0
1F07E0
1F0FE0
1FFBE0
0FFBF8
0FF3FC
03C3FC
ENDCHAR
STARTCHAR yacute
ENCODING 253
SWIDTH 654 0
DWIDTH 22 0
BBX 22 32 0 -7
BITMAP
001F00
003C00
003800
007000
00E000
000000
000000
FFC0FC
FFC0FC
3F0070
1F0060
1F8060
0F80C0
0FC0C0
07C180
07E380
07E300
03E700
03F600
01FE00
01FC00
00F800
00F800
007000
007000
002000
006000
00C000
01C000
038000
078000
1F0000
ENDCHAR
STARTCHAR thorn
ENCODING 254
SWIDTH 652 0
DWIDTH 22 0
BBX 21 31 0 -7
BITMAP
FF0000
FF0000
3F0000
1F0000
1F0000
1F0000
1F0F80
1F3FC0
1F7FE0
1F7FF0
1FC3F0
1F81F8
1F00F8
1F00F8
1F00F8
1F00F8
1F00F8
1F00F8
1F01F0
1F01F0
1FC3F0
1FFFE0
1F7FC0
1F1F00
1F0000
1F0000
1F0000
1F0000
3F8000
FFE000
FFE000
ENDCHAR
STARTCHAR ydieresis
ENCODING 255
SWIDTH 654 0
DWIDTH 22 0
BBX 22 31 0 -7
BITMAP
038700
038700
038700
038700
000000
000000
FFC0FC
FFC0FC
3F0070
1F0060
1F8060
0F80C0
0FC0C0
07C180
07E380
07E300
03E700
03F600
01FE00
01FC00
00F800
00F800
007000
007000
002000
006000
00C000
01C000
038000
078000
1F0000
ENDCHAR
STARTCHAR Amacron
ENCODING 256
SWIDTH 795 0
DWIDTH 27 0
BBX 27 29 0 0
BITMAP
007FE000
007FE000
007FE000
00000000
000E0000
000E0000
001F0000
001F0000
003F8000
003F8000
003FC000
006FC000
0067C000
00C7E000
00C3E000
0183F000
0181F000
0301F800
0300F800
07FFFC00
07FFFC00
0E007E00
0C003E00
1C003F00
18001F00
38001F80
78001F80
FE007FE0
FE007FE0
ENDCHAR
STARTCHAR amacron
ENCODING 257
SWIDTH 556 0
DWIDTH 19 0
BBX 17 22 1 0
BITMAP
1FF800
1FF800
1FF800
000000
0FF000
3FF800
387C00
383E00
383E00
003E00
003E00
0FFE00
3FFE00
7E3E00
FC3E00
F83E00
F83E00
F83E00
FC7E00
7FDE00
7F9F80
1F0F80
ENDCHAR
STARTCHAR Abreve
ENCODING 258
SWIDTH 795 0
DWIDTH 27 0
BBX 27 31 0 0
BITMAP
00C03000
00E07000
007FE000
003FC000
001F8000
00000000
000E0000
000E0000
001F0000
001F0000
003F8000
003F8000
003FC000
006FC000
0067C000
00C7E000
00C3E000
0183F000
0181F000
0301F800
0300F800
07FFFC00
07FFFC00
0E007E00
0C003E00
1C003F00
18001F00
38001F80
78001F80
FE007FE0
FE007FE0
ENDCHAR
STARTCHAR abreve
ENCODING 259
SWIDTH 556 0
DWIDTH 19 0
BBX 17 24 1 0
BITMAP
300C00
381C00
1FF800
0FF000
07E000
000000
0FF000
3FF800
387C00
383E00
383E00
003E00
003E00
0FFE00
3FFE00
7E3E00
FC3E00
F83E00
F83E00
F83E00
FC7E00
7FDE00
7F9F80
1F0F80
ENDCHAR
STARTCHAR Aogonek
ENCODING 260
SWIDTH 795 0
DWIDTH 27 0
BBX 27 31 0 -6
BITMAP
000E0000
000E0000
001F0000
001F0000
003F8000
003F8000
003FC000
006FC000
0067C000
00C7E000
00C3E000
0183F000
0181F000
0301F800
0300F800
07FFFC00
07FFFC00
0E007E00
0C003E00
1C003F00
18001F00
38001F80
78001F80
FE007FE0
FE007FE0
00000000
00038000
000E0000
000E0000
000FC000
0007C000
ENDCHAR
STARTCHAR aogonek
ENCODING 261
SWIDTH 556 0
DWIDTH 19 0
BBX 17 24 1 -6
BITMAP
0FF000
3FF800
387C00
383E00
383E00
003E00
003E00
0FFE00
3FFE00
7E3E00
FC3E00
F83E00
F83E00
F83E00
FC7E00
7FDE00
7F9F80
1F0F80
000000
00E000
038000
038000
03F000
01F000
ENDCHAR
STARTCHAR Cacute
ENCODING 262
SWIDTH 711 0
DWIDTH 24 0
BBX 21 31 1 0
BITMAP
001F00
003C00
003800
007000
00E000
000000
007FC0
03FFF8
0FC0F8
1F0038
3E0038
3C0038
7C0000
7C0000
F80000
F80000
F80000
F80000
F80000
F80000
F80000
F80000
FC0000
7C0000
7E0000
3E0000
3F8008
1FC078
0FFFF8
03FFF0
007FC0
ENDCHAR
STARTCHAR cacute
ENCODING 263
SWIDTH 541 0
DWIDTH 18 0
BBX 16 24 1 0
BITMAP
007C
00F0
00E0
01C0
0380
0000
03FE
0FFF
3E0F
3C07
7C07
7807
F800
F800
F800
F800
F800
F800
7C00
7E00
3F01
1FFF
0FFF
03FC
ENDCHAR
STARTCHAR Ccircumflex
ENCODING 264
SWIDTH 711 0
DWIDTH 24 0
BBX 21 31 1 0
BITMAP
00FC00
00FC00
01CE00
038700
070380
000000
007FC0
03FFF8
0FC0F8
1F0038
3E0038
3C0038
7C0000
7C0000
F80000
F80000
F80000
F80000
F80000
F80000
F80000
F80000
FC0000
7C0000
7E0000
3E0000
3F8008
1FC078
0FFFF8
03FFF0
007FC0
ENDCHAR
STARTCHAR ccircumflex
ENCODING 265
SWIDTH 541 0
DWIDTH 18 0
BBX 16 24 1 0
BITMAP
03F0
03F0
0738
0E1C
1C0E
0000
03FE
0FFF
3E0F
3C07
7C07
7807
F800
F800
F800
F800
F800
F800
7C00
7E00
3F01
1FFF
0FFF
03FC
ENDCHAR
STARTCHAR Cdotaccent
ENCODING 266
SWIDTH 711 0
DWIDTH 24 0
BBX 21 31 1 0
BITMAP
007800
007800
007800
007800
007800
000000
007FC0
03FFF8
0FC0F8
1F0038
3E0038
3C0038
7C0000
7C0000
F80000
F80000
F80000
F80000
F80000
F80000
F80000
F80000
FC0000
7C0000
7E0000
3E0000
3F8008
1FC078
0FFFF8
03FFF0
007FC0
ENDCHAR
STARTCHAR cdotaccent
ENCODING 267
SWIDTH 541 0
DWIDTH 18 0
BBX 16 24 1 0
BITMAP
01E0
01E0
01E0
01E0
01E0
0000
03FE
0FFF
3E0F
3C07
7C07
7807
F800
F800
F800
F800
F800
F800
7C00
7E00
3F01
1FFF
0FFF
03FC
ENDCHAR
STARTCHAR Ccaron
ENCODING 268
SWIDTH 711 0
DWIDTH 24 0
BBX 21 31 1 0
BITMAP
070380
038700
01CE00
00FC00
00FC00
000000
007FC0
03FFF8
0FC0F8
1F0038
3E0038
3C0038
7C0000
7C0000
F80000
F80000
F80000
F80000
F80000
F80000
F80000
F80000
FC0000
7C0000
7E0000
3E0000
3F8008
1FC078
0FFFF8
03FFF0
007FC0
ENDCHAR
STARTCHAR ccaron
ENCODING 269
SWIDTH 541 0
DWIDTH 18 0
BBX 16 24 1 0
BITMAP
1C0E
0E1C
0738
03F0
03F0
0000
03FE
0FFF
3E0F
3C07
7C07
7807
F800
F800
F800
F800
F800
F800
7C00
7E00
3F01
1FFF
0FFF
03FC
ENDCHAR
STARTCHAR Dcaron
ENCODING 270
SWIDTH 794 0
DWIDTH 27 0
BBX 25 31 1 0
BITMAP
0381C000
01C38000
00E70000
007E0000
007E0000
00000000
FFFF8000
FFFFF000
3F03F800
1F007C00
1F003E00
1F001F00
1F001F00
1F001F00
1F000F80
1F000F80
1F000F80
1F000F80
1F000F80
1F000F80
1F000F80
1F000F80
1F000F00
1F001F00
1F001F00
1F001E00
1F003E00
1F007C00
3F81F800
FFFFE000
FFFF8000
ENDCHAR
STARTCHAR dcaron
ENCODING 271
SWIDTH 884 0
DWIDTH 30 0
BBX 27 26 1 0
BITMAP
003FC3E0
003FC3E0
000FC3E0
0007C3E0
0007C3E0
0007C1E0
0007C1E0
0007C1E0
07C7C1C0
1FF7C3C0
3FFFC380
7E1FC000
7C07C000
7807C000
F807C000
F807C000
F807C000
F807C000
F807C000
F807C000
FC0FC000
7E1FC000
7FF7C000
3FF7E000
1FE7F800
0F87F800
ENDCHAR
STARTCHAR Dcroat
ENCODING 272
SWIDTH 794 0
DWIDTH 27 0
BBX 25 25 0 0
BITMAP
7FFF8000
7FFFF000
3F03F800
1F007C00
1F003E00
1F001F00
1F001F00
1F001F00
1F000F80
1F000F80
1F000F80
FFFC0F80
FFFC0F80
1F000F80
1F000F80
1F000F80
1F000F00
1F001F00
1F001F00
1F001E00
1F003E00
1F007C00
3F81F800
7FFFF000
7FFF8000
ENDCHAR
STARTCHAR dcroat
ENCODING 273
SWIDTH 652 0
DWIDTH 22 0
BBX 22 26 1 0
BITMAP
003FC0
003FC0
000FC0
0007C0
0007C0
001FFC
001FFC
001FFC
07C7C0
1FF7C0
3FFFC0
7E1FC0
7C07C0
7807C0
F807C0
F807C0
F807C0
F807C0
F807C0
F807C0
FC0FC0
7E1FC0
7FF7C0
3FF7E0
1FE7F8
0F87F8
ENDCHAR
STARTCHAR Emacron
ENCODING 274
SWIDTH 601 0
DWIDTH 20 0
BBX 19 29 1 0
BITMAP
0FFC00
0FFC00
0FFC00
000000
FFFFE0
FFFFE0
3F01E0
1F00E0
1F00E0
1F0000
1F0000
1F0000
1F0000
1F0300
1F0300
1FFF00
1FFF00
1F0300
1F0300
1F0000
1F0000
1F0000
1F0000
1F0000
1F00E0
1F00E0
3F80E0
FFFFE0
FFFFE0
ENDCHAR
STARTCHAR emacron
ENCODING 275
SWIDTH 568 0
DWIDTH 19 0
BBX 16 22 1 0
BITMAP
1FF8
1FF8
1FF8
0000
07F0
1FF8
3C3C
7C1E
781E
781F
F81F
FFFF
FFFF
F800
F800
F800
7C00
7E00
3F01
1FFF
0FFF
03FC
ENDCHAR
STARTCHAR Ebreve
ENCODING 276
SWIDTH 601 0
DWIDTH 20 0
BBX 19 31 1 0
BITMAP
180600
1C0E00
0FFC00
07F800
03F000
000000
FFFFE0
FFFFE0
3F01E0
1F00E0
1F00E0
1F0000
1F0000
1F0000
1F0000
1F0300
1F0300
1FFF00
1FFF00
1F0300
1F0300
1F0000
1F0000
1F0000
1F0000
1F0000
1F00E0
1F00E0
3F80E0
FFFFE0
FFFFE0
ENDCHAR
STARTCHAR ebreve
ENCODING 277
SWIDTH 568 0
DWIDTH 19 0
BBX 16 24 1 0
BITMAP
300C
381C
1FF8
0FF0
07E0
0000
07F0
1FF8
3C3C
7C1E
781E
781F
F81F
FFFF
FFFF
F800
F800
F800
7C00
7E00
3F01
1FFF
0FFF
03FC
ENDCHAR
STARTCHAR Edotaccent
ENCODING 278
SWIDTH 601 0
DWIDTH 20 0
BBX 19 31 1 0
BITMAP
01E000
01E000
01E000
01E000
01E000
000000
FFFFE0
FFFFE0
3F01E0
1F00E0
1F00E0
1F0000
1F0000
1F0000
1F0000
1F0300
1F0300
1FFF00
1FFF00
1F0300
1F0300
1F0000
1F0000
1F0000
1F0000
1F0000
1F00E0
1F00E0
3F80E0
FFFFE0
FFFFE0
ENDCHAR
STARTCHAR edotaccent
ENCODING 279
SWIDTH 568 0
DWIDTH 19 0
BBX 16 24 1 0
BITMAP
03C0
03C0
03C0
03C0
03C0
0000
07F0
1FF8
3C3C
7C1E
781E
781F
F81F
FFFF
FFFF
F800
F800
F800
7C00
7E00
3F01
1FFF
0FFF
03FC
ENDCHAR
STARTCHAR Eogonek
ENCODING 280
SWIDTH 601 0
DWIDTH 20 0
BBX 19 31 1 -6
BITMAP
FFFFE0
FFFFE0
3F01E0
1F00E0
1F00E0
1F0000
1F0000
1F0000
1F0000
1F0300
1F0300
1FFF00
1FFF00
1F0300
1F0300
1F0000
1F0000
1F0000
1F0000
1F0000
1F00E0
1F00E0
3F80E0
FFFFE0
FFFFE0
000000
007000
01C000
01C000
01F800
00F800
ENDCHAR
STARTCHAR eogonek
ENCODING 281
SWIDTH 568 0
DWIDTH 19 0
BBX 16 24 1 -6
BITMAP
07F0
1FF8
3C3C
7C1E
781E
781F
F81F
FFFF
FFFF
F800
F800
F800
7C00
7E00
3F01
1FFF
0FFF
03FC
0000
00E0
0380
0380
03F0
01F0
ENDCHAR
STARTCHAR Ecaron
ENCODING 282
SWIDTH 601 0
DWIDTH 20 0
BBX 19 31 1 0
BITMAP
1C0E00
0E1C00
073800
03F000
03F000
000000
FFFFE0
FFFFE0
3F01E0
1F00E0
1F00E0
1F0000
1F0000
1F0000
1F0000
1F0300
1F0300
1FFF00
1FFF00
1F0300
1F0300
1F0000
1F0000
1F0000
1F0000
1F0000
1F00E0
1F00E0
3F80E0
FFFFE0
FFFFE0
ENDCHAR
STARTCHAR ecaron
ENCODING 283
SWIDTH 568 0
DWIDTH 19 0
BBX 16 24 1 0
BITMAP
381C
1C38
0E70
07E0
07E0
0000
07F0
1FF8
3C3C
7C1E
781E
781F
F81F
FFFF
FFFF
F800
F800
F800
7C00
7E00
3F01
1FFF
0FFF
03FC
ENDCHAR
STARTCHAR Gcircumflex
ENCODING 284
SWIDTH 753 0
DWIDTH 26 0
BBX 24 31 1 0
BITMAP
007E00
007E00
00E700
01C380
0381C0
000000
007FC0
03FFF8
0FC0F8
1F0038
3E0038
3C0038
7C0000
7C0000
F80000
F80000
F80000
F80000
F80000
F80000
F807FF
F807FF
F801FC
7C00F8
7C00F8
3E00F8
3E00F8
1F00F8
0FC0F8
03FFF8
007FC0
ENDCHAR
STARTCHAR gcircumflex
ENCODING 285
SWIDTH 599 0
DWIDTH 20 0
BBX 19 31 1 -7
BITMAP
01F800
01F800
039C00
070E00
0E0700
000000
07FFE0
1FFFE0
3E3EC0
3C1E00
7C1F00
7C1F00
7C1F00
7C1F00
3C1F00
3C1E00
1E3E00
07FC00
0FF000
3C0000
3FFE00
3FFF80
3FFFC0
0FFFC0
3807C0
F807C0
F807C0
F80F80
FE1F00
7FFE00
0FF800
ENDCHAR
STARTCHAR Gbreve
ENCODING 286
SWIDTH 753 0
DWIDTH 26 0
BBX 24 31 1 0
BITMAP
0300C0
0381C0
01FF80
00FF00
007E00
000000
007FC0
03FFF8
0FC0F8
1F0038
3E0038
3C0038
7C0000
7C0000
F80000
F80000
F80000
F80000
F80000
F80000
F807FF
F807FF
F801FC
7C00F8
7C00F8
3E00F8
3E00F8
1F00F8
0FC0F8
03FFF8
007FC0
ENDCHAR
STARTCHAR gbreve
ENCODING 287
SWIDTH 599 0
DWIDTH 20 0
BBX 19 31 1 -7
BITMAP
0C0300
0E0700
07FE00
03FC00
01F800
000000
07FFE0
1FFFE0
3E3EC0
3C1E00
7C1F00
7C1F00
7C1F00
7C1F00
3C1F00
3C1E00
1E3E00
07FC00
0FF000
3C0000
3FFE00
3FFF80
3FFFC0
0FFFC0
3807C0
F807C0
F807C0
F80F80
FE1F00
7FFE00
0FF800
ENDCHAR
STARTCHAR Gdotaccent
ENCODING 288
SWIDTH 753 0
DWIDTH 26 0
BBX 24 31 1 0
BITMAP
003C00
003C00
003C00
003C00
003C00
000000
007FC0
03FFF8
0FC0F8
1F0038
3E0038
3C0038
7C0000
7C0000
F80000
F80000
F80000
F80000
F80000
F80000
F807FF
F807FF
F801FC
7C00F8
7C00F8
3E00F8
3E00F8
1F00F8
0FC0F8
03FFF8
007FC0
ENDCHAR
STARTCHAR gdotaccent
ENCODING 289
SWIDTH 599 0
DWIDTH 20 0
BBX 19 31 1 -7
BITMAP
00F000
00F000
00F000
00F000
00F000
000000
07FFE0
1FFFE0
3E3EC0
3C1E00
7C1F00
7C1F00
7C1F00
7C1F00
3C1F00
3C1E00
1E3E00
07FC00
0FF000
3C0000
3FFE00
3FFF80
3FFFC0
0FFFC0
3807C0
F807C0
F807C0
F80F80
FE1F00
7FFE00
0FF800
ENDCHAR
STARTCHAR Gcommaaccent
ENCODING 290
SWIDTH 753 0
DWIDTH 26 0
BBX 24 38 1 -13
BITMAP
007FC0
03FFF8
0FC0F8
1F0038
3E0038
3C0038
7C0000
7C0000
F80000
F80000
F80000
F80000
F80000
F80000
F807FF
F807FF
F801FC
7C00F8
7C00F8
3E00F8
3E00F8
1F00F8
0FC0F8
03FFF8
007FC0
000000
003E00
003E00
003E00
003E00
003E00
003E00
001E00
001E00
001C00
003C00
003800
003000
ENDCHAR
STARTCHAR gcommaaccent
ENCODING 291
SWIDTH 599 0
DWIDTH 20 0
BBX 19 37 1 -7
BITMAP
007000
00F000
00E000
01E000
01E000
01F000
01F000
01F000
01F000
01F000
01F000
000000
07FFE0
1FFFE0
3E3EC0
3C1E00
7C1F00
7C1F00
7C1F00
7C1F00
3C1F00
3C1E00
1E3E00
07FC00
0FF000
3C0000
3FFE00
3FFF80
3FFFC0
0FFFC0
3807C0
F807C0
F807C0
F80F80
FE1F00
7FFE00
0FF800
ENDCHAR
STARTCHAR Hcircumflex
ENCODING 292
SWIDTH 798 0
DWIDTH 27 0
BBX 26 31 1 0
BITMAP
003F0000
003F0000
00738000
00E1C000
01C0E000
00000000
FFE1FFC0
FFE1FFC0
3F807F00
1F003E00
1F003E00
1F003E00
1F003E00
1F003E00
1F003E00
1F003E00
1F003E00
1FFFFE00
1FFFFE00
1F003E00
1F003E00
1F003E00
1F003E00
1F003E00
1F003E00
1F003E00
1F003E00
1F003E00
3F807F00
FFE1FFC0
FFE1FFC0
ENDCHAR
STARTCHAR hcircumflex
ENCODING 293
SWIDTH 654 0
DWIDTH 22 0
BBX 22 32 0 0
BITMAP
0FC000
0FC000
1CE000
387000
703800
000000
FF0000
FF0000
3F0000
1F0000
1F0000
1F0000
1F0000
1F0000
1F0F00
1F3FC0
1F7FC0
1F7FE0
1FC3E0
1F83E0
1F03E0
1F03E0
1F03E0
1F03E0
1F03E0
1F03E0
1F03E0
1F03E0
1F03E0
3F87F0
FFFFFC
FFFFFC
ENDCHAR
STARTCHAR Hbar
ENCODING 294
SWIDTH 798 0
DWIDTH 27 0
BBX 26 25 1 0
BITMAP
FFE1FFC0
FFE1FFC0
3F807F00
1F003E00
1F003E00
FFFFFFC0
FFFFFFC0
FFFFFFC0
1F003E00
1F003E00
1F003E00
1FFFFE00
1FFFFE00
1F003E00
1F003E00
1F003E00
1F003E00
1F003E00
1F003E00
1F003E00
1F003E00
1F003E00
3F807F00
FFE1FFC0
FFE1FFC0
ENDCHAR
STARTCHAR hbar
ENCODING 295
SWIDTH 654 0
DWIDTH 22 0
BBX 22 26 0 0
BITMAP
FF0000
FF0000
3F0000
1F0000
1F0000
7FF000
7FF000
7FF000
1F0F00
1F3FC0
1F7FC0
1F7FE0
1FC3E0
1F83E0
1F03E0
1F03E0
1F03E0
1F03E0
1F03E0
1F03E0
1F03E0
1F03E0
1F03E0
3F87F0
FFFFFC
FFFFFC
ENDCHAR
STARTCHAR Itilde
ENCODING 296
SWIDTH 349 0
DWIDTH 12 0
BBX 12 31 0 0
BITMAP
3C30
7FF0
FFF0
FFE0
C1C0
0000
FFE0
FFE0
3F80
1F00
1F00
1F00
1F00
1F00
1F00
1F00
1F00
1F00
1F00
1F00
1F00
1F00
1F00
1F00
1F00
1F00
1F00
1F00
3F80
FFE0
FFE0
ENDCHAR
STARTCHAR itilde
ENCODING 297
SWIDTH 325 0
DWIDTH 11 0
BBX 12 24 -1 0
BITMAP
3C30
7FF0
FFF0
FFE0
C1C0
0000
7F80
7F80
1F80
0F80
0F80
0F80
0F80
0F80
0F80
0F80
0F80
0F80
0F80
0F80
0F80
1FC0
7FF0
7FF0
ENDCHAR
STARTCHAR Imacron
ENCODING 298
SWIDTH 349 0
DWIDTH 12 0
BBX 11 29 0 0
BITMAP
7FE0
7FE0
7FE0
0000
FFE0
FFE0
3F80
1F00
1F00
1F00
1F00
1F00
1F00
1F00
1F00
1F00
1F00
1F00
1F00
1F00
1F00
1F00
1F00
1F00
1F00
1F00
3F80
FFE0
FFE0
ENDCHAR
STARTCHAR imacron
ENCODING 299
SWIDTH 325 0
DWIDTH 11 0
BBX 11 22 0 0
BITMAP
FFC0
FFC0
FFC0
0000
FF00
FF00
3F00
1F00
1F00
1F00
1F00
1F00
1F00
1F00
1F00
1F00
1F00
1F00
1F00
3F80
FFE0
FFE0
ENDCHAR
STARTCHAR Ibreve
ENCODING 300
SWIDTH 349 0
DWIDTH 12 0
BBX 12 31 0 0
BITMAP
C030
E070
7FE0
3FC0
1F80
0000
FFE0
FFE0
3F80
1F00
1F00
1F00
1F00
1F00
1F00
1F00
1F00
1F00
1F00
1F00
1F00
1F00
1F00
1F00
1F00
1F00
1F00
1F00
3F80
FFE0
FFE0
ENDCHAR
STARTCHAR ibreve
ENCODING 301
SWIDTH 325 0
DWIDTH 11 0
BBX 12 24 -1 0
BITMAP
C030
E070
7FE0
3FC0
1F80
0000
7F80
7F80
1F80
0F80
0F80
0F80
0F80
0F80
0F80
0F80
0F80
0F80
0F80
0F80
0F80
1FC0
7FF0
7FF0
ENDCHAR
STARTCHAR Iogonek
ENCODING 302
SWIDTH 349 0
DWIDTH 12 0
BBX 11 31 0 -6
BITMAP
FFE0
FFE0
3F80
1F00
1F00
1F00
1F00
1F00
1F00
1F00
1F00
1F00
1F00
1F00
1F00
1F00
1F00
1F00
1F00
1F00
1F00
1F00
3F80
FFE0
FFE0
0000
0700
1C00
1C00
1F80
0F80
ENDCHAR
STARTCHAR iogonek
ENCODING 303
SWIDTH 325 0
DWIDTH 11 0
BBX 11 32 0 -6
BITMAP
1F00
1F00
1F00
1F00
1F00
0000
0000
0000
FF00
FF00
3F00
1F00
1F00
1F00
1F00
1F00
1F00
1F00
1F00
1F00
1F00
1F00
1F00
3F80
FFE0
FFE0
0000
0700
1C00
1C00
1F80
0F80
ENDCHAR
STARTCHAR Idotaccent
ENCODING 304
SWIDTH 349 0
DWIDTH 12 0
BBX 11 31 0 0
BITMAP
0F00
0F00
0F00
0F00
0F00
0000
FFE0
FFE0
3F80
1F00
1F00
1F00
1F00
1F00
1F00
1F00
1F00
1F00
1F00
1F00
1F00
1F00
1F00
1F00
1F00
1F00
1F00
1F00
3F80
FFE0
FFE0
ENDCHAR
STARTCHAR dotlessi
ENCODING 305
SWIDTH 325 0
DWIDTH 11 0
BBX 11 18 0 0
BITMAP
FF00
FF00
3F00
1F00
1F00
1F00
1F00
1F00
1F00
1F00
1F00
1F00
1F00
1F00
1F00
3F80
FFE0
FFE0
ENDCHAR
STARTCHAR IJ
ENCODING 306
SWIDTH 784 0
DWIDTH 26 0
BBX 26 31 0 -6
BITMAP
FFE1FFC0
FFE1FFC0
3F807F00
1F003E00
1F003E00
1F003E00
1F003E00
1F003E00
1F003E00
1F003E00
1F003E00
1F003E00
1F003E00
1F003E00
1F003E00
1F003E00
1F003E00
1F003E00
1F003E00
1F003E00
1F003E00
1F003E00
3F803E00
FFE03E00
FFE03E00
00003E00
001C3C00
001C3C00
001C7C00
001FF800
001FE000
ENDCHAR
STARTCHAR ij
ENCODING 307
SWIDTH 664 0
DWIDTH 22 0
BBX 20 33 0 -7
BITMAP
1F01F0
1F01F0
1F01F0
1F01F0
1F01F0
000000
000000
000000
FF07F0
FF07F0
3F01F0
1F01F0
1F01F0
1F01F0
1F01F0
1F01F0
1F01F0
1F01F0
1F01F0
1F01F0
1F01F0
1F01F0
1F01F0
3F81F0
FFE1F0
FFE1F0
0001F0
0071F0
0071F0
0071E0
007BE0
007FC0
003F80
ENDCHAR
STARTCHAR Jcircumflex
ENCODING 308
SWIDTH 452 0
DWIDTH 15 0
BBX 15 37 0 -6
BITMAP
03F0
03F0
0738
0E1C
1C0E
0000
0FFE
0FFE
03F8
01F0
01F0
01F0
01F0
01F0
01F0
01F0
01F0
01F0
01F0
01F0
01F0
01F0
01F0
01F0
01F0
01F0
01F0
01F0
01F0
01F0
01F0
01F0
E1E0
E1E0
E3E0
FFC0
FF00
ENDCHAR
STARTCHAR jcircumflex
ENCODING 309
SWIDTH 355 0
DWIDTH 12 0
BBX 13 31 -1 -7
BITMAP
0FC0
0FC0
1CE0
3870
7038
0000
0FE0
0FE0
03E0
03E0
03E0
03E0
03E0
03E0
03E0
03E0
03E0
03E0
03E0
03E0
03E0
03E0
03E0
03E0
03E0
E3E0
E3E0
E3C0
F7C0
FF80
7F00
ENDCHAR
STARTCHAR Kcommaaccent
ENCODING 310
SWIDTH 747 0
DWIDTH 25 0
BBX 25 38 1 -13
BITMAP
FFC0FE00
FFC0FE00
3F807800
1F007000
1F00E000
1F018000
1F070000
1F0E0000
1F1C0000
1F380000
1F700000
1FF80000
1FFC0000
1FFE0000
1F7F0000
1F3F8000
1F1F8000
1F0FC000
1F07E000
1F07F000
1F03F800
1F01FC00
3F80FE00
FFC7FF80
FFC7FF80
00000000
003E0000
003E0000
003E0000
003E0000
003E0000
003E0000
001E0000
001E0000
001C0000
003C0000
00380000
00300000
ENDCHAR
STARTCHAR kcommaaccent
ENCODING 311
SWIDTH 654 0
DWIDTH 21 0
BBX 22 39 0 -13
BITMAP
FF0000
FF0000
3F0000
1F0000
1F0000
1F0000
1F0000
1F0000
1F07F0
1F07F0
1F01C0
1F0380
1F0700
1F1E00
1F3800
1F7800
1FFC00
1FFC00
1F7E00
1F3F00
1F1F80
1F1FC0
1F0FE0
3F07F0
FFC3FC
FFC3FC
000000
00F800
00F800
00F800
00F800
00F800
00F800
007800
007800
007000
00F000
00E000
00C000
ENDCHAR
STARTCHAR kgreenlandic
ENCODING 312
SWIDTH 654 0
DWIDTH 21 0
BBX 22 18 0 0
BITMAP
1F07F0
1F07F0
1F01C0
1F0380
1F0700
1F1E00
1F3800
1F7800
1FFC00
1FFC00
1F7E00
1F3F00
1F1F80
1F1FC0
1F0FE0
3F07F0
FFC3FC
FFC3FC
ENDCHAR
STARTCHAR Lacute
ENCODING 313
SWIDTH 584 0
DWIDTH 20 0
BBX 19 31 1 0
BITMAP
01F000
03C000
038000
070000
0E0000
000000
FFE000
FFE000
3F8000
1F0000
1F0000
1F0000
1F0000
1F0000
1F0000
1F0000
1F0000
1F0000
1F0000
1F0000
1F0000
1F0000
1F0000
1F0000
1F0000
1F00E0
1F00E0
1F00E0
3F80E0
FFFFE0
FFFFE0
ENDCHAR
STARTCHAR lacute
ENCODING 314
SWIDTH 325 0
DWIDTH 11 0
BBX 11 32 0 0
BITMAP
07C0
0F00
0E00
1C00
3800
0000
FF00
FF00
3F00
1F00
1F00
1F00
1F00
1F00
1F00
1F00
1F00
1F00
1F00
1F00
1F00
1F00
1F00
1F00
1F00
1F00
1F00
1F00
1F00
3F80
FFE0
FFE0
ENDCHAR
STARTCHAR Lcommaaccent
ENCODING 315
SWIDTH 584 0
DWIDTH 20 0
BBX 19 38 1 -13
BITMAP
FFE000
FFE000
3F8000
1F0000
1F0000
1F0000
1F0000
1F0000
1F0000
1F0000
1F0000
1F0000
1F0000
1F0000
1F0000
1F0000
1F0000
1F0000
1F0000
1F00E0
1F00E0
1F00E0
3F80E0
FFFFE0
FFFFE0
000000
01F000
01F000
01F000
01F000
01F000
01F000
00F000
00F000
00E000
01E000
01C000
018000
ENDCHAR
STARTCHAR lcommaaccent
ENCODING 316
SWIDTH 325 0
DWIDTH 11 0
BBX 11 39 0 -13
BITMAP
FF00
FF00
3F00
1F00
1F00
1F00
1F00
1F00
1F00
1F00
1F00
1F00
1F00
1F00
1F00
1F00
1F00
1F00
1F00
1F00
1F00
1F00
1F00
3F80
FFE0
FFE0
0000
1F00
1F00
1F00
1F00
1F00
1F00
0F00
0F00
0E00
1E00
1C00
1800
ENDCHAR
STARTCHAR Lcaron
ENCODING 317
SWIDTH 820 0
DWIDTH 28 0
BBX 25 26 1 0
BITMAP
00000F80
FFE00F80
FFE00F80
3F800F80
1F000F80
1F000780
1F000780
1F000780
1F000700
1F000F00
1F000E00
1F000000
1F000000
1F000000
1F000000
1F000000
1F000000
1F000000
1F000000
1F000000
1F00E000
1F00E000
1F00E000
3F80E000
FFFFE000
FFFFE000
ENDCHAR
STARTCHAR lcaron
ENCODING 318
SWIDTH 574 0
DWIDTH 19 0
BBX 17 26 0 0
BITMAP
FF0F80
FF0F80
3F0F80
1F0F80
1F0F80
1F0780
1F0780
1F0780
1F0700
1F0F00
1F0E00
1F0000
1F0000
1F0000
1F0000
1F0000
1F0000
1F0000
1F0000
1F0000
1F0000
1F0000
1F0000
3F8000
FFE000
FFE000
ENDCHAR
STARTCHAR Ldot
ENCODING 319
SWIDTH 1178 0
DWIDTH 40 0
BBX 31 25 1 0
BITMAP
FFE00000
FFE00000
3F800000
1F000000
1F000000
1F000000
1F000000
1F000000
1F000000
1F000000
1F000000
1F000000
1F000000
1F00001E
1F00001E
1F00001E
1F00001E
1F00001E
1F000000
1F00E000
1F00E000
1F00E000
3F80E000
FFFFE000
FFFFE000
ENDCHAR
STARTCHAR ldot
ENCODING 320
SWIDTH 932 0
DWIDTH 31 0
BBX 23 26 0 0
BITMAP
FF0000
FF0000
3F0000
1F0000
1F0000
1F0000
1F0000
1F0000
1F0000
1F0000
1F0000
1F0000
1F0000
1F0000
1F001E
1F001E
1F001E
1F001E
1F001E
1F0000
1F0000
1F0000
1F0000
3F8000
FFE000
FFE000
ENDCHAR
STARTCHAR Lslash
ENCODING 321
SWIDTH 584 0
DWIDTH 20 0
BBX 19 25 0 0
BITMAP
7FE000
7FE000
3F8000
1F0000
1F0000
1F0000
1F0000
1F2000
1F6000
1FE000
1F8000
1F0000
3F0000
FF0000
DF0000
1F0000
1F0000
1F0000
1F0000
1F00E0
1F00E0
1F00E0
3F80E0
7FFFE0
7FFFE0
ENDCHAR
STARTCHAR lslash
ENCODING 322
SWIDTH 325 0
DWIDTH 11 0
BBX 11 26 0 0
BITMAP
7F00
7F00
3F00
1F00
1F00
1F00
1F00
1F00
1F00
1F20
1FE0
1FC0
1F00
1F00
7F00
DF00
9F00
1F00
1F00
1F00
1F00
1F00
1F00
3F80
7FC0
7FC0
ENDCHAR
STARTCHAR Nacute
ENCODING 323
SWIDTH 788 0
DWIDTH 27 0
BBX 25 31 1 0
BITMAP
000F8000
001E0000
001C0000
00380000
00700000
00000000
FE00FF80
FF00FF80
3F003E00
1F801C00
1FC01C00
1FC01C00
1FE01C00
1FF01C00
1DF81C00
1DF81C00
1CFC1C00
1C7E1C00
1C7E1C00
1C3F1C00
1C1F9C00
1C1FDC00
1C0FDC00
1C07FC00
1C03FC00
1C03FC00
1C01FC00
1C00FC00
3E00FC00
FF807C00
FF803C00
ENDCHAR
STARTCHAR nacute
ENCODING 324
SWIDTH 654 0
DWIDTH 22 0
BBX 22 24 0 0
BITMAP
003E00
007800
007000
00E000
01C000
000000
FF0F00
FF3FC0
7F7FC0
1F7FE0
1FC3E0
1F83E0
1F03E0
1F03E0
1F03E0
1F03E0
1F03E0
1F03E0
1F03E0
1F03E0
1F03E0
3F87F0
FFFFFC
FFFFFC
ENDCHAR
STARTCHAR Ncommaaccent
ENCODING 325
SWIDTH 788 0
DWIDTH 27 0
BBX 25 38 1 -13
BITMAP
FE00FF80
FF00FF80
3F003E00
1F801C00
1FC01C00
1FC01C00
1FE01C00
1FF01C00
1DF81C00
1DF81C00
1CFC1C00
1C7E1C00
1C7E1C00
1C3F1C00
1C1F9C00
1C1FDC00
1C0FDC00
1C07FC00
1C03FC00
1C03FC00
1C01FC00
1C00FC00
3E00FC00
FF807C00
FF803C00
00000000
003E0000
003E0000
003E0000
003E0000
003E0000
003E0000
001E0000
001E0000
001C0000
003C0000
00380000
00300000
ENDCHAR
STARTCHAR ncommaaccent
ENCODING 326
SWIDTH 654 0
DWIDTH 22 0
BBX 22 31 0 -13
BITMAP
FF0F00
FF3FC0
7F7FC0
1F7FE0
1FC3E0
1F83E0
1F03E0
1F03E0
1F03E0
1F03E0
1F03E0
1F03E0
1F03E0
1F03E0
1F03E0
3F87F0
FFFFFC
FFFFFC
000000
007C00
007C00
007C00
007C00
007C00
007C00
003C00
003C00
003800
007800
007000
006000
ENDCHAR
STARTCHAR Ncaron
ENCODING 327
SWIDTH 788 0
DWIDTH 27 0
BBX 25 31 1 0
BITMAP
0381C000
01C38000
00E70000
007E0000
007E0000
00000000
FE00FF80
FF00FF80
3F003E00
1F801C00
1FC01C00
1FC01C00
1FE01C00
1FF01C00
1DF81C00
1DF81C00
1CFC1C00
1C7E1C00
1C7E1C00
1C3F1C00
1C1F9C00
1C1FDC00
1C0FDC00
1C07FC00
1C03FC00
1C03FC00
1C01FC00
1C00FC00
3E00FC00
FF807C00
FF803C00
ENDCHAR
STARTCHAR ncaron
ENCODING 328
SWIDTH 654 0
DWIDTH 22 0
BBX 22 24 0 0
BITMAP
0E0700
070E00
039C00
01F800
01F800
000000
FF0F00
FF3FC0
7F7FC0
1F7FE0
1FC3E0
1F83E0
1F03E0
1F03E0
1F03E0
1F03E0
1F03E0
1F03E0
1F03E0
1F03E0
1F03E0
3F87F0
FFFFFC
FFFFFC
ENDCHAR
STARTCHAR napostrophe
ENCODING 329
SWIDTH 906 0
DWIDTH 31 0
BBX 29 26 2 0
BITMAP
F8000000
F8000000
F8000000
F8000000
F8000000
78000000
78000000
78000000
71FE1E00
F1FE7F80
E0FEFF80
003EFFC0
003F87C0
003F07C0
003E07C0
003E07C0
003E07C0
003E07C0
003E07C0
003E07C0
003E07C0
003E07C0
003E07C0
007F0FE0
01FFFFF8
01FFFFF8
ENDCHAR
STARTCHAR Eng
ENCODING 330
SWIDTH 788 0
DWIDTH 27 0
BBX 25 32 1 -7
BITMAP
FE00FF80
FF00FF80
3F003E00
1F801C00
1FC01C00
1FC01C00
1FE01C00
1FF01C00
1DF81C00
1DF81C00
1CFC1C00
1C7E1C00
1C7E1C00
1C3F1C00
1C1F9C00
1C1FDC00
1C0FDC00
1C07FC00
1C03FC00
1C03FC00
1C01FC00
1C00FC00
3E00FC00
FF807C00
FF807C00
00007C00
001C7C00
001C7C00
001C7800
001EF800
001FF000
000FE000
ENDCHAR
STARTCHAR eng
ENCODING 331
SWIDTH 654 0
DWIDTH 22 0
BBX 19 25 0 -7
BITMAP
FF0F00
FF3FC0
7F7FC0
1F7FE0
1FC3E0
1F83E0
1F03E0
1F03E0
1F03E0
1F03E0
1F03E0
1F03E0
1F03E0
1F03E0
1F03E0
3F83E0
FFE3E0
FFE3E0
0003E0
00E3E0
00E3E0
00E3C0
00F7C0
00FF80
007F00
ENDCHAR
STARTCHAR Omacron
ENCODING 332
SWIDTH 810 0
DWIDTH 28 0
BBX 25 29 1 0
BITMAP
00FFC000
00FFC000
00FFC000
00000000
00FF8000
03FFE000
0FC1F800
1F007C00
3E003E00
3C001E00
7C001F00
7C001F00
F8000F80
F8000F80
F8000F80
F8000F80
F8000F80
F8000F80
F8000F80
F8000F80
F8000F80
7C001F00
7C001F00
3E003E00
3E003E00
1F007C00
0FC1F800
03FFE000
00FF8000
ENDCHAR
STARTCHAR omacron
ENCODING 333
SWIDTH 617 0
DWIDTH 21 0
BBX 19 22 1 0
BITMAP
07FE00
07FE00
07FE00
000000
03F800
0FFE00
3F1F80
3C0780
7C07C0
7803C0
F803E0
F803E0
F803E0
F803E0
F803E0
F803E0
7803C0
7C07C0
3C0780
3F1F80
0FFE00
03F800
ENDCHAR
STARTCHAR Obreve
ENCODING 334
SWIDTH 810 0
DWIDTH 28 0
BBX 25 31 1 0
BITMAP
01806000
01C0E000
00FFC000
007F8000
003F0000
00000000
00FF8000
03FFE000
0FC1F800
1F007C00
3E003E00
3C001E00
7C001F00
7C001F00
F8000F80
F8000F80
F8000F80
F8000F80
F8000F80
F8000F80
F8000F80
F8000F80
F8000F80
7C001F00
7C001F00
3E003E00
3E003E00
1F007C00
0FC1F800
03FFE000
00FF8000
ENDCHAR
STARTCHAR obreve
ENCODING 335
SWIDTH 617 0
DWIDTH 21 0
BBX 19 24 1 0
BITMAP
0C0300
0E0700
07FE00
03FC00
01F800
000000
03F800
0FFE00
3F1F80
3C0780
7C07C0
7803C0
F803E0
F803E0
F803E0
F803E0
F803E0
F803E0
7803C0
7C07C0
3C0780
3F1F80
0FFE00
03F800
ENDCHAR
STARTCHAR Ohungarumlaut
ENCODING 336
SWIDTH 810 0
DWIDTH 28 0
BBX 25 31 1 0
BITMAP
001EF000
0019C000
00318000
00630000
00C60000
00000000
00FF8000
03FFE000
0FC1F800
1F007C00
3E003E00
3C001E00
7C001F00
7C001F00
F8000F80
F8000F80
F8000F80
F8000F80
F8000F80
F8000F80
F8000F80
F8000F80
F8000F80
7C001F00
7C001F00
3E003E00
3E003E00
1F007C00
0FC1F800
03FFE000
00FF8000
ENDCHAR
STARTCHAR ohungarumlaut
ENCODING 337
SWIDTH 617 0
DWIDTH 21 0
BBX 19 24 1 0
BITMAP
00F780
00CE00
018C00
031800
063000
000000
03F800
0FFE00
3F1F80
3C0780
7C07C0
7803C0
F803E0
F803E0
F803E0
F803E0
F803E0
F803E0
7803C0
7C07C0
3C0780
3F1F80
0FFE00
03F800
ENDCHAR
STARTCHAR OE
ENCODING 338
SWIDTH 1044 0
DWIDTH 35 0
BBX 32 25 2 0
BITMAP
00FCFFFE
07FFFFFE
0F87F81E
1F01F80E
3E01F80E
3C00F800
7C00F800
7C00F800
F800F800
F800F81C
F800F81C
F800FFFC
F800FFFC
F800F81C
F800F81C
F800F800
F800F800
7C00F800
7C00F800
3C00F800
3E01F803
1F01F803
0F87FC07
07FFFFFF
00FCFFFF
ENDCHAR
STARTCHAR oe
ENCODING 339
SWIDTH 943 0
DWIDTH 32 0
BBX 29 18 1 0
BITMAP
03F01F00
0FFC7FC0
3F1EE1E0
7C0FE0F0
7C0FC0F0
7807C0F8
F807C0F8
F807FFF8
F807FFF8
F807C000
F807C000
F807C000
7807E000
7C07F000
7C0FF808
3F1EFFF8
0FFC7FF8
03F01FE0
ENDCHAR
STARTCHAR Racute
ENCODING 340
SWIDTH 720 0
DWIDTH 24 0
BBX 24 31 1 0
BITMAP
001F00
003C00
003800
007000
00E000
000000
FFFF00
FFFFC0
3F07E0
1F03E0
1F01F0
1F01F0
1F01F0
1F01F0
1F01F0
1F03E0
1F07E0
1F0FC0
1FFF80
1FFF00
1F3F00
1F1F80
1F0FC0
1F0FC0
1F07E0
1F03F0
1F03F0
1F01F8
3F81FC
FFC0FF
FFC07F
ENDCHAR
STARTCHAR racute
ENCODING 341
SWIDTH 462 0
DWIDTH 16 0
BBX 15 24 0 0
BITMAP
00F8
01E0
01C0
0380
0700
0000
FF0E
FF3E
3F7E
1FFE
1F8E
1F0E
1F00
1F00
1F00
1F00
1F00
1F00
1F00
1F00
1F00
3F80
FFE0
FFE0
ENDCHAR
STARTCHAR Rcommaaccent
ENCODING 342
SWIDTH 720 0
DWIDTH 24 0
BBX 24 38 1 -13
BITMAP
FFFF00
FFFFC0
3F07E0
1F03E0
1F01F0
1F01F0
1F01F0
1F01F0
1F01F0
1F03E0
1F07E0
1F0FC0
1FFF80
1FFF00
1F3F00
1F1F80
1F0FC0
1F0FC0
1F07E0
1F03F0
1F03F0
1F01F8
3F81FC
FFC0FF
FFC07F
000000
007C00
007C00
007C00
007C00
007C00
007C00
003C00
003C00
003800
007800
007000
006000
ENDCHAR
STARTCHAR rcommaaccent
ENCODING 343
SWIDTH 462 0
DWIDTH 16 0
BBX 15 31 0 -13
BITMAP
FF0E
FF3E
3F7E
1FFE
1F8E
1F0E
1F00
1F00
1F00
1F00
1F00
1F00
1F00
1F00
1F00
3F80
FFE0
FFE0
0000
0F80
0F80
0F80
0F80
0F80
0F80
0780
0780
0700
0F00
0E00
0C00
ENDCHAR
STARTCHAR Rcaron
ENCODING 344
SWIDTH 720 0
DWIDTH 24 0
BBX 24 31 1 0
BITMAP
070380
038700
01CE00
00FC00
00FC00
000000
FFFF00
FFFFC0
3F07E0
1F03E0
1F01F0
1F01F0
1F01F0
1F01F0
1F01F0
1F03E0
1F07E0
1F0FC0
1FFF80
1FFF00
1F3F00
1F1F80
1F0FC0
1F0FC0
1F07E0
1F03F0
1F03F0
1F01F8
3F81FC
FFC0FF
FFC07F
ENDCHAR
STARTCHAR rcaron
ENCODING 345
SWIDTH 462 0
DWIDTH 16 0
BBX 15 24 0 0
BITMAP
381C
1C38
0E70
07E0
07E0
0000
FF0E
FF3E
3F7E
1FFE
1F8E
1F0E
1F00
1F00
1F00
1F00
1F00
1F00
1F00
1F00
1F00
3F80
FFE0
FFE0
ENDCHAR
STARTCHAR Sacute
ENCODING 346
SWIDTH 556 0
DWIDTH 19 0
BBX 16 31 2 0
BITMAP
00F8
01E0
01C0
0380
0700
0000
07F8
1FFE
3E1E
7C0E
F80E
F80E
F800
FC00
FE00
7F00
7FC0
3FF0
0FF8
03FC
01FE
007F
003F
001F
001F
E01F
E01F
E03E
F87C
FFF8
3FE0
ENDCHAR
STARTCHAR sacute
ENCODING 347
SWIDTH 525 0
DWIDTH 18 0
BBX 15 24 2 0
BITMAP
01F0
03C0
0380
0700
0E00
0000
0FE0
3FF8
7C78
F838
F838
FC38
FF00
7FE0
7FF8
3FFC
0FFE
01FE
E07E
E03E
E03E
F87C
FFF8
3FE0
ENDCHAR
STARTCHAR Scircumflex
ENCODING 348
SWIDTH 556 0
DWIDTH 19 0
BBX 16 31 2 0
BITMAP
07E0
07E0
0E70
1C38
381C
0000
07F8
1FFE
3E1E
7C0E
F80E
F80E
F800
FC00
FE00
7F00
7FC0
3FF0
0FF8
03FC
01FE
007F
003F
001F
001F
E01F
E01F
E03E
F87C
FFF8
3FE0
ENDCHAR
STARTCHAR scircumflex
ENCODING 349
SWIDTH 525 0
DWIDTH 18 0
BBX 15 24 2 0
BITMAP
0FC0
0FC0
1CE0
3870
7038
0000
0FE0
3FF8
7C78
F838
F838
FC38
FF00
7FE0
7FF8
3FFC
0FFE
01FE
E07E
E03E
E03E
F87C
FFF8
3FE0
ENDCHAR
STARTCHAR Scedilla
ENCODING 350
SWIDTH 556 0
DWIDTH 19 0
BBX 16 32 2 -7
BITMAP
07F8
1FFE
3E1E
7C0E
F80E
F80E
F800
FC00
FE00
7F00
7FC0
3FF0
0FF8
03FC
01FE
007F
003F
001F
001F
E01F
E01F
E03E
F87C
FFF8
3FE0
0180
0300
03C0
01E0
01E0
07E0
07C0
ENDCHAR
STARTCHAR scedilla
ENCODING 351
SWIDTH 525 0
DWIDTH 18 0
BBX 15 25 2 -7
BITMAP
0FE0
3FF8
7C78
F838
F838
FC38
FF00
7FE0
7FF8
3FFC
0FFE
01FE
E07E
E03E
E03E
F87C
FFF8
3FE0
0180
0300
03C0
01E0
01E0
07E0
07C0
ENDCHAR
STARTCHAR Scaron
ENCODING 352
SWIDTH 556 0
DWIDTH 19 0
BBX 16 32 2 0
BITMAP
381C
1C38
0E70
07E0
07E0
0000
0000
07F8
1FFE
3E1E
7C0E
F80E
F80E
F800
FC00
FE00
7F00
7FC0
3FF0
0FF8
03FC
01FE
007F
003F
001F
001F
E01F
E01F
E03E
F87C
FFF8
3FE0
ENDCHAR
STARTCHAR scaron
ENCODING 353
SWIDTH 525 0
DWIDTH 18 0
BBX 15 25 2 0
BITMAP
7038
3870
1CE0
0FC0
0FC0
0000
0000
0FE0
3FF8
7C78
F838
F838
FC38
FF00
7FE0
7FF8
3FFC
0FFE
01FE
E07E
E03E
E03E
F87C
FFF8
3FE0
ENDCHAR
STARTCHAR Tcommaaccent
ENCODING 354
SWIDTH 714 0
DWIDTH 24 0
BBX 23 32 1 -7
BITMAP
FFFFFE
FFFFFE
E07C1E
E07C0E
E07C0E
007C00
007C00
007C00
007C00
007C00
007C00
007C00
007C00
007C00
007C00
007C00
007C00
007C00
007C00
007C00
007C00
007C00
00FE00
03FF80
03FF80
001800
003000
003C00
001E00
001E00
007E00
007C00
ENDCHAR
STARTCHAR tcommaaccent
ENCODING 355
SWIDTH 389 0
DWIDTH 13 0
BBX 11 30 1 -7
BITMAP
0600
3E00
3E00
3E00
3E00
FFE0
FFE0
3E00
3E00
3E00
3E00
3E00
3E00
3E00
3E00
3E00
3E00
3E00
3E00
3F00
1FE0
1FE0
07E0
0600
0C00
0F00
0780
0780
1F80
1F00
ENDCHAR
STARTCHAR Tcaron
ENCODING 356
SWIDTH 714 0
DWIDTH 24 0
BBX 23 31 1 0
BITMAP
0381C0
01C380
00E700
007E00
007E00
000000
FFFFFE
FFFFFE
E07C1E
E07C0E
E07C0E
007C00
007C00
007C00
007C00
007C00
007C00
007C00
007C00
007C00
007C00
007C00
007C00
007C00
007C00
007C00
007C00
007C00
00FE00
03FF80
03FF80
ENDCHAR
STARTCHAR tcaron
ENCODING 357
SWIDTH 635 0
DWIDTH 21 0
BBX 18 26 1 0
BITMAP
0007C0
0007C0
0007C0
0607C0
3E07C0
3E03C0
3E03C0
3E03C0
FFE380
FFE780
3E0700
3E0000
3E0000
3E0000
3E0000
3E0000
3E0000
3E0000
3E0000
3E0000
3E0000
3E0000
3F0000
1FE000
1FE000
07E000
ENDCHAR
STARTCHAR Tbar
ENCODING 358
SWIDTH 714 0
DWIDTH 24 0
BBX 23 25 1 0
BITMAP
FFFFFE
FFFFFE
E07C1E
E07C0E
E07C0E
007C00
007C00
007C00
007C00
007C00
007C00
03FF80
03FF80
03FF80
007C00
007C00
007C00
007C00
007C00
007C00
007C00
007C00
00FE00
03FF80
03FF80
ENDCHAR
STARTCHAR tbar
ENCODING 359
SWIDTH 389 0
DWIDTH 13 0
BBX 11 23 1 0
BITMAP
0600
3E00
3E00
3E00
3E00
FFE0
FFE0
3E00
3E00
3E00
3E00
3E00
FFE0
FFE0
FFE0
3E00
3E00
3E00
3E00
3F00
1FE0
1FE0
07E0
ENDCHAR
STARTCHAR Utilde
ENCODING 360
SWIDTH 747 0
DWIDTH 25 0
BBX 25 31 0 0
BITMAP
00F0C000
01FFC000
03FFC000
03FF8000
03070000
00000000
FFE0FF80
FFE0FF80
3F803E00
1F001C00
1F001C00
1F001C00
1F001C00
1F001C00
1F001C00
1F001C00
1F001C00
1F001C00
1F001C00
1F001C00
1F001C00
1F001C00
1F001C00
1F001C00
1F001C00
0F003C00
0F803800
0F807800
07E0F000
03FFE000
007F8000
ENDCHAR
STARTCHAR utilde
ENCODING 361
SWIDTH 654 0
DWIDTH 22 0
BBX 22 24 0 0
BITMAP
01E180
03FF80
07FF80
07FF00
060E00
000000
FF1FE0
FF1FE0
3F07E0
1F03E0
1F03E0
1F03E0
1F03E0
1F03E0
1F03E0
1F03E0
1F03E0
1F03E0
1F07E0
1F0FE0
1FFBE0
0FFBF8
0FF3FC
03C3FC
ENDCHAR
STARTCHAR Umacron
ENCODING 362
SWIDTH 747 0
DWIDTH 25 0
BBX 25 29 0 0
BITMAP
01FF8000
01FF8000
01FF8000
00000000
FFE0FF80
FFE0FF80
3F803E00
1F001C00
1F001C00
1F001C00
1F001C00
1F001C00
1F001C00
1F001C00
1F001C00
1F001C00
1F001C00
1F001C00
1F001C00
1F001C00
1F001C00
1F001C00
1F001C00
0F003C00
0F803800
0F807800
07E0F000
03FFE000
007F8000
ENDCHAR
STARTCHAR umacron
ENCODING 363
SWIDTH 654 0
DWIDTH 22 0
BBX 22 22 0 0
BITMAP
07FE00
07FE00
07FE00
000000
FF1FE0
FF1FE0
3F07E0
1F03E0
1F03E0
1F03E0
1F03E0
1F03E0
1F03E0
1F03E0
1F03E0
1F03E0
1F07E0
1F0FE0
1FFBE0
0FFBF8
0FF3FC
03C3FC
ENDCHAR
STARTCHAR Ubreve
ENCODING 364
SWIDTH 747 0
DWIDTH 25 0
BBX 25 31 0 0
BITMAP
0300C000
0381C000
01FF8000
00FF0000
007E0000
00000000
FFE0FF80
FFE0FF80
3F803E00
1F001C00
1F001C00
1F001C00
1F001C00
1F001C00
1F001C00
1F001C00
1F001C00
1F001C00
1F001C00
1F001C00
1F001C00
1F001C00
1F001C00
1F001C00
1F001C00
0F003C00
0F803800
0F807800
07E0F000
03FFE000
007F8000
ENDCHAR
STARTCHAR ubreve
ENCODING 365
SWIDTH 654 0
DWIDTH 22 0
BBX 22 24 0 0
BITMAP
0C0300
0E0700
07FE00
03FC00
01F800
000000
FF1FE0
FF1FE0
3F07E0
1F03E0
1F03E0
1F03E0
1F03E0
1F03E0
1F03E0
1F03E0
1F03E0
1F03E0
1F07E0
1F0FE0
1FFBE0
0FFBF8
0FF3FC
03C3FC
ENDCHAR
STARTCHAR Uring
ENCODING 366
SWIDTH 747 0
DWIDTH 25 0
BBX 25 31 0 0
BITMAP
001C0000
00360000
00220000
00360000
001C0000
00000000
FFE0FF80
FFE0FF80
3F803E00
1F001C00
1F001C00
1F001C00
1F001C00
1F001C00
1F001C00
1F001C00
1F001C00
1F001C00
1F001C00
1F001C00
1F001C00
1F001C00
1F001C00
1F001C00
1F001C00
0F003C00
0F803800
0F807800
07E0F000
03FFE000
007F8000
ENDCHAR
STARTCHAR uring
ENCODING 367
SWIDTH 654 0
DWIDTH 22 0
BBX 22 24 0 0
BITMAP
007000
00D800
008800
00D800
007000
000000
FF1FE0
FF1FE0
3F07E0
1F03E0
1F03E0
1F03E0
1F03E0
1F03E0
1F03E0
1F03E0
1F03E0
1F03E0
1F07E0
1F0FE0
1FFBE0
0FFBF8
0FF3FC
03C3FC
ENDCHAR
STARTCHAR Uhungarumlaut
ENCODING 368
SWIDTH 747 0
DWIDTH 25 0
BBX 25 31 0 0
BITMAP
003DE000
00338000
00630000
00C60000
018C0000
00000000
FFE0FF80
FFE0FF80
3F803E00
1F001C00
1F001C00
1F001C00
1F001C00
1F001C00
1F001C00
1F001C00
1F001C00
1F001C00
1F001C00
1F001C00
1F001C00
1F001C00
1F001C00
1F001C00
1F001C00
0F003C00
0F803800
0F807800
07E0F000
03FFE000
007F8000
ENDCHAR
STARTCHAR uhungarumlaut
ENCODING 369
SWIDTH 654 0
DWIDTH 22 0
BBX 22 24 0 0
BITMAP
007BC0
006700
00C600
018C00
031800
000000
FF1FE0
FF1FE0
3F07E0
1F03E0
1F03E0
1F03E0
1F03E0
1F03E0
1F03E0
1F03E0
1F03E0
1F03E0
1F07E0
1F0FE0
1FFBE0
0FFBF8
0FF3FC
03C3FC
ENDCHAR
STARTCHAR Uogonek
ENCODING 370
SWIDTH 747 0
DWIDTH 25 0
BBX 25 31 0 -6
BITMAP
FFE0FF80
FFE0FF80
3F803E00
1F001C00
1F001C00
1F001C00
1F001C00
1F001C00
1F001C00
1F001C00
1F001C00
1F001C00
1F001C00
1F001C00
1F001C00
1F001C00
1F001C00
1F001C00
1F001C00
0F003C00
0F803800
0F807800
07E0F000
03FFE000
007F8000
00000000
000E0000
00380000
00380000
003F0000
001F0000
ENDCHAR
STARTCHAR uogonek
ENCODING 371
SWIDTH 654 0
DWIDTH 22 0
BBX 22 24 0 -6
BITMAP
FF1FE0
FF1FE0
3F07E0
1F03E0
1F03E0
1F03E0
1F03E0
1F03E0
1F03E0
1F03E0
1F03E0
1F03E0
1F07E0
1F0FE0
1FFBE0
0FFBF8
0FF3FC
03C3FC
000000
001C00
007000
007000
007E00
003E00
ENDCHAR
STARTCHAR Wcircumflex
ENCODING 372
SWIDTH 955 0
DWIDTH 32 0
BBX 32 31 0 0
BITMAP
000FC000
000FC000
001CE000
00387000
00703800
00000000
FF80C03F
FF80E03F
7E01E00C
3F01E01C
3F01F018
1F03F018
1F03F010
1F83F030
0F87F830
0F86F830
0FC6F860
0FCEFC60
07CC7C60
07CC7CC0
07FC7EC0
03F83EC0
03F83F80
03F83F80
03F01F80
01F01F80
01F01F00
01E00F00
00E00F00
00E00E00
00C00600
ENDCHAR
STARTCHAR wcircumflex
ENCODING 373
SWIDTH 880 0
DWIDTH 30 0
BBX 30 24 0 0
BITMAP
001F8000
001F8000
0039C000
0070E000
00E07000
00000000
FFC1C1FC
FFC1C1FC
7E03E070
3F03E060
1F07E060
1F07F0E0
1F87F0C0
0F8FF8C0
0F8CF9C0
07DCF980
07D8FF80
07F87F00
03F07F00
03F03F00
03E03E00
01E01E00
01C01C00
00C01C00
ENDCHAR
STARTCHAR Ycircumflex
ENCODING 374
SWIDTH 717 0
DWIDTH 24 0
BBX 25 31 0 0
BITMAP
007E0000
007E0000
00E70000
01C38000
0381C000
00000000
FFE03F80
FFE03F80
3F800E00
1F800C00
0FC01C00
0FC03800
07E03000
03F07000
03F06000
01F8C000
00FDC000
00FD8000
007F0000
003F0000
003E0000
003E0000
003E0000
003E0000
003E0000
003E0000
003E0000
003E0000
007F0000
01FFC000
01FFC000
ENDCHAR
STARTCHAR ycircumflex
ENCODING 375
SWIDTH 654 0
DWIDTH 22 0
BBX 22 31 0 -7
BITMAP
01F800
01F800
039C00
070E00
0E0700
000000
FFC0FC
FFC0FC
3F0070
1F0060
1F8060
0F80C0
0FC0C0
07C180
07E380
07E300
03E700
03F600
01FE00
01FC00
00F800
00F800
007000
007000
002000
006000
00C000
01C000
038000
078000
1F0000
ENDCHAR
STARTCHAR Ydieresis
ENCODING 376
SWIDTH 717 0
DWIDTH 24 0
BBX 25 31 0 0
BITMAP
01C38000
01C38000
01C38000
01C38000
00000000
00000000
FFE03F80
FFE03F80
3F800E00
1F800C00
0FC01C00
0FC03800
07E03000
03F07000
03F06000
01F8C000
00FDC000
00FD8000
007F0000
003F0000
003E0000
003E0000
003E0000
003E0000
003E0000
003E0000
003E0000
003E0000
007F0000
01FFC000
01FFC000
ENDCHAR
STARTCHAR Zacute
ENCODING 377
SWIDTH 639 0
DWIDTH 22 0
BBX 18 31 2 0
BITMAP
003E00
007800
007000
00E000
01C000
000000
7FFFC0
7FFFC0
700FC0
701F80
701F80
003F00
003E00
007E00
00FC00
00FC00
01F800
01F000
03F000
03E000
07E000
0FC000
0FC000
1F8000
1F0000
3F0000
7E01C0
7E01C0
FC01C0
FFFFC0
FFFFC0
ENDCHAR
STARTCHAR zacute
ENCODING 378
SWIDTH 584 0
DWIDTH 20 0
BBX 16 24 2 0
BITMAP
007C
00F0
00E0
01C0
0380
0000
7FFF
7FFF
607F
607E
70FC
01F8
01F8
03F0
07E0
0FE0
0FC0
1F80
3F00
3F07
7E07
FC07
FFFF
FFFF
ENDCHAR
STARTCHAR Zdotaccent
ENCODING 379
SWIDTH 639 0
DWIDTH 22 0
BBX 18 31 2 0
BITMAP
00F000
00F000
00F000
00F000
00F000
000000
7FFFC0
7FFFC0
700FC0
701F80
701F80
003F00
003E00
007E00
00FC00
00FC00
01F800
01F000
03F000
03E000
07E000
0FC000
0FC000
1F8000
1F0000
3F0000
7E01C0
7E01C0
FC01C0
FFFFC0
FFFFC0
ENDCHAR
STARTCHAR zdotaccent
ENCODING 380
SWIDTH 584 0
DWIDTH 20 0
BBX 16 24 2 0
BITMAP
01E0
01E0
01E0
01E0
01E0
0000
7FFF
7FFF
607F
607E
70FC
01F8
01F8
03F0
07E0
0FE0
0FC0
1F80
3F00
3F07
7E07
FC07
FFFF
FFFF
ENDCHAR
STARTCHAR Zcaron
ENCODING 381
SWIDTH 639 0
DWIDTH 22 0
BBX 18 32 2 0
BITMAP
1C0E00
0E1C00
073800
03F000
03F000
000000
000000
7FFFC0
7FFFC0
700FC0
701F80
701F80
003F00
003E00
007E00
00FC00
00FC00
01F800
01F000
03F000
03E000
07E000
0FC000
0FC000
1F8000
1F0000
3F0000
7E01C0
7E01C0
FC01C0
FFFFC0
FFFFC0
ENDCHAR
STARTCHAR zcaron
ENCODING 382
SWIDTH 584 0
DWIDTH 20 0
BBX 16 25 2 0
BITMAP
381C
1C38
0E70
07E0
07E0
0000
0000
7FFF
7FFF
607F
607E
70FC
01F8
01F8
03F0
07E0
0FE0
0FC0
1F80
3F00
3F07
7E07
FC07
FFFF
FFFF
ENDCHAR
STARTCHAR uni0186
ENCODING 390
SWIDTH 711 0
DWIDTH 24 0
BBX 21 25 1 0
BITMAP
1FF000
7FFE00
FFFF80
F01FC0
800FE0
0003E0
0003F0
0001F0
0001F8
0000F8
0000F8
0000F8
0000F8
0000F8
0000F8
0000F8
0000F8
0001F0
0001F0
E001E0
E003E0
E007C0
F81F80
FFFE00
1FF000
ENDCHAR
STARTCHAR uni0189
ENCODING 393
SWIDTH 794 0
DWIDTH 27 0
BBX 25 25 0 0
BITMAP
7FFF8000
7FFFF000
3F03F800
1F007C00
1F003E00
1F001F00
1F001F00
1F001F00
1F000F80
1F000F80
1F000F80
FFFC0F80
FFFC0F80
1F000F80
1F000F80
1F000F80
1F000F00
1F001F00
1F001F00
1F001E00
1F003E00
1F007C00
3F81F800
7FFFF000
7FFF8000
ENDCHAR
STARTCHAR uni018E
ENCODING 398
SWIDTH 601 0
DWIDTH 20 0
BBX 19 25 1 0
BITMAP
FFFFE0
FFFFE0
E03F80
E01F00
E01F00
001F00
001F00
001F00
001F00
001F00
181F00
181F00
1FFF00
1FFF00
181F00
181F00
001F00
001F00
001F00
001F00
E01F00
E01F00
F01F80
FFFFE0
FFFFE0
ENDCHAR
STARTCHAR florin
ENCODING 402
SWIDTH 623 0
DWIDTH 21 0
BBX 18 31 3 -6
BITMAP
001FC0
007FC0
00F3C0
01E1C0
03E1C0
03C000
07C000
07C000
07C000
0FC000
0F8000
0F8000
7FF800
7FF800
0F8000
1F0000
1F0000
1F0000
1F0000
1F0000
3E0000
3E0000
3E0000
3E0000
7E0000
7C0000
7C0000
7C0000
7C0000
FC0000
F80000
ENDCHAR
STARTCHAR uni0197
ENCODING 407
SWIDTH 349 0
DWIDTH 12 0
BBX 11 25 0 0
BITMAP
FFE0
FFE0
3F80
1F00
1F00
1F00
1F00
1F00
1F00
1F00
1F00
FFE0
FFE0
FFE0
1F00
1F00
1F00
1F00
1F00
1F00
1F00
1F00
3F80
FFE0
FFE0
ENDCHAR
STARTCHAR uni019A
ENCODING 410
SWIDTH 325 0
DWIDTH 11 0
BBX 11 26 0 0
BITMAP
FF00
FF00
3F00
1F00
1F00
1F00
1F00
1F00
1F00
1F00
1F00
FFE0
FFE0
FFE0
1F00
1F00
1F00
1F00
1F00
1F00
1F00
1F00
1F00
3F80
FFE0
FFE0
ENDCHAR
STARTCHAR uni019D
ENCODING 413
SWIDTH 788 0
DWIDTH 27 0
BBX 28 32 -2 -7
BITMAP
1FC01FF0
1FE01FF0
07E007C0
03F00380
03F80380
03F80380
03FC0380
03FE0380
03BF0380
03BF0380
039F8380
038FC380
038FC380
0387E380
0383F380
0383FB80
0381FB80
03E0FF80
03E07F80
03E07F80
03E03F80
03E01F80
03E01F80
03E00F80
03E00780
03E00000
E3E00000
E3E00000
E3C00000
F7C00000
FF800000
7F000000
ENDCHAR
STARTCHAR uni019F
ENCODING 415
SWIDTH 810 0
DWIDTH 28 0
BBX 25 25 1 0
BITMAP
00FF8000
03FFE000
0FC1F800
1F007C00
3E003E00
3C001E00
7C001F00
7C001F00
F8000F80
F8000F80
F8000F80
FFFFFF80
FFFFFF80
FFFFFF80
F8000F80
F8000F80
F8000F80
7C001F00
7C001F00
3E003E00
3E003E00
1F007C00
0FC1F800
03FFE000
00FF8000
ENDCHAR
STARTCHAR Ohorn
ENCODING 416
SWIDTH 810 0
DWIDTH 28 0
BBX 27 25 1 0
BITMAP
00FF83E0
03FFE3E0
0FC1FBE0
1F007FE0
3E003FE0
3C001FE0
7C001FE0
7C001FE0
F8000FC0
F8000FC0
F8000F80
F8000F80
F8000F80
F8000F80
F8000F80
F8000F80
F8000F80
7C001F00
7C001F00
3E003E00
3E003E00
1F007C00
0FC1F800
03FFE000
00FF8000
ENDCHAR
STARTCHAR ohorn
ENCODING 417
SWIDTH 617 0
DWIDTH 21 0
BBX 22 18 1 0
BITMAP
03F87C
0FFE7C
3F1FFC
3C07FC
7C07FC
7803FC
F803FC
F803FC
F803F8
F803F8
F803F0
F803E0
7803C0
7C07C0
3C0780
3F1F80
0FFE00
03F800
ENDCHAR
STARTCHAR uni01A7
ENCODING 423
SWIDTH 556 0
DWIDTH 19 0
BBX 16 25 2 0
BITMAP
1FE0
7FF8
787C
703E
701F
701F
001F
003F
007F
00FE
03FE
0FFC
1FF0
3FC0
7F80
FE00
FC00
F800
F800
F807
F807
7C07
3E1F
1FFF
07FC
ENDCHAR
STARTCHAR uni01A8
ENCODING 424
SWIDTH 525 0
DWIDTH 18 0
BBX 15 18 2 0
BITMAP
0FE0
3FF8
3C7C
383E
383E
387E
01FE
0FFC
3FFC
7FF8
FFE0
FF00
FC0E
F80E
F80E
7C3E
3FFE
0FF8
ENDCHAR
STARTCHAR uni01AE
ENCODING 430
SWIDTH 714 0
DWIDTH 24 0
BBX 23 32 1 -7
BITMAP
FFFFFE
FFFFFE
E07C1E
E07C0E
E07C0E
007C00
007C00
007C00
007C00
007C00
007C00
007C00
007C00
007C00
007C00
007C00
007C00
007C00
007C00
007C00
007C00
007C00
007C00
007C00
007C00
007C00
007C70
007C70
003C70
003EF0
001FF0
000FE0
ENDCHAR
STARTCHAR Uhorn
ENCODING 431
SWIDTH 747 0
DWIDTH 25 0
BBX 27 25 0 0
BITMAP
FFE0FFE0
FFE0FFE0
3F803FE0
1F001FE0
1F001FE0
1F001DE0
1F001DE0
1F001DE0
1F001DC0
1F001FC0
1F001F80
1F001C00
1F001C00
1F001C00
1F001C00
1F001C00
1F001C00
1F001C00
1F001C00
0F003C00
0F803800
0F807800
07E0F000
03FFE000
007F8000
ENDCHAR
STARTCHAR uhorn
ENCODING 432
SWIDTH 654 0
DWIDTH 22 0
BBX 25 18 0 0
BITMAP
FF1FEF80
FF1FEF80
3F07EF80
1F03EF80
1F03EF80
1F03E780
1F03E780
1F03E780
1F03E700
1F03EF00
1F03EE00
1F03E000
1F07E000
1F0FE000
1FFBE000
0FFBF800
0FF3FC00
03C3FC00
ENDCHAR
STARTCHAR uni01B5
ENCODING 437
SWIDTH 639 0
DWIDTH 22 0
BBX 18 25 2 0
BITMAP
7FFFC0
7FFFC0
700FC0
701F80
701F80
003F00
003E00
007E00
00FC00
00FC00
01F800
0FFE00
0FFE00
0FFE00
07E000
0FC000
0FC000
1F8000
1F0000
3F0000
7E01C0
7E01C0
FC01C0
FFFFC0
FFFFC0
ENDCHAR
STARTCHAR uni01B6
ENCODING 438
SWIDTH 584 0
DWIDTH 20 0
BBX 16 18 2 0
BITMAP
7FFF
7FFF
607F
607E
70FC
01F8
01F8
1FFC
1FFC
1FFC
0FC0
1F80
3F00
3F07
7E07
FC07
FFFF
FFFF
ENDCHAR
STARTCHAR uni01BB
ENCODING 443
SWIDTH 623 0
DWIDTH 21 0
BBX 16 25 2 0
BITMAP
0FE0
7FF8
707E
603E
603F
701F
001F
001F
001F
001E
003C
FFFF
FFFF
FFFF
01C0
0300
0E00
1C00
1800
3800
7FFF
7FFF
FFFF
FFFF
FFFF
ENDCHAR
STARTCHAR uni01BC
ENCODING 444
SWIDTH 623 0
DWIDTH 21 0
BBX 14 25 4 0
BITMAP
FFFC
FFFC
FFFC
FFFC
C000
C000
C000
C000
C000
C000
FF00
FFE0
07F0
01F8
00FC
007C
007C
007C
007C
E07C
E078
E0F8
F1F0
FFE0
7F80
ENDCHAR
STARTCHAR uni01C0
ENCODING 448
SWIDTH 259 0
DWIDTH 9 0
BBX 3 32 3 -6
BITMAP
E0
E0
E0
E0
E0
E0
E0
E0
E0
E0
E0
E0
E0
E0
E0
E0
E0
E0
E0
E0
E0
E0
E0
E0
E0
E0
E0
E0
E0
E0
E0
E0
ENDCHAR
STARTCHAR uni01C2
ENCODING 450
SWIDTH 623 0
DWIDTH 21 0
BBX 20 32 1 -6
BITMAP
007000
007000
007000
007000
007000
007000
007000
007000
007000
007000
007000
007000
FFFFF0
FFFFF0
FFFFF0
007000
007000
007000
FFFFF0
FFFFF0
FFFFF0
007000
007000
007000
007000
007000
007000
007000
007000
007000
007000
007000
ENDCHAR
STARTCHAR uni01C3
ENCODING 451
SWIDTH 265 0
DWIDTH 9 0
BBX 5 25 2 0
BITMAP
F8
F8
F8
F8
F8
F8
F8
F8
78
78
78
70
70
70
70
30
30
30
00
00
F8
F8
F8
F8
F8
ENDCHAR
STARTCHAR uni01CD
ENCODING 461
SWIDTH 795 0
DWIDTH 27 0
BBX 27 31 0 0
BITMAP
00E07000
0070E000
0039C000
001F8000
001F8000
00000000
000E0000
000E0000
001F0000
001F0000
003F8000
003F8000
003FC000
006FC000
0067C000
00C7E000
00C3E000
0183F000
0181F000
0301F800
0300F800
07FFFC00
07FFFC00
0E007E00
0C003E00
1C003F00
18001F00
38001F80
78001F80
FE007FE0
FE007FE0
ENDCHAR
STARTCHAR uni01CE
ENCODING 462
SWIDTH 556 0
DWIDTH 19 0
BBX 17 24 1 0
BITMAP
381C00
1C3800
0E7000
07E000
07E000
000000
0FF000
3FF800
387C00
383E00
383E00
003E00
003E00
0FFE00
3FFE00
7E3E00
FC3E00
F83E00
F83E00
F83E00
FC7E00
7FDE00
7F9F80
1F0F80
ENDCHAR
STARTCHAR uni01CF
ENCODING 463
SWIDTH 349 0
DWIDTH 12 0
BBX 12 31 0 0
BITMAP
E070
70E0
39C0
1F80
1F80
0000
FFE0
FFE0
3F80
1F00
1F00
1F00
1F00
1F00
1F00
1F00
1F00
1F00
1F00
1F00
1F00
1F00
1F00
1F00
1F00
1F00
1F00
1F00
3F80
FFE0
FFE0
ENDCHAR
STARTCHAR uni01D0
ENCODING 464
SWIDTH 325 0
DWIDTH 11 0
BBX 12 24 -1 0
BITMAP
E070
70E0
39C0
1F80
1F80
0000
7F80
7F80
1F80
0F80
0F80
0F80
0F80
0F80
0F80
0F80
0F80
0F80
0F80
0F80
0F80
1FC0
7FF0
7FF0
ENDCHAR
STARTCHAR uni01D1
ENCODING 465
SWIDTH 810 0
DWIDTH 28 0
BBX 25 31 1 0
BITMAP
01C0E000
00E1C000
00738000
003F0000
003F0000
00000000
00FF8000
03FFE000
0FC1F800
1F007C00
3E003E00
3C001E00
7C001F00
7C001F00
F8000F80
F8000F80
F8000F80
F8000F80
F8000F80
F8000F80
F8000F80
F8000F80
F8000F80
7C001F00
7C001F00
3E003E00
3E003E00
1F007C00
0FC1F800
03FFE000
00FF8000
ENDCHAR
STARTCHAR uni01D2
ENCODING 466
SWIDTH 617 0
DWIDTH 21 0
BBX 19 24 1 0
BITMAP
0E0700
070E00
039C00
01F800
01F800
000000
03F800
0FFE00
3F1F80
3C0780
7C07C0
7803C0
F803E0
F803E0
F803E0
F803E0
F803E0
F803E0
7803C0
7C07C0
3C0780
3F1F80
0FFE00
03F800
ENDCHAR
STARTCHAR uni01D3
ENCODING 467
SWIDTH 747 0
DWIDTH 25 0
BBX 25 31 0 0
BITMAP
0381C000
01C38000
00E70000
007E0000
007E0000
00000000
FFE0FF80
FFE0FF80
3F803E00
1F001C00
1F001C00
1F001C00
1F001C00
1F001C00
1F001C00
1F001C00
1F001C00
1F001C00
1F001C00
1F001C00
1F001C00
1F001C00
1F001C00
1F001C00
1F001C00
0F003C00
0F803800
0F807800
07E0F000
03FFE000
007F8000
ENDCHAR
STARTCHAR uni01D4
ENCODING 468
SWIDTH 654 0
DWIDTH 22 0
BBX 22 24 0 0
BITMAP
0E0700
070E00
039C00
01F800
01F800
000000
FF1FE0
FF1FE0
3F07E0
1F03E0
1F03E0
1F03E0
1F03E0
1F03E0
1F03E0
1F03E0
1F03E0
1F03E0
1F07E0
1F0FE0
1FFBE0
0FFBF8
0FF3FC
03C3FC
ENDCHAR
STARTCHAR uni01D5
ENCODING 469
SWIDTH 747 0
DWIDTH 25 0
BBX 25 35 0 0
BITMAP
01FF8000
01FF8000
01FF8000
00000000
01C38000
01C38000
01C38000
01C38000
00000000
00000000
FFE0FF80
FFE0FF80
3F803E00
1F001C00
1F001C00
1F001C00
1F001C00
1F001C00
1F001C00
1F001C00
1F001C00
1F001C00
1F001C00
1F001C00
1F001C00
1F001C00
1F001C00
1F001C00
1F001C00
0F003C00
0F803800
0F807800
07E0F000
03FFE000
007F8000
ENDCHAR
STARTCHAR uni01D6
ENCODING 470
SWIDTH 654 0
DWIDTH 22 0
BBX 22 28 0 0
BITMAP
03FF00
03FF00
03FF00
000000
038700
038700
038700
038700
000000
000000
FF1FE0
FF1FE0
3F07E0
1F03E0
1F03E0
1F03E0
1F03E0
1F03E0
1F03E0
1F03E0
1F03E0
1F03E0
1F07E0
1F0FE0
1FFBE0
0FFBF8
0FF3FC
03C3FC
ENDCHAR
STARTCHAR uni01D7
ENCODING 471
SWIDTH 747 0
DWIDTH 25 0
BBX 25 37 0 0
BITMAP
0007C000
000F0000
000E0000
001C0000
00380000
00000000
01C38000
01C38000
01C38000
01C38000
00000000
00000000
FFE0FF80
FFE0FF80
3F803E00
1F001C00
1F001C00
1F001C00
1F001C00
1F001C00
1F001C00
1F001C00
1F001C00
1F001C00
1F001C00
1F001C00
1F001C00
1F001C00
1F001C00
1F001C00
1F001C00
0F003C00
0F803800
0F807800
07E0F000
03FFE000
007F8000
ENDCHAR
STARTCHAR uni01D8
ENCODING 472
SWIDTH 654 0
DWIDTH 22 0
BBX 22 30 0 0
BITMAP
001F00
003C00
003800
007000
00E000
000000
038700
038700
038700
038700
000000
000000
FF1FE0
FF1FE0
3F07E0
1F03E0
1F03E0
1F03E0
1F03E0
1F03E0
1F03E0
1F03E0
1F03E0
1F03E0
1F07E0
1F0FE0
1FFBE0
0FFBF8
0FF3FC
03C3FC
ENDCHAR
STARTCHAR uni01D9
ENCODING 473
SWIDTH 747 0
DWIDTH 25 0
BBX 25 37 0 0
BITMAP
0381C000
01C38000
00E70000
007E0000
007E0000
00000000
01C38000
01C38000
01C38000
01C38000
00000000
00000000
FFE0FF80
FFE0FF80
3F803E00
1F001C00
1F001C00
1F001C00
1F001C00
1F001C00
1F001C00
1F001C00
1F001C00
1F001C00
1F001C00
1F001C00
1F001C00
1F001C00
1F001C00
1F001C00
1F001C00
0F003C00
0F803800
0F807800
07E0F000
03FFE000
007F8000
ENDCHAR
STARTCHAR uni01DA
ENCODING 474
SWIDTH 654 0
DWIDTH 22 0
BBX 22 30 0 0
BITMAP
070380
038700
01CE00
00FC00
00FC00
000000
038700
038700
038700
038700
000000
000000
FF1FE0
FF1FE0
3F07E0
1F03E0
1F03E0
1F03E0
1F03E0
1F03E0
1F03E0
1F03E0
1F03E0
1F03E0
1F07E0
1F0FE0
1FFBE0
0FFBF8
0FF3FC
03C3FC
ENDCHAR
STARTCHAR uni01DB
ENCODING 475
SWIDTH 747 0
DWIDTH 25 0
BBX 25 37 0 0
BITMAP
01F00000
00700000
00380000
001C0000
000E0000
00000000
01C38000
01C38000
01C38000
01C38000
00000000
00000000
FFE0FF80
FFE0FF80
3F803E00
1F001C00
1F001C00
1F001C00
1F001C00
1F001C00
1F001C00
1F001C00
1F001C00
1F001C00
1F001C00
1F001C00
1F001C00
1F001C00
1F001C00
1F001C00
1F001C00
0F003C00
0F803800
0F807800
07E0F000
03FFE000
007F8000
ENDCHAR
STARTCHAR uni01DC
ENCODING 476
SWIDTH 654 0
DWIDTH 22 0
BBX 22 30 0 0
BITMAP
07C000
01C000
00E000
007000
003800
000000
038700
038700
038700
038700
000000
000000
FF1FE0
FF1FE0
3F07E0
1F03E0
1F03E0
1F03E0
1F03E0
1F03E0
1F03E0
1F03E0
1F03E0
1F03E0
1F07E0
1F0FE0
1FFBE0
0FFBF8
0FF3FC
03C3FC
ENDCHAR
STARTCHAR uni01DD
ENCODING 477
SWIDTH 568 0
DWIDTH 19 0
BBX 16 18 1 0
BITMAP
3FC0
FFF0
FFF8
80FC
007E
003E
001F
001F
001F
FFFF
FFFF
F81F
F81E
781E
783E
3C3C
1FF8
0FE0
ENDCHAR
STARTCHAR uni01DE
ENCODING 478
SWIDTH 795 0
DWIDTH 27 0
BBX 27 35 0 0
BITMAP
007FE000
007FE000
007FE000
00000000
0070E000
0070E000
0070E000
0070E000
00000000
00000000
000E0000
000E0000
001F0000
001F0000
003F8000
003F8000
003FC000
006FC000
0067C000
00C7E000
00C3E000
0183F000
0181F000
0301F800
0300F800
07FFFC00
07FFFC00
0E007E00
0C003E00
1C003F00
18001F00
38001F80
78001F80
FE007FE0
FE007FE0
ENDCHAR
STARTCHAR uni01DF
ENCODING 479
SWIDTH 556 0
DWIDTH 19 0
BBX 17 28 1 0
BITMAP
1FF800
1FF800
1FF800
000000
1C3800
1C3800
1C3800
1C3800
000000
000000
0FF000
3FF800
387C00
383E00
383E00
003E00
003E00
0FFE00
3FFE00
7E3E00
FC3E00
F83E00
F83E00
F83E00
FC7E00
7FDE00
7F9F80
1F0F80
ENDCHAR
STARTCHAR uni01E0
ENCODING 480
SWIDTH 795 0
DWIDTH 27 0
BBX 27 35 0 0
BITMAP
007FE000
007FE000
007FE000
00000000
000F0000
000F0000
000F0000
000F0000
000F0000
00000000
000E0000
000E0000
001F0000
001F0000
003F8000
003F8000
003FC000
006FC000
0067C000
00C7E000
00C3E000
0183F000
0181F000
0301F800
0300F800
07FFFC00
07FFFC00
0E007E00
0C003E00
1C003F00
18001F00
38001F80
78001F80
FE007FE0
FE007FE0
ENDCHAR
STARTCHAR uni01E1
ENCODING 481
SWIDTH 556 0
DWIDTH 19 0
BBX 17 28 1 0
BITMAP
1FF800
1FF800
1FF800
000000
03C000
03C000
03C000
03C000
03C000
000000
0FF000
3FF800
387C00
383E00
383E00
003E00
003E00
0FFE00
3FFE00
7E3E00
FC3E00
F83E00
F83E00
F83E00
FC7E00
7FDE00
7F9F80
1F0F80
ENDCHAR
STARTCHAR uni01E2
ENCODING 482
SWIDTH 959 0
DWIDTH 33 0
BBX 31 29 0 0
BITMAP
0003FF00
0003FF00
0003FF00
00000000
0001FFFC
0003FFFC
0003F03C
0007F01C
000FF01C
000DF000
001DF000
0019F000
0031F000
0071F038
0061F038
00E1FFF8
00C1FFF8
0181F038
0181F038
0301F000
07FFF000
07FFF000
0C01F000
0C01F000
1801F006
3001F006
7003F80E
FC0FFFFE
FC0FFFFE
ENDCHAR
STARTCHAR uni01E3
ENCODING 483
SWIDTH 858 0
DWIDTH 29 0
BBX 27 22 1 0
BITMAP
007FE000
007FE000
007FE000
00000000
0FF07C00
3FF9FF00
383F8780
381F03C0
001F03C0
001F03E0
001F03E0
07FFFFE0
3FFFFFE0
7E1F0000
FC1F0000
F81F0000
F81F8000
F81FC000
FC3FE020
7FE7FFE0
3FC3FFE0
1F00FF00
ENDCHAR
STARTCHAR uni01E4
ENCODING 484
SWIDTH 753 0
DWIDTH 26 0
BBX 27 25 1 0
BITMAP
007FC000
03FFF800
0FC0F800
1F003800
3E003800
3C003800
7C000000
7C000000
F8000000
F8000000
F8000000
F8000000
F8000000
F8000000
F807FF00
F807FF00
F801FC00
7C00FFE0
7C00FFE0
3E00FFE0
3E00F800
1F00F800
0FC0F800
03FFF800
007FC000
ENDCHAR
STARTCHAR uni01E5
ENCODING 485
SWIDTH 599 0
DWIDTH 20 0
BBX 19 25 1 -7
BITMAP
07FFE0
1FFFE0
3E3EC0
3C1E00
7C1F00
7C1F00
7C1F00
7C1F00
3C1F00
3C1E00
1E3E00
07FC00
0FF000
3C0000
3FFE00
3FFF80
3FFFC0
FFFFE0
FFFFE0
FFFFE0
F807C0
F80F80
FE1F00
7FFE00
0FF800
ENDCHAR
STARTCHAR Gcaron
ENCODING 486
SWIDTH 753 0
DWIDTH 26 0
BBX 24 31 1 0
BITMAP
0381C0
01C380
00E700
007E00
007E00
000000
007FC0
03FFF8
0FC0F8
1F0038
3E0038
3C0038
7C0000
7C0000
F80000
F80000
F80000
F80000
F80000
F80000
F807FF
F807FF
F801FC
7C00F8
7C00F8
3E00F8
3E00F8
1F00F8
0FC0F8
03FFF8
007FC0
ENDCHAR
STARTCHAR gcaron
ENCODING 487
SWIDTH 599 0
DWIDTH 20 0
BBX 19 31 1 -7
BITMAP
0E0700
070E00
039C00
01F800
01F800
000000
07FFE0
1FFFE0
3E3EC0
3C1E00
7C1F00
7C1F00
7C1F00
7C1F00
3C1F00
3C1E00
1E3E00
07FC00
0FF000
3C0000
3FFE00
3FFF80
3FFFC0
0FFFC0
3807C0
F807C0
F807C0
F80F80
FE1F00
7FFE00
0FF800
ENDCHAR
STARTCHAR uni01E8
ENCODING 488
SWIDTH 747 0
DWIDTH 25 0
BBX 25 31 1 0
BITMAP
07038000
03870000
01CE0000
00FC0000
00FC0000
00000000
FFC0FE00
FFC0FE00
3F807800
1F007000
1F00E000
1F018000
1F070000
1F0E0000
1F1C0000
1F380000
1F700000
1FF80000
1FFC0000
1FFE0000
1F7F0000
1F3F8000
1F1F8000
1F0FC000
1F07E000
1F07F000
1F03F800
1F01FC00
3F80FE00
FFC7FF80
FFC7FF80
ENDCHAR
STARTCHAR uni01E9
ENCODING 489
SWIDTH 654 0
DWIDTH 21 0
BBX 22 32 0 0
BITMAP
703800
387000
1CE000
0FC000
0FC000
000000
FF0000
FF0000
3F0000
1F0000
1F0000
1F0000
1F0000
1F0000
1F07F0
1F07F0
1F01C0
1F0380
1F0700
1F1E00
1F3800
1F7800
1FFC00
1FFC00
1F7E00
1F3F00
1F1F80
1F1FC0
1F0FE0
3F07F0
FFC3FC
FFC3FC
ENDCHAR
STARTCHAR uni01EA
ENCODING 490
SWIDTH 810 0
DWIDTH 28 0
BBX 25 31 1 -6
BITMAP
00FF8000
03FFE000
0FC1F800
1F007C00
3E003E00
3C001E00
7C001F00
7C001F00
F8000F80
F8000F80
F8000F80
F8000F80
F8000F80
F8000F80
F8000F80
F8000F80
F8000F80
7C001F00
7C001F00
3E003E00
3E003E00
1F007C00
0FC1F800
03FFE000
00FF8000
00000000
000E0000
00380000
00380000
003F0000
001F0000
ENDCHAR
STARTCHAR uni01EB
ENCODING 491
SWIDTH 617 0
DWIDTH 21 0
BBX 19 24 1 -6
BITMAP
03F800
0FFE00
3F1F80
3C0780
7C07C0
7803C0
F803E0
F803E0
F803E0
F803E0
F803E0
F803E0
7803C0
7C07C0
3C0780
3F1F80
0FFE00
03F800
000000
007000
01C000
01C000
01F800
00F800
ENDCHAR
STARTCHAR uni01EC
ENCODING 492
SWIDTH 810 0
DWIDTH 28 0
BBX 25 35 1 -6
BITMAP
00FFC000
00FFC000
00FFC000
00000000
00FF8000
03FFE000
0FC1F800
1F007C00
3E003E00
3C001E00
7C001F00
7C001F00
F8000F80
F8000F80
F8000F80
F8000F80
F8000F80
F8000F80
F8000F80
F8000F80
F8000F80
7C001F00
7C001F00
3E003E00
3E003E00
1F007C00
0FC1F800
03FFE000
00FF8000
00000000
000E0000
00380000
00380000
003F0000
001F0000
ENDCHAR
STARTCHAR uni01ED
ENCODING 493
SWIDTH 617 0
DWIDTH 21 0
BBX 19 28 1 -6
BITMAP
07FE00
07FE00
07FE00
000000
03F800
0FFE00
3F1F80
3C0780
7C07C0
7803C0
F803E0
F803E0
F803E0
F803E0
F803E0
F803E0
7803C0
7C07C0
3C0780
3F1F80
0FFE00
03F800
000000
007000
01C000
01C000
01F800
00F800
ENDCHAR
STARTCHAR uni01F0
ENCODING 496
SWIDTH 355 0
DWIDTH 12 0
BBX 13 31 -1 -7
BITMAP
7038
3870
1CE0
0FC0
0FC0
0000
0FE0
0FE0
03E0
03E0
03E0
03E0
03E0
03E0
03E0
03E0
03E0
03E0
03E0
03E0
03E0
03E0
03E0
03E0
03E0
E3E0
E3E0
E3C0
F7C0
FF80
7F00
ENDCHAR
STARTCHAR uni01F4
ENCODING 500
SWIDTH 753 0
DWIDTH 26 0
BBX 24 31 1 0
BITMAP
000F80
001E00
001C00
003800
007000
000000
007FC0
03FFF8
0FC0F8
1F0038
3E0038
3C0038
7C0000
7C0000
F80000
F80000
F80000
F80000
F80000
F80000
F807FF
F807FF
F801FC
7C00F8
7C00F8
3E00F8
3E00F8
1F00F8
0FC0F8
03FFF8
007FC0
ENDCHAR
STARTCHAR uni01F5
ENCODING 501
SWIDTH 599 0
DWIDTH 20 0
BBX 19 31 1 -7
BITMAP
003E00
007800
007000
00E000
01C000
000000
07FFE0
1FFFE0
3E3EC0
3C1E00
7C1F00
7C1F00
7C1F00
7C1F00
3C1F00
3C1E00
1E3E00
07FC00
0FF000
3C0000
3FFE00
3FFF80
3FFFC0
0FFFC0
3807C0
F807C0
F807C0
F80F80
FE1F00
7FFE00
0FF800
ENDCHAR
STARTCHAR uni01F8
ENCODING 504
SWIDTH 788 0
DWIDTH 27 0
BBX 25 31 1 0
BITMAP
01F00000
00700000
00380000
001C0000
000E0000
00000000
FE00FF80
FF00FF80
3F003E00
1F801C00
1FC01C00
1FC01C00
1FE01C00
1FF01C00
1DF81C00
1DF81C00
1CFC1C00
1C7E1C00
1C7E1C00
1C3F1C00
1C1F9C00
1C1FDC00
1C0FDC00
1C07FC00
1C03FC00
1C03FC00
1C01FC00
1C00FC00
3E00FC00
FF807C00
FF803C00
ENDCHAR
STARTCHAR uni01F9
ENCODING 505
SWIDTH 654 0
DWIDTH 22 0
BBX 22 24 0 0
BITMAP
07C000
01C000
00E000
007000
003800
000000
FF0F00
FF3FC0
7F7FC0
1F7FE0
1FC3E0
1F83E0
1F03E0
1F03E0
1F03E0
1F03E0
1F03E0
1F03E0
1F03E0
1F03E0
1F03E0
3F87F0
FFFFFC
FFFFFC
ENDCHAR
STARTCHAR Aringacute
ENCODING 506
SWIDTH 795 0
DWIDTH 27 0
BBX 27 38 0 0
BITMAP
0003E000
00078000
00070000
000E0000
001C0000
00000000
000E0000
001B0000
00110000
001B0000
000E0000
00000000
00000000
000E0000
000E0000
001F0000
001F0000
003F8000
003F8000
003FC000
006FC000
0067C000
00C7E000
00C3E000
0183F000
0181F000
0301F800
0300F800
07FFFC00
07FFFC00
0E007E00
0C003E00
1C003F00
18001F00
38001F80
78001F80
FE007FE0
FE007FE0
ENDCHAR
STARTCHAR aringacute
ENCODING 507
SWIDTH 556 0
DWIDTH 19 0
BBX 17 31 1 0
BITMAP
007C00
00F000
00E000
01C000
038000
000000
01C000
036000
022000
036000
01C000
000000
000000
0FF000
3FF800
387C00
383E00
383E00
003E00
003E00
0FFE00
3FFE00
7E3E00
FC3E00
F83E00
F83E00
F83E00
FC7E00
7FDE00
7F9F80
1F0F80
ENDCHAR
STARTCHAR AEacute
ENCODING 508
SWIDTH 959 0
DWIDTH 33 0
BBX 31 31 0 0
BITMAP
00001F00
00003C00
00003800
00007000
0000E000
00000000
0001FFFC
0003FFFC
0003F03C
0007F01C
000FF01C
000DF000
001DF000
0019F000
0031F000
0071F038
0061F038
00E1FFF8
00C1FFF8
0181F038
0181F038
0301F000
07FFF000
07FFF000
0C01F000
0C01F000
1801F006
3001F006
7003F80E
FC0FFFFE
FC0FFFFE
ENDCHAR
STARTCHAR aeacute
ENCODING 509
SWIDTH 858 0
DWIDTH 29 0
BBX 27 24 1 0
BITMAP
0003E000
00078000
00070000
000E0000
001C0000
00000000
0FF07C00
3FF9FF00
383F8780
381F03C0
001F03C0
001F03E0
001F03E0
07FFFFE0
3FFFFFE0
7E1F0000
FC1F0000
F81F0000
F81F8000
F81FC000
FC3FE020
7FE7FFE0
3FC3FFE0
1F00FF00
ENDCHAR
STARTCHAR Oslashacute
ENCODING 510
SWIDTH 810 0
DWIDTH 28 0
BBX 25 31 1 0
BITMAP
0007C000
000F0000
000E0000
001C0000
00380000
00000000
00FF0380
03FFE700
0FC0F600
1F007C00
3E003E00
3E003E00
7C007F00
7C00FF00
F801CF80
F8038F80
F8070F80
F80E0F80
F81C0F80
F8380F80
F8700F80
F8E00F80
F9C00F00
7F801F00
7F001F00
7E001E00
3E003E00
1F007C00
3781F800
73FFE000
E07F0000
ENDCHAR
STARTCHAR oslashacute
ENCODING 511
SWIDTH 617 0
DWIDTH 21 0
BBX 21 24 0 0
BITMAP
001F00
003C00
003800
007000
00E000
000000
01FC38
07FF20
1F8FC0
1E03C0
3E03E0
3C07E0
7C0FF0
7C1DF0
7C79F0
7CE1F0
7DC1F0
7F81F0
3F03E0
3E03E0
1E07C0
1F0F80
23FF00
E1FC00
ENDCHAR
STARTCHAR uni0200
ENCODING 512
SWIDTH 795 0
DWIDTH 27 0
BBX 27 31 0 0
BITMAP
03DE0000
00E60000
00630000
00318000
0018C000
00000000
000E0000
000E0000
001F0000
001F0000
003F8000
003F8000
003FC000
006FC000
0067C000
00C7E000
00C3E000
0183F000
0181F000
0301F800
0300F800
07FFFC00
07FFFC00
0E007E00
0C003E00
1C003F00
18001F00
38001F80
78001F80
FE007FE0
FE007FE0
ENDCHAR
STARTCHAR uni0201
ENCODING 513
SWIDTH 556 0
DWIDTH 19 0
BBX 17 24 1 0
BITMAP
7BC000
1CC000
0C6000
063000
031800
000000
0FF000
3FF800
387C00
383E00
383E00
003E00
003E00
0FFE00
3FFE00
7E3E00
FC3E00
F83E00
F83E00
F83E00
FC7E00
7FDE00
7F9F80
1F0F80
ENDCHAR
STARTCHAR uni0202
ENCODING 514
SWIDTH 795 0
DWIDTH 27 0
BBX 27 31 0 0
BITMAP
001F8000
003FC000
007FE000
00E07000
00C03000
00000000
000E0000
000E0000
001F0000
001F0000
003F8000
003F8000
003FC000
006FC000
0067C000
00C7E000
00C3E000
0183F000
0181F000
0301F800
0300F800
07FFFC00
07FFFC00
0E007E00
0C003E00
1C003F00
18001F00
38001F80
78001F80
FE007FE0
FE007FE0
ENDCHAR
STARTCHAR uni0203
ENCODING 515
SWIDTH 556 0
DWIDTH 19 0
BBX 17 24 1 0
BITMAP
07E000
0FF000
1FF800
381C00
300C00
000000
0FF000
3FF800
387C00
383E00
383E00
003E00
003E00
0FFE00
3FFE00
7E3E00
FC3E00
F83E00
F83E00
F83E00
FC7E00
7FDE00
7F9F80
1F0F80
ENDCHAR
STARTCHAR uni0204
ENCODING 516
SWIDTH 601 0
DWIDTH 20 0
BBX 19 31 1 0
BITMAP
3DE000
0E6000
063000
031800
018C00
000000
FFFFE0
FFFFE0
3F01E0
1F00E0
1F00E0
1F0000
1F0000
1F0000
1F0000
1F0300
1F0300
1FFF00
1FFF00
1F0300
1F0300
1F0000
1F0000
1F0000
1F0000
1F0000
1F00E0
1F00E0
3F80E0
FFFFE0
FFFFE0
ENDCHAR
STARTCHAR uni0205
ENCODING 517
SWIDTH 568 0
DWIDTH 19 0
BBX 16 24 1 0
BITMAP
7BC0
1CC0
0C60
0630
0318
0000
07F0
1FF8
3C3C
7C1E
781E
781F
F81F
FFFF
FFFF
F800
F800
F800
7C00
7E00
3F01
1FFF
0FFF
03FC
ENDCHAR
STARTCHAR uni0206
ENCODING 518
SWIDTH 601 0
DWIDTH 20 0
BBX 19 31 1 0
BITMAP
03F000
07F800
0FFC00
1C0E00
180600
000000
FFFFE0
FFFFE0
3F01E0
1F00E0
1F00E0
1F0000
1F0000
1F0000
1F0000
1F0300
1F0300
1FFF00
1FFF00
1F0300
1F0300
1F0000
1F0000
1F0000
1F0000
1F0000
1F00E0
1F00E0
3F80E0
FFFFE0
FFFFE0
ENDCHAR
STARTCHAR uni0207
ENCODING 519
SWIDTH 568 0
DWIDTH 19 0
BBX 16 24 1 0
BITMAP
07E0
0FF0
1FF8
381C
300C
0000
07F0
1FF8
3C3C
7C1E
781E
781F
F81F
FFFF
FFFF
F800
F800
F800
7C00
7E00
3F01
1FFF
0FFF
03FC
ENDCHAR
STARTCHAR uni0208
ENCODING 520
SWIDTH 349 0
DWIDTH 12 0
BBX 13 31 -2 0
BITMAP
F780
3980
18C0
0C60
0630
0000
3FF8
3FF8
0FE0
07C0
07C0
07C0
07C0
07C0
07C0
07C0
07C0
07C0
07C0
07C0
07C0
07C0
07C0
07C0
07C0
07C0
07C0
07C0
0FE0
3FF8
3FF8
ENDCHAR
STARTCHAR uni0209
ENCODING 521
SWIDTH 325 0
DWIDTH 11 0
BBX 13 24 -2 0
BITMAP
F780
3980
18C0
0C60
0630
0000
3FC0
3FC0
0FC0
07C0
07C0
07C0
07C0
07C0
07C0
07C0
07C0
07C0
07C0
07C0
07C0
0FE0
3FF8
3FF8
ENDCHAR
STARTCHAR uni020A
ENCODING 522
SWIDTH 349 0
DWIDTH 12 0
BBX 12 31 0 0
BITMAP
1F80
3FC0
7FE0
E070
C030
0000
FFE0
FFE0
3F80
1F00
1F00
1F00
1F00
1F00
1F00
1F00
1F00
1F00
1F00
1F00
1F00
1F00
1F00
1F00
1F00
1F00
1F00
1F00
3F80
FFE0
FFE0
ENDCHAR
STARTCHAR uni020B
ENCODING 523
SWIDTH 325 0
DWIDTH 11 0
BBX 12 24 -1 0
BITMAP
1F80
3FC0
7FE0
E070
C030
0000
7F80
7F80
1F80
0F80
0F80
0F80
0F80
0F80
0F80
0F80
0F80
0F80
0F80
0F80
0F80
1FC0
7FF0
7FF0
ENDCHAR
STARTCHAR uni020C
ENCODING 524
SWIDTH 810 0
DWIDTH 28 0
BBX 25 31 1 0
BITMAP
07BC0000
01CC0000
00C60000
00630000
00318000
00000000
00FF8000
03FFE000
0FC1F800
1F007C00
3E003E00
3C001E00
7C001F00
7C001F00
F8000F80
F8000F80
F8000F80
F8000F80
F8000F80
F8000F80
F8000F80
F8000F80
F8000F80
7C001F00
7C001F00
3E003E00
3E003E00
1F007C00
0FC1F800
03FFE000
00FF8000
ENDCHAR
STARTCHAR uni020D
ENCODING 525
SWIDTH 617 0
DWIDTH 21 0
BBX 19 24 1 0
BITMAP
3DE000
0E6000
063000
031800
018C00
000000
03F800
0FFE00
3F1F80
3C0780
7C07C0
7803C0
F803E0
F803E0
F803E0
F803E0
F803E0
F803E0
7803C0
7C07C0
3C0780
3F1F80
0FFE00
03F800
ENDCHAR
STARTCHAR uni020E
ENCODING 526
SWIDTH 810 0
DWIDTH 28 0
BBX 25 31 1 0
BITMAP
003F0000
007F8000
00FFC000
01C0E000
01806000
00000000
00FF8000
03FFE000
0FC1F800
1F007C00
3E003E00
3C001E00
7C001F00
7C001F00
F8000F80
F8000F80
F8000F80
F8000F80
F8000F80
F8000F80
F8000F80
F8000F80
F8000F80
7C001F00
7C001F00
3E003E00
3E003E00
1F007C00
0FC1F800
03FFE000
00FF8000
ENDCHAR
STARTCHAR uni020F
ENCODING 527
SWIDTH 617 0
DWIDTH 21 0
BBX 19 24 1 0
BITMAP
01F800
03FC00
07FE00
0E0700
0C0300
000000
03F800
0FFE00
3F1F80
3C0780
7C07C0
7803C0
F803E0
F803E0
F803E0
F803E0
F803E0
F803E0
7803C0
7C07C0
3C0780
3F1F80
0FFE00
03F800
ENDCHAR
STARTCHAR uni0210
ENCODING 528
SWIDTH 720 0
DWIDTH 24 0
BBX 24 31 1 0
BITMAP
1EF000
073000
031800
018C00
00C600
000000
FFFF00
FFFFC0
3F07E0
1F03E0
1F01F0
1F01F0
1F01F0
1F01F0
1F01F0
1F03E0
1F07E0
1F0FC0
1FFF80
1FFF00
1F3F00
1F1F80
1F0FC0
1F0FC0
1F07E0
1F03F0
1F03F0
1F01F8
3F81FC
FFC0FF
FFC07F
ENDCHAR
STARTCHAR uni0211
ENCODING 529
SWIDTH 462 0
DWIDTH 16 0
BBX 15 24 0 0
BITMAP
F780
3980
18C0
0C60
0630
0000
FF0E
FF3E
3F7E
1FFE
1F8E
1F0E
1F00
1F00
1F00
1F00
1F00
1F00
1F00
1F00
1F00
3F80
FFE0
FFE0
ENDCHAR
STARTCHAR uni0212
ENCODING 530
SWIDTH 720 0
DWIDTH 24 0
BBX 24 31 1 0
BITMAP
00FC00
01FE00
03FF00
070380
060180
000000
FFFF00
FFFFC0
3F07E0
1F03E0
1F01F0
1F01F0
1F01F0
1F01F0
1F01F0
1F03E0
1F07E0
1F0FC0
1FFF80
1FFF00
1F3F00
1F1F80
1F0FC0
1F0FC0
1F07E0
1F03F0
1F03F0
1F01F8
3F81FC
FFC0FF
FFC07F
ENDCHAR
STARTCHAR uni0213
ENCODING 531
SWIDTH 462 0
DWIDTH 16 0
BBX 15 24 0 0
BITMAP
07E0
0FF0
1FF8
381C
300C
0000
FF0E
FF3E
3F7E
1FFE
1F8E
1F0E
1F00
1F00
1F00
1F00
1F00
1F00
1F00
1F00
1F00
3F80
FFE0
FFE0
ENDCHAR
STARTCHAR uni0214
ENCODING 532
SWIDTH 747 0
DWIDTH 25 0
BBX 25 31 0 0
BITMAP
07BC0000
01CC0000
00C60000
00630000
00318000
00000000
FFE0FF80
FFE0FF80
3F803E00
1F001C00
1F001C00
1F001C00
1F001C00
1F001C00
1F001C00
1F001C00
1F001C00
1F001C00
1F001C00
1F001C00
1F001C00
1F001C00
1F001C00
1F001C00
1F001C00
0F003C00
0F803800
0F807800
07E0F000
03FFE000
007F8000
ENDCHAR
STARTCHAR uni0215
ENCODING 533
SWIDTH 654 0
DWIDTH 22 0
BBX 22 24 0 0
BITMAP
1EF000
073000
031800
018C00
00C600
000000
FF1FE0
FF1FE0
3F07E0
1F03E0
1F03E0
1F03E0
1F03E0
1F03E0
1F03E0
1F03E0
1F03E0
1F03E0
1F07E0
1F0FE0
1FFBE0
0FFBF8
0FF3FC
03C3FC
ENDCHAR
STARTCHAR uni0216
ENCODING 534
SWIDTH 747 0
DWIDTH 25 0
BBX 25 31 0 0
BITMAP
007E0000
00FF0000
01FF8000
0381C000
0300C000
00000000
FFE0FF80
FFE0FF80
3F803E00
1F001C00
1F001C00
1F001C00
1F001C00
1F001C00
1F001C00
1F001C00
1F001C00
1F001C00
1F001C00
1F001C00
1F001C00
1F001C00
1F001C00
1F001C00
1F001C00
0F003C00
0F803800
0F807800
07E0F000
03FFE000
007F8000
ENDCHAR
STARTCHAR uni0217
ENCODING 535
SWIDTH 654 0
DWIDTH 22 0
BBX 22 24 0 0
BITMAP
01F800
03FC00
07FE00
0E0700
0C0300
000000
FF1FE0
FF1FE0
3F07E0
1F03E0
1F03E0
1F03E0
1F03E0
1F03E0
1F03E0
1F03E0
1F03E0
1F03E0
1F07E0
1F0FE0
1FFBE0
0FFBF8
0FF3FC
03C3FC
ENDCHAR
STARTCHAR Scommaaccent
ENCODING 536
SWIDTH 556 0
DWIDTH 19 0
BBX 16 38 2 -13
BITMAP
07F8
1FFE
3E1E
7C0E
F80E
F80E
F800
FC00
FE00
7F00
7FC0
3FF0
0FF8
03FC
01FE
007F
003F
001F
001F
E01F
E01F
E03E
F87C
FFF8
3FE0
0000
03E0
03E0
03E0
03E0
03E0
03E0
01E0
01E0
01C0
03C0
0380
0300
ENDCHAR
STARTCHAR scommaaccent
ENCODING 537
SWIDTH 525 0
DWIDTH 18 0
BBX 15 31 2 -13
BITMAP
0FE0
3FF8
7C78
F838
F838
FC38
FF00
7FE0
7FF8
3FFC
0FFE
01FE
E07E
E03E
E03E
F87C
FFF8
3FE0
0000
07C0
07C0
07C0
07C0
07C0
07C0
03C0
03C0
0380
0780
0700
0600
ENDCHAR
STARTCHAR Tcommaaccent
ENCODING 538
SWIDTH 714 0
DWIDTH 24 0
BBX 23 38 1 -13
BITMAP
FFFFFE
FFFFFE
E07C1E
E07C0E
E07C0E
007C00
007C00
007C00
007C00
007C00
007C00
007C00
007C00
007C00
007C00
007C00
007C00
007C00
007C00
007C00
007C00
007C00
00FE00
03FF80
03FF80
000000
007C00
007C00
007C00
007C00
007C00
007C00
003C00
003C00
003800
007800
007000
006000
ENDCHAR
STARTCHAR tcommaaccent
ENCODING 539
SWIDTH 389 0
DWIDTH 13 0
BBX 11 36 1 -13
BITMAP
0600
3E00
3E00
3E00
3E00
FFE0
FFE0
3E00
3E00
3E00
3E00
3E00
3E00
3E00
3E00
3E00
3E00
3E00
3E00
3F00
1FE0
1FE0
07E0
0000
1F00
1F00
1F00
1F00
1F00
1F00
0F00
0F00
0E00
1E00
1C00
1800
ENDCHAR
STARTCHAR uni021E
ENCODING 542
SWIDTH 798 0
DWIDTH 27 0
BBX 26 31 1 0
BITMAP
01C0E000
00E1C000
00738000
003F0000
003F0000
00000000
FFE1FFC0
FFE1FFC0
3F807F00
1F003E00
1F003E00
1F003E00
1F003E00
1F003E00
1F003E00
1F003E00
1F003E00
1FFFFE00
1FFFFE00
1F003E00
1F003E00
1F003E00
1F003E00
1F003E00
1F003E00
1F003E00
1F003E00
1F003E00
3F807F00
FFE1FFC0
FFE1FFC0
ENDCHAR
STARTCHAR uni021F
ENCODING 543
SWIDTH 654 0
DWIDTH 22 0
BBX 22 32 0 0
BITMAP
703800
387000
1CE000
0FC000
0FC000
000000
FF0000
FF0000
3F0000
1F0000
1F0000
1F0000
1F0000
1F0000
1F0F00
1F3FC0
1F7FC0
1F7FE0
1FC3E0
1F83E0
1F03E0
1F03E0
1F03E0
1F03E0
1F03E0
1F03E0
1F03E0
1F03E0
1F03E0
3F87F0
FFFFFC
FFFFFC
ENDCHAR
STARTCHAR uni0226
ENCODING 550
SWIDTH 795 0
DWIDTH 27 0
BBX 27 31 0 0
BITMAP
000F0000
000F0000
000F0000
000F0000
000F0000
00000000
000E0000
000E0000
001F0000
001F0000
003F8000
003F8000
003FC000
006FC000
0067C000
00C7E000
00C3E000
0183F000
0181F000
0301F800
0300F800
07FFFC00
07FFFC00
0E007E00
0C003E00
1C003F00
18001F00
38001F80
78001F80
FE007FE0
FE007FE0
ENDCHAR
STARTCHAR uni0227
ENCODING 551
SWIDTH 556 0
DWIDTH 19 0
BBX 17 24 1 0
BITMAP
03C000
03C000
03C000
03C000
03C000
000000
0FF000
3FF800
387C00
383E00
383E00
003E00
003E00
0FFE00
3FFE00
7E3E00
FC3E00
F83E00
F83E00
F83E00
FC7E00
7FDE00
7F9F80
1F0F80
ENDCHAR
STARTCHAR uni0228
ENCODING 552
SWIDTH 601 0
DWIDTH 20 0
BBX 19 32 1 -7
BITMAP
FFFFE0
FFFFE0
3F01E0
1F00E0
1F00E0
1F0000
1F0000
1F0000
1F0000
1F0300
1F0300
1FFF00
1FFF00
1F0300
1F0300
1F0000
1F0000
1F0000
1F0000
1F0000
1F00E0
1F00E0
3F80E0
FFFFE0
FFFFE0
006000
00C000
00F000
007800
007800
01F800
01F000
ENDCHAR
STARTCHAR uni0229
ENCODING 553
SWIDTH 568 0
DWIDTH 19 0
BBX 16 25 1 -7
BITMAP
07F0
1FF8
3C3C
7C1E
781E
781F
F81F
FFFF
FFFF
F800
F800
F800
7C00
7E00
3F01
1FFF
0FFF
03FC
00C0
0180
01E0
00F0
00F0
03F0
03E0
ENDCHAR
STARTCHAR uni022A
ENCODING 554
SWIDTH 810 0
DWIDTH 28 0
BBX 25 35 1 0
BITMAP
01FF8000
01FF8000
01FF8000
00000000
01C38000
01C38000
01C38000
01C38000
00000000
00000000
00FF8000
03FFE000
0FC1F800
1F007C00
3E003E00
3C001E00
7C001F00
7C001F00
F8000F80
F8000F80
F8000F80
F8000F80
F8000F80
F8000F80
F8000F80
F8000F80
F8000F80
7C001F00
7C001F00
3E003E00
3E003E00
1F007C00
0FC1F800
03FFE000
00FF8000
ENDCHAR
STARTCHAR uni022B
ENCODING 555
SWIDTH 617 0
DWIDTH 21 0
BBX 19 28 1 0
BITMAP
0FFC00
0FFC00
0FFC00
000000
0E1C00
0E1C00
0E1C00
0E1C00
000000
000000
03F800
0FFE00
3F1F80
3C0780
7C07C0
7803C0
F803E0
F803E0
F803E0
F803E0
F803E0
F803E0
7803C0
7C07C0
3C0780
3F1F80
0FFE00
03F800
ENDCHAR
STARTCHAR uni022C
ENCODING 556
SWIDTH 810 0
DWIDTH 28 0
BBX 25 36 1 0
BITMAP
01FF8000
01FF8000
01FF8000
00000000
00F0C000
01FFC000
03FFC000
03FF8000
03070000
00000000
00000000
00FF8000
03FFE000
0FC1F800
1F007C00
3E003E00
3C001E00
7C001F00
7C001F00
F8000F80
F8000F80
F8000F80
F8000F80
F8000F80
F8000F80
F8000F80
F8000F80
F8000F80
7C001F00
7C001F00
3E003E00
3E003E00
1F007C00
0FC1F800
03FFE000
00FF8000
ENDCHAR
STARTCHAR uni022D
ENCODING 557
SWIDTH 617 0
DWIDTH 21 0
BBX 19 29 1 0
BITMAP
0FFC00
0FFC00
0FFC00
000000
078600
0FFE00
1FFE00
1FFC00
183800
000000
000000
03F800
0FFE00
3F1F80
3C0780
7C07C0
7803C0
F803E0
F803E0
F803E0
F803E0
F803E0
F803E0
7803C0
7C07C0
3C0780
3F1F80
0FFE00
03F800
ENDCHAR
STARTCHAR uni022E
ENCODING 558
SWIDTH 810 0
DWIDTH 28 0
BBX 25 31 1 0
BITMAP
001E0000
001E0000
001E0000
001E0000
001E0000
00000000
00FF8000
03FFE000
0FC1F800
1F007C00
3E003E00
3C001E00
7C001F00
7C001F00
F8000F80
F8000F80
F8000F80
F8000F80
F8000F80
F8000F80
F8000F80
F8000F80
F8000F80
7C001F00
7C001F00
3E003E00
3E003E00
1F007C00
0FC1F800
03FFE000
00FF8000
ENDCHAR
STARTCHAR uni022F
ENCODING 559
SWIDTH 617 0
DWIDTH 21 0
BBX 19 24 1 0
BITMAP
00F000
00F000
00F000
00F000
00F000
000000
03F800
0FFE00
3F1F80
3C0780
7C07C0
7803C0
F803E0
F803E0
F803E0
F803E0
F803E0
F803E0
7803C0
7C07C0
3C0780
3F1F80
0FFE00
03F800
ENDCHAR
STARTCHAR uni0230
ENCODING 560
SWIDTH 810 0
DWIDTH 28 0
BBX 25 35 1 0
BITMAP
00FFC000
00FFC000
00FFC000
00000000
001E0000
001E0000
001E0000
001E0000
001E0000
00000000
00FF8000
03FFE000
0FC1F800
1F007C00
3E003E00
3C001E00
7C001F00
7C001F00
F8000F80
F8000F80
F8000F80
F8000F80
F8000F80
F8000F80
F8000F80
F8000F80
F8000F80
7C001F00
7C001F00
3E003E00
3E003E00
1F007C00
0FC1F800
03FFE000
00FF8000
ENDCHAR
STARTCHAR uni0231
ENCODING 561
SWIDTH 617 0
DWIDTH 21 0
BBX 19 28 1 0
BITMAP
07FE00
07FE00
07FE00
000000
00F000
00F000
00F000
00F000
00F000
000000
03F800
0FFE00
3F1F80
3C0780
7C07C0
7803C0
F803E0
F803E0
F803E0
F803E0
F803E0
F803E0
7803C0
7C07C0
3C0780
3F1F80
0FFE00
03F800
ENDCHAR
STARTCHAR uni0232
ENCODING 562
SWIDTH 717 0
DWIDTH 24 0
BBX 25 29 0 0
BITMAP
01FF8000
01FF8000
01FF8000
00000000
FFE03F80
FFE03F80
3F800E00
1F800C00
0FC01C00
0FC03800
07E03000
03F07000
03F06000
01F8C000
00FDC000
00FD8000
007F0000
003F0000
003E0000
003E0000
003E0000
003E0000
003E0000
003E0000
003E0000
003E0000
007F0000
01FFC000
01FFC000
ENDCHAR
STARTCHAR uni0233
ENCODING 563
SWIDTH 654 0
DWIDTH 22 0
BBX 22 29 0 -7
BITMAP
07FE00
07FE00
07FE00
000000
FFC0FC
FFC0FC
3F0070
1F0060
1F8060
0F80C0
0FC0C0
07C180
07E380
07E300
03E700
03F600
01FE00
01FC00
00F800
00F800
007000
007000
002000
006000
00C000
01C000
038000
078000
1F0000
ENDCHAR
STARTCHAR uni0250
ENCODING 592
SWIDTH 556 0
DWIDTH 19 0
BBX 17 18 1 0
BITMAP
F87C00
FCFF00
3DFF00
3F1F80
3E0F80
3E0F80
3E0F80
3E1F80
3E3F00
3FFE00
3FF800
3E0000
3E0000
3E0E00
3E0E00
1F0E00
0FFE00
07F800
ENDCHAR
STARTCHAR uni0254
ENCODING 596
SWIDTH 541 0
DWIDTH 18 0
BBX 16 18 1 0
BITMAP
7FC0
FFF0
F07C
E03C
E03E
E01E
001F
001F
001F
001F
001F
001F
003E
007E
80FC
FFF8
FFF0
3FC0
ENDCHAR
STARTCHAR uni0258
ENCODING 600
SWIDTH 568 0
DWIDTH 19 0
BBX 16 18 1 0
BITMAP
0FE0
1FF8
3C3C
783E
781E
F81E
F81F
FFFF
FFFF
001F
001F
001F
003E
007E
80FC
FFF8
FFF0
3FC0
ENDCHAR
STARTCHAR uni0259
ENCODING 601
SWIDTH 568 0
DWIDTH 19 0
BBX 16 18 1 0
BITMAP
3FC0
FFF0
FFF8
80FC
007E
003E
001F
001F
001F
FFFF
FFFF
F81F
F81E
781E
783E
3C3C
1FF8
0FE0
ENDCHAR
STARTCHAR uni025F
ENCODING 607
SWIDTH 416 0
DWIDTH 14 0
BBX 14 26 1 -8
BITMAP
1FFC
1FFC
07F0
03E0
03E0
03E0
03E0
03E0
03E0
03E0
03E0
03E0
03E0
03E0
03E0
03E0
3FFC
3FFC
03E0
03E0
03E0
E3E0
E3E0
E7C0
FF80
7F00
ENDCHAR
STARTCHAR uni0265
ENCODING 613
SWIDTH 654 0
DWIDTH 22 0
BBX 22 26 0 -8
BITMAP
FFFFFC
FFFFFC
3F87F0
1F03E0
1F03E0
1F03E0
1F03E0
1F03E0
1F03E0
1F03E0
1F03E0
1F03E0
1F07E0
1F0FE0
1FFBE0
0FFBE0
0FF3E0
03C3E0
0003E0
0003E0
0003E0
0003E0
0003E0
0003F0
0003FC
0003FC
ENDCHAR
STARTCHAR uni0275
ENCODING 629
SWIDTH 617 0
DWIDTH 21 0
BBX 19 18 1 0
BITMAP
03F800
0FFE00
3F1F80
3C0780
7C07C0
7803C0
F803E0
FFFFE0
FFFFE0
FFFFE0
F803E0
F803E0
7803C0
7C07C0
3C0780
3F1F80
0FFE00
03F800
ENDCHAR
STARTCHAR uni0279
ENCODING 633
SWIDTH 462 0
DWIDTH 16 0
BBX 15 18 0 0
BITMAP
0FFE
0FFE
03F8
01F0
01F0
01F0
01F0
01F0
01F0
01F0
01F0
01F0
E1F0
E3F0
FFF0
FDF8
F9FE
E1FE
ENDCHAR
STARTCHAR uni0287
ENCODING 647
SWIDTH 389 0
DWIDTH 13 0
BBX 11 23 1 0
BITMAP
FC00
FF00
FF00
1F80
0F80
0F80
0F80
0F80
0F80
0F80
0F80
0F80
0F80
0F80
0F80
0F80
FFE0
FFE0
0F80
0F80
0F80
0F80
0C00
ENDCHAR
STARTCHAR uni0288
ENCODING 648
SWIDTH 389 0
DWIDTH 13 0
BBX 13 30 1 -7
BITMAP
0600
3E00
3E00
3E00
3E00
FFE0
FFE0
3E00
3E00
3E00
3E00
3E00
3E00
3E00
3E00
3E00
3E00
3E00
3E00
3E00
3E00
3E00
3E00
3E00
3E38
3E38
1E38
1F78
0FF8
07F0
ENDCHAR
STARTCHAR uni0289
ENCODING 649
SWIDTH 654 0
DWIDTH 22 0
BBX 22 18 0 0
BITMAP
FF1FE0
FF1FE0
3F07E0
1F03E0
1F03E0
1F03E0
1F03E0
FFFFFC
FFFFFC
FFFFFC
1F03E0
1F03E0
1F07E0
1F0FE0
1FFBE0
0FFBF8
0FF3FC
03C3FC
ENDCHAR
STARTCHAR uni028C
ENCODING 652
SWIDTH 657 0
DWIDTH 22 0
BBX 22 18 0 0
BITMAP
003000
007800
007800
00FC00
00FC00
01FE00
01BE00
03BF00
031F00
071F80
060F80
0E0FC0
0C07C0
1C07E0
1803E0
3803F0
FE0FFC
FE0FFC
ENDCHAR
STARTCHAR uni028D
ENCODING 653
SWIDTH 880 0
DWIDTH 30 0
BBX 30 18 0 0
BITMAP
00E00C00
00E00E00
01E01E00
01F01F00
03F03F00
03F83F00
03F87F80
07FC6F80
067CEF80
0E7CC7C0
0C7FC7C0
0C3F87E0
1C3F83E0
181F83E0
181F03F0
381F01F8
FE0E0FFC
FE0E0FFC
ENDCHAR
STARTCHAR uni028E
ENCODING 654
SWIDTH 654 0
DWIDTH 22 0
BBX 22 25 0 0
BITMAP
0003E0
000780
000700
000E00
000C00
001800
001000
003800
003800
007C00
007C00
00FE00
01FE00
01BF00
039F00
031F80
071F80
060F80
0C0FC0
0C07C0
1807E0
1803E0
3803F0
FC0FFC
FC0FFC
ENDCHAR
STARTCHAR uni029E
ENCODING 670
SWIDTH 654 0
DWIDTH 21 0
BBX 22 26 0 -8
BITMAP
FF0FFC
FF0FFC
3F83F0
1FC3E0
0FE3E0
07E3E0
03F3E0
01FBE0
00FFE0
00FFE0
007BE0
0073E0
01E3E0
0383E0
0703E0
0E03E0
3F83E0
3F83E0
0003E0
0003E0
0003E0
0003E0
0003E0
0003F0
0003FC
0003FC
ENDCHAR
STARTCHAR uni02BB
ENCODING 699
SWIDTH 265 0
DWIDTH 9 0
BBX 5 11 2 15
BITMAP
38
78
70
F0
F0
F8
F8
F8
F8
F8
F8
ENDCHAR
STARTCHAR afii57929
ENCODING 700
SWIDTH 265 0
DWIDTH 9 0
BBX 5 11 2 15
BITMAP
F8
F8
F8
F8
F8
78
78
78
70
F0
E0
ENDCHAR
STARTCHAR afii64937
ENCODING 701
SWIDTH 265 0
DWIDTH 9 0
BBX 5 11 2 15
BITMAP
F8
F8
F8
F8
F8
F0
F0
F0
70
78
38
ENDCHAR
STARTCHAR circumflex
ENCODING 710
SWIDTH 617 0
DWIDTH 21 0
BBX 12 5 4 21
BITMAP
1F80
1F80
39C0
70E0
E070
ENDCHAR
STARTCHAR caron
ENCODING 711
SWIDTH 617 0
DWIDTH 21 0
BBX 12 5 4 21
BITMAP
E070
70E0
39C0
1F80
1F80
ENDCHAR
STARTCHAR uni02C8
ENCODING 712
SWIDTH 253 0
DWIDTH 9 0
BBX 6 11 1 15
BITMAP
FC
FC
FC
78
78
78
78
78
30
30
30
ENDCHAR
STARTCHAR macron
ENCODING 713
SWIDTH 617 0
DWIDTH 21 0
BBX 10 3 5 22
BITMAP
FFC0
FFC0
FFC0
ENDCHAR
STARTCHAR uni02CA
ENCODING 714
SWIDTH 617 0
DWIDTH 21 0
BBX 8 5 8 21
BITMAP
1F
3C
38
70
E0
ENDCHAR
STARTCHAR uni02CB
ENCODING 715
SWIDTH 617 0
DWIDTH 21 0
BBX 8 5 5 21
BITMAP
F8
38
1C
0E
07
ENDCHAR
STARTCHAR uni02CD
ENCODING 717
SWIDTH 617 0
DWIDTH 21 0
BBX 10 3 5 -4
BITMAP
FFC0
FFC0
FFC0
ENDCHAR
STARTCHAR uni02CE
ENCODING 718
SWIDTH 617 0
DWIDTH 21 0
BBX 8 5 5 -6
BITMAP
F8
38
1C
0E
07
ENDCHAR
STARTCHAR uni02CF
ENCODING 719
SWIDTH 617 0
DWIDTH 21 0
BBX 8 5 8 -6
BITMAP
1F
3C
38
70
E0
ENDCHAR
STARTCHAR breve
ENCODING 728
SWIDTH 617 0
DWIDTH 21 0
BBX 12 5 4 21
BITMAP
C030
E070
7FE0
3FC0
1F80
ENDCHAR
STARTCHAR dotaccent
ENCODING 729
SWIDTH 617 0
DWIDTH 21 0
BBX 4 5 9 20
BITMAP
F0
F0
F0
F0
F0
ENDCHAR
STARTCHAR ring
ENCODING 730
SWIDTH 617 0
DWIDTH 21 0
BBX 5 5 8 21
BITMAP
70
D8
88
D8
70
ENDCHAR
STARTCHAR ogonek
ENCODING 731
SWIDTH 617 0
DWIDTH 21 0
BBX 6 5 8 -6
BITMAP
38
E0
E0
FC
7C
ENDCHAR
STARTCHAR tilde
ENCODING 732
SWIDTH 617 0
DWIDTH 21 0
BBX 12 5 4 20
BITMAP
3C30
7FF0
FFF0
FFE0
C1C0
ENDCHAR
STARTCHAR hungarumlaut
ENCODING 733
SWIDTH 617 0
DWIDTH 21 0
BBX 12 5 6 21
BITMAP
1EF0
19C0
3180
6300
C600
ENDCHAR
STARTCHAR uni02EE
ENCODING 750
SWIDTH 470 0
DWIDTH 16 0
BBX 12 10 2 16
BITMAP
F9F0
F9F0
F9F0
F9F0
F9F0
78F0
78F0
70E0
E1C0
C180
ENDCHAR
STARTCHAR uni037E
ENCODING 894
SWIDTH 265 0
DWIDTH 9 0
BBX 5 24 2 -6
BITMAP
F8
F8
F8
F8
F8
00
00
00
00
00
00
00
00
F8
F8
F8
F8
F8
78
78
78
70
E0
C0
ENDCHAR
STARTCHAR tonos
ENCODING 900
SWIDTH 617 0
DWIDTH 21 0
BBX 8 5 8 21
BITMAP
1F
3C
38
70
E0
ENDCHAR
STARTCHAR dieresistonos
ENCODING 901
SWIDTH 617 0
DWIDTH 21 0
BBX 10 10 5 21
BITMAP
07C0
0F00
0E00
1C00
3800
0000
E1C0
E1C0
E1C0
E1C0
ENDCHAR
STARTCHAR anoteleia
ENCODING 903
SWIDTH 623 0
DWIDTH 21 0
BBX 4 5 9 7
BITMAP
F0
F0
F0
F0
F0
ENDCHAR
STARTCHAR mu
ENCODING 956
SWIDTH 705 0
DWIDTH 24 0
BBX 22 24 1 -6
BITMAP
FF1FE0
FF1FE0
3F07E0
1F03E0
1F03E0
1F03E0
1F03E0
1F03E0
1F03E0
1F03E0
1F03E0
1F03E0
1F03E0
1F0FE0
1FFFE0
1FFBF0
1FF3FC
1FE3FC
1F0000
1F0000
1F0000
1F0000
1F0000
1F0000
ENDCHAR
STARTCHAR uni1E00
ENCODING 7680
SWIDTH 795 0
DWIDTH 27 0
BBX 27 31 0 -6
BITMAP
000E0000
000E0000
001F0000
001F0000
003F8000
003F8000
003FC000
006FC000
0067C000
00C7E000
00C3E000
0183F000
0181F000
0301F800
0300F800
07FFFC00
07FFFC00
0E007E00
0C003E00
1C003F00
18001F00
38001F80
78001F80
FE007FE0
FE007FE0
00000000
00070000
000D8000
00088000
000D8000
00070000
ENDCHAR
STARTCHAR uni1E01
ENCODING 7681
SWIDTH 556 0
DWIDTH 19 0
BBX 17 24 1 -6
BITMAP
0FF000
3FF800
387C00
383E00
383E00
003E00
003E00
0FFE00
3FFE00
7E3E00
FC3E00
F83E00
F83E00
F83E00
FC7E00
7FDE00
7F9F80
1F0F80
000000
01C000
036000
022000
036000
01C000
ENDCHAR
STARTCHAR uni1E02
ENCODING 7682
SWIDTH 639 0
DWIDTH 22 0
BBX 20 31 1 0
BITMAP
00F000
00F000
00F000
00F000
00F000
000000
FFFE00
FFFF80
3F0FC0
1F07E0
1F03E0
1F03E0
1F03E0
1F03E0
1F03C0
1F07C0
1F1F00
1FFC00
1FFE00
1F0F80
1F07C0
1F03E0
1F01F0
1F01F0
1F01F0
1F01F0
1F01F0
1F03E0
3F87E0
FFFFC0
FFFE00
ENDCHAR
STARTCHAR uni1E03
ENCODING 7683
SWIDTH 640 0
DWIDTH 22 0
BBX 21 32 0 0
BITMAP
078000
078000
078000
078000
078000
000000
FF0000
FF0000
3F0000
1F0000
1F0000
1F0000
1F0000
1F0000
1F0F80
1F3FC0
1F7FE0
1F7FF0
1FC3F0
1F81F8
1F00F8
1F00F8
1F00F8
1F00F8
1F00F8
1F00F8
1F01F0
1F01F0
1FC3F0
1FFFE0
1F7FC0
1E1F00
ENDCHAR
STARTCHAR uni1E04
ENCODING 7684
SWIDTH 639 0
DWIDTH 22 0
BBX 20 31 1 -6
BITMAP
FFFE00
FFFF80
3F0FC0
1F07E0
1F03E0
1F03E0
1F03E0
1F03E0
1F03C0
1F07C0
1F1F00
1FFC00
1FFE00
1F0F80
1F07C0
1F03E0
1F01F0
1F01F0
1F01F0
1F01F0
1F01F0
1F03E0
3F87E0
FFFFC0
FFFE00
000000
00F000
00F000
00F000
00F000
00F000
ENDCHAR
STARTCHAR uni1E05
ENCODING 7685
SWIDTH 640 0
DWIDTH 22 0
BBX 21 32 0 -6
BITMAP
FF0000
FF0000
3F0000
1F0000
1F0000
1F0000
1F0000
1F0000
1F0F80
1F3FC0
1F7FE0
1F7FF0
1FC3F0
1F81F8
1F00F8
1F00F8
1F00F8
1F00F8
1F00F8
1F00F8
1F01F0
1F01F0
1FC3F0
1FFFE0
1F7FC0
1E1F00
000000
007800
007800
007800
007800
007800
ENDCHAR
STARTCHAR uni1E06
ENCODING 7686
SWIDTH 639 0
DWIDTH 22 0
BBX 20 29 1 -4
BITMAP
FFFE00
FFFF80
3F0FC0
1F07E0
1F03E0
1F03E0
1F03E0
1F03E0
1F03C0
1F07C0
1F1F00
1FFC00
1FFE00
1F0F80
1F07C0
1F03E0
1F01F0
1F01F0
1F01F0
1F01F0
1F01F0
1F03E0
3F87E0
FFFFC0
FFFE00
000000
07FE00
07FE00
07FE00
ENDCHAR
STARTCHAR uni1E07
ENCODING 7687
SWIDTH 640 0
DWIDTH 22 0
BBX 21 30 0 -4
BITMAP
FF0000
FF0000
3F0000
1F0000
1F0000
1F0000
1F0000
1F0000
1F0F80
1F3FC0
1F7FE0
1F7FF0
1FC3F0
1F81F8
1F00F8
1F00F8
1F00F8
1F00F8
1F00F8
1F00F8
1F01F0
1F01F0
1FC3F0
1FFFE0
1F7FC0
1E1F00
000000
03FF00
03FF00
03FF00
ENDCHAR
STARTCHAR uni1E08
ENCODING 7688
SWIDTH 711 0
DWIDTH 24 0
BBX 21 38 1 -7
BITMAP
001F00
003C00
003800
007000
00E000
000000
007FC0
03FFF8
0FC0F8
1F0038
3E0038
3C0038
7C0000
7C0000
F80000
F80000
F80000
F80000
F80000
F80000
F80000
F80000
FC0000
7C0000
7E0000
3E0000
3F8008
1FC078
0FFFF8
03FFF0
007FC0
003000
006000
007800
003C00
003C00
00FC00
00F800
ENDCHAR
STARTCHAR uni1E09
ENCODING 7689
SWIDTH 541 0
DWIDTH 18 0
BBX 16 31 1 -7
BITMAP
007C
00F0
00E0
01C0
0380
0000
03FE
0FFF
3E0F
3C07
7C07
7807
F800
F800
F800
F800
F800
F800
7C00
7E00
3F01
1FFF
0FFF
03FC
00C0
0180
01E0
00F0
00F0
03F0
03E0
ENDCHAR
STARTCHAR uni1E0A
ENCODING 7690
SWIDTH 794 0
DWIDTH 27 0
BBX 25 31 1 0
BITMAP
003C0000
003C0000
003C0000
003C0000
003C0000
00000000
FFFF8000
FFFFF000
3F03F800
1F007C00
1F003E00
1F001F00
1F001F00
1F001F00
1F000F80
1F000F80
1F000F80
1F000F80
1F000F80
1F000F80
1F000F80
1F000F80
1F000F00
1F001F00
1F001F00
1F001E00
1F003E00
1F007C00
3F81F800
FFFFE000
FFFF8000
ENDCHAR
STARTCHAR uni1E0B
ENCODING 7691
SWIDTH 652 0
DWIDTH 22 0
BBX 21 32 1 0
BITMAP
001E00
001E00
001E00
001E00
001E00
000000
003FC0
003FC0
000FC0
0007C0
0007C0
0007C0
0007C0
0007C0
07C7C0
1FF7C0
3FFFC0
7E1FC0
7C07C0
7807C0
F807C0
F807C0
F807C0
F807C0
F807C0
F807C0
FC0FC0
7E1FC0
7FF7C0
3FF7E0
1FE7F8
0F87F8
ENDCHAR
STARTCHAR uni1E0C
ENCODING 7692
SWIDTH 794 0
DWIDTH 27 0
BBX 25 31 1 -6
BITMAP
FFFF8000
FFFFF000
3F03F800
1F007C00
1F003E00
1F001F00
1F001F00
1F001F00
1F000F80
1F000F80
1F000F80
1F000F80
1F000F80
1F000F80
1F000F80
1F000F80
1F000F00
1F001F00
1F001F00
1F001E00
1F003E00
1F007C00
3F81F800
FFFFE000
FFFF8000
00000000
003C0000
003C0000
003C0000
003C0000
003C0000
ENDCHAR
STARTCHAR uni1E0D
ENCODING 7693
SWIDTH 652 0
DWIDTH 22 0
BBX 21 32 1 -6
BITMAP
003FC0
003FC0
000FC0
0007C0
0007C0
0007C0
0007C0
0007C0
07C7C0
1FF7C0
3FFFC0
7E1FC0
7C07C0
7807C0
F807C0
F807C0
F807C0
F807C0
F807C0
F807C0
FC0FC0
7E1FC0
7FF7C0
3FF7E0
1FE7F8
0F87F8
000000
00F000
00F000
00F000
00F000
00F000
ENDCHAR
STARTCHAR uni1E0E
ENCODING 7694
SWIDTH 794 0
DWIDTH 27 0
BBX 25 29 1 -4
BITMAP
FFFF8000
FFFFF000
3F03F800
1F007C00
1F003E00
1F001F00
1F001F00
1F001F00
1F000F80
1F000F80
1F000F80
1F000F80
1F000F80
1F000F80
1F000F80
1F000F80
1F000F00
1F001F00
1F001F00
1F001E00
1F003E00
1F007C00
3F81F800
FFFFE000
FFFF8000
00000000
01FF8000
01FF8000
01FF8000
ENDCHAR
STARTCHAR uni1E0F
ENCODING 7695
SWIDTH 652 0
DWIDTH 22 0
BBX 21 30 1 -4
BITMAP
003FC0
003FC0
000FC0
0007C0
0007C0
0007C0
0007C0
0007C0
07C7C0
1FF7C0
3FFFC0
7E1FC0
7C07C0
7807C0
F807C0
F807C0
F807C0
F807C0
F807C0
F807C0
FC0FC0
7E1FC0
7FF7C0
3FF7E0
1FE7F8
0F87F8
000000
07FE00
07FE00
07FE00
ENDCHAR
STARTCHAR uni1E10
ENCODING 7696
SWIDTH 794 0
DWIDTH 27 0
BBX 25 32 1 -7
BITMAP
FFFF8000
FFFFF000
3F03F800
1F007C00
1F003E00
1F001F00
1F001F00
1F001F00
1F000F80
1F000F80
1F000F80
1F000F80
1F000F80
1F000F80
1F000F80
1F000F80
1F000F00
1F001F00
1F001F00
1F001E00
1F003E00
1F007C00
3F81F800
FFFFE000
FFFF8000
00180000
00300000
003C0000
001E0000
001E0000
007E0000
007C0000
ENDCHAR
STARTCHAR uni1E11
ENCODING 7697
SWIDTH 652 0
DWIDTH 22 0
BBX 21 33 1 -7
BITMAP
003FC0
003FC0
000FC0
0007C0
0007C0
0007C0
0007C0
0007C0
07C7C0
1FF7C0
3FFFC0
7E1FC0
7C07C0
7807C0
F807C0
F807C0
F807C0
F807C0
F807C0
F807C0
FC0FC0
7E1FC0
7FF7C0
3FF7E0
1FE7F8
0F87F8
003000
006000
007800
003C00
003C00
00FC00
00F800
ENDCHAR
STARTCHAR uni1E12
ENCODING 7698
SWIDTH 794 0
DWIDTH 27 0
BBX 25 31 1 -6
BITMAP
FFFF8000
FFFFF000
3F03F800
1F007C00
1F003E00
1F001F00
1F001F00
1F001F00
1F000F80
1F000F80
1F000F80
1F000F80
1F000F80
1F000F80
1F000F80
1F000F80
1F000F00
1F001F00
1F001F00
1F001E00
1F003E00
1F007C00
3F81F800
FFFFE000
FFFF8000
00000000
007E0000
007E0000
00E70000
01C38000
0381C000
ENDCHAR
STARTCHAR uni1E13
ENCODING 7699
SWIDTH 652 0
DWIDTH 22 0
BBX 21 32 1 -6
BITMAP
003FC0
003FC0
000FC0
0007C0
0007C0
0007C0
0007C0
0007C0
07C7C0
1FF7C0
3FFFC0
7E1FC0
7C07C0
7807C0
F807C0
F807C0
F807C0
F807C0
F807C0
F807C0
FC0FC0
7E1FC0
7FF7C0
3FF7E0
1FE7F8
0F87F8
000000
01F800
01F800
039C00
070E00
0E0700
ENDCHAR
STARTCHAR uni1E14
ENCODING 7700
SWIDTH 601 0
DWIDTH 20 0
BBX 19 35 1 0
BITMAP
0F8000
038000
01C000
00E000
007000
000000
0FFC00
0FFC00
0FFC00
000000
FFFFE0
FFFFE0
3F01E0
1F00E0
1F00E0
1F0000
1F0000
1F0000
1F0000
1F0300
1F0300
1FFF00
1FFF00
1F0300
1F0300
1F0000
1F0000
1F0000
1F0000
1F0000
1F00E0
1F00E0
3F80E0
FFFFE0
FFFFE0
ENDCHAR
STARTCHAR uni1E15
ENCODING 7701
SWIDTH 568 0
DWIDTH 19 0
BBX 16 28 1 0
BITMAP
1F00
0700
0380
01C0
00E0
0000
1FF8
1FF8
1FF8
0000
07F0
1FF8
3C3C
7C1E
781E
781F
F81F
FFFF
FFFF
F800
F800
F800
7C00
7E00
3F01
1FFF
0FFF
03FC
ENDCHAR
STARTCHAR uni1E16
ENCODING 7702
SWIDTH 601 0
DWIDTH 20 0
BBX 19 35 1 0
BITMAP
003E00
007800
007000
00E000
01C000
000000
0FFC00
0FFC00
0FFC00
000000
FFFFE0
FFFFE0
3F01E0
1F00E0
1F00E0
1F0000
1F0000
1F0000
1F0000
1F0300
1F0300
1FFF00
1FFF00
1F0300
1F0300
1F0000
1F0000
1F0000
1F0000
1F0000
1F00E0
1F00E0
3F80E0
FFFFE0
FFFFE0
ENDCHAR
STARTCHAR uni1E17
ENCODING 7703
SWIDTH 568 0
DWIDTH 19 0
BBX 16 28 1 0
BITMAP
00F8
01E0
01C0
0380
0700
0000
1FF8
1FF8
1FF8
0000
07F0
1FF8
3C3C
7C1E
781E
781F
F81F
FFFF
FFFF
F800
F800
F800
7C00
7E00
3F01
1FFF
0FFF
03FC
ENDCHAR
STARTCHAR uni1E18
ENCODING 7704
SWIDTH 601 0
DWIDTH 20 0
BBX 19 31 1 -6
BITMAP
FFFFE0
FFFFE0
3F01E0
1F00E0
1F00E0
1F0000
1F0000
1F0000
1F0000
1F0300
1F0300
1FFF00
1FFF00
1F0300
1F0300
1F0000
1F0000
1F0000
1F0000
1F0000
1F00E0
1F00E0
3F80E0
FFFFE0
FFFFE0
000000
03F000
03F000
073800
0E1C00
1C0E00
ENDCHAR
STARTCHAR uni1E19
ENCODING 7705
SWIDTH 568 0
DWIDTH 19 0
BBX 16 24 1 -6
BITMAP
07F0
1FF8
3C3C
7C1E
781E
781F
F81F
FFFF
FFFF
F800
F800
F800
7C00
7E00
3F01
1FFF
0FFF
03FC
0000
07E0
07E0
0E70
1C38
381C
ENDCHAR
STARTCHAR uni1E1A
ENCODING 7706
SWIDTH 601 0
DWIDTH 20 0
BBX 19 31 1 -6
BITMAP
FFFFE0
FFFFE0
3F01E0
1F00E0
1F00E0
1F0000
1F0000
1F0000
1F0000
1F0300
1F0300
1FFF00
1FFF00
1F0300
1F0300
1F0000
1F0000
1F0000
1F0000
1F0000
1F00E0
1F00E0
3F80E0
FFFFE0
FFFFE0
000000
078600
0FFE00
1FFE00
1FFC00
183800
ENDCHAR
STARTCHAR uni1E1B
ENCODING 7707
SWIDTH 568 0
DWIDTH 19 0
BBX 16 24 1 -6
BITMAP
07F0
1FF8
3C3C
7C1E
781E
781F
F81F
FFFF
FFFF
F800
F800
F800
7C00
7E00
3F01
1FFF
0FFF
03FC
0000
0F0C
1FFC
3FFC
3FF8
3070
ENDCHAR
STARTCHAR uni1E1C
ENCODING 7708
SWIDTH 601 0
DWIDTH 20 0
BBX 19 38 1 -7
BITMAP
180600
1C0E00
0FFC00
07F800
03F000
000000
FFFFE0
FFFFE0
3F01E0
1F00E0
1F00E0
1F0000
1F0000
1F0000
1F0000
1F0300
1F0300
1FFF00
1FFF00
1F0300
1F0300
1F0000
1F0000
1F0000
1F0000
1F0000
1F00E0
1F00E0
3F80E0
FFFFE0
FFFFE0
006000
00C000
00F000
007800
007800
01F800
01F000
ENDCHAR
STARTCHAR uni1E1D
ENCODING 7709
SWIDTH 568 0
DWIDTH 19 0
BBX 16 31 1 -7
BITMAP
300C
381C
1FF8
0FF0
07E0
0000
07F0
1FF8
3C3C
7C1E
781E
781F
F81F
FFFF
FFFF
F800
F800
F800
7C00
7E00
3F01
1FFF
0FFF
03FC
00C0
0180
01E0
00F0
00F0
03F0
03E0
ENDCHAR
STARTCHAR uni1E1E
ENCODING 7710
SWIDTH 584 0
DWIDTH 20 0
BBX 18 31 1 0
BITMAP
01E000
01E000
01E000
01E000
01E000
000000
FFFFC0
FFFFC0
3F03C0
1F01C0
1F01C0
1F0000
1F0000
1F0000
1F0000
1F0300
1F0300
1FFF00
1FFF00
1F0300
1F0300
1F0000
1F0000
1F0000
1F0000
1F0000
1F0000
1F0000
3F8000
FFE000
FFE000
ENDCHAR
STARTCHAR uni1E1F
ENCODING 7711
SWIDTH 416 0
DWIDTH 14 0
BBX 14 32 1 0
BITMAP
03C0
03C0
03C0
03C0
03C0
0000
03F8
07FC
0F9C
1F1C
1F1C
1F00
1F00
1F00
FFF0
FFF0
1F00
1F00
1F00
1F00
1F00
1F00
1F00
1F00
1F00
1F00
1F00
1F00
1F00
3F80
FFE0
FFE0
ENDCHAR
STARTCHAR uni1E20
ENCODING 7712
SWIDTH 753 0
DWIDTH 26 0
BBX 24 29 1 0
BITMAP
01FF80
01FF80
01FF80
000000
007FC0
03FFF8
0FC0F8
1F0038
3E0038
3C0038
7C0000
7C0000
F80000
F80000
F80000
F80000
F80000
F80000
F807FF
F807FF
F801FC
7C00F8
7C00F8
3E00F8
3E00F8
1F00F8
0FC0F8
03FFF8
007FC0
ENDCHAR
STARTCHAR uni1E21
ENCODING 7713
SWIDTH 599 0
DWIDTH 20 0
BBX 19 29 1 -7
BITMAP
07FE00
07FE00
07FE00
000000
07FFE0
1FFFE0
3E3EC0
3C1E00
7C1F00
7C1F00
7C1F00
7C1F00
3C1F00
3C1E00
1E3E00
07FC00
0FF000
3C0000
3FFE00
3FFF80
3FFFC0
0FFFC0
3807C0
F807C0
F807C0
F80F80
FE1F00
7FFE00
0FF800
ENDCHAR
STARTCHAR uni1E22
ENCODING 7714
SWIDTH 798 0
DWIDTH 27 0
BBX 26 31 1 0
BITMAP
001E0000
001E0000
001E0000
001E0000
001E0000
00000000
FFE1FFC0
FFE1FFC0
3F807F00
1F003E00
1F003E00
1F003E00
1F003E00
1F003E00
1F003E00
1F003E00
1F003E00
1FFFFE00
1FFFFE00
1F003E00
1F003E00
1F003E00
1F003E00
1F003E00
1F003E00
1F003E00
1F003E00
1F003E00
3F807F00
FFE1FFC0
FFE1FFC0
ENDCHAR
STARTCHAR uni1E23
ENCODING 7715
SWIDTH 654 0
DWIDTH 22 0
BBX 22 32 0 0
BITMAP
078000
078000
078000
078000
078000
000000
FF0000
FF0000
3F0000
1F0000
1F0000
1F0000
1F0000
1F0000
1F0F00
1F3FC0
1F7FC0
1F7FE0
1FC3E0
1F83E0
1F03E0
1F03E0
1F03E0
1F03E0
1F03E0
1F03E0
1F03E0
1F03E0
1F03E0
3F87F0
FFFFFC
FFFFFC
ENDCHAR
STARTCHAR uni1E24
ENCODING 7716
SWIDTH 798 0
DWIDTH 27 0
BBX 26 31 1 -6
BITMAP
FFE1FFC0
FFE1FFC0
3F807F00
1F003E00
1F003E00
1F003E00
1F003E00
1F003E00
1F003E00
1F003E00
1F003E00
1FFFFE00
1FFFFE00
1F003E00
1F003E00
1F003E00
1F003E00
1F003E00
1F003E00
1F003E00
1F003E00
1F003E00
3F807F00
FFE1FFC0
FFE1FFC0
00000000
001E0000
001E0000
001E0000
001E0000
001E0000
ENDCHAR
STARTCHAR uni1E25
ENCODING 7717
SWIDTH 654 0
DWIDTH 22 0
BBX 22 32 0 -6
BITMAP
FF0000
FF0000
3F0000
1F0000
1F0000
1F0000
1F0000
1F0000
1F0F00
1F3FC0
1F7FC0
1F7FE0
1FC3E0
1F83E0
1F03E0
1F03E0
1F03E0
1F03E0
1F03E0
1F03E0
1F03E0
1F03E0
1F03E0
3F87F0
FFFFFC
FFFFFC
000000
007800
007800
007800
007800
007800
ENDCHAR
STARTCHAR uni1E26
ENCODING 7718
SWIDTH 798 0
DWIDTH 27 0
BBX 26 30 1 0
BITMAP
00E1C000
00E1C000
00E1C000
00E1C000
00000000
FFE1FFC0
FFE1FFC0
3F807F00
1F003E00
1F003E00
1F003E00
1F003E00
1F003E00
1F003E00
1F003E00
1F003E00
1FFFFE00
1FFFFE00
1F003E00
1F003E00
1F003E00
1F003E00
1F003E00
1F003E00
1F003E00
1F003E00
1F003E00
3F807F00
FFE1FFC0
FFE1FFC0
ENDCHAR
STARTCHAR uni1E27
ENCODING 7719
SWIDTH 654 0
DWIDTH 22 0
BBX 22 31 0 0
BITMAP
387000
387000
387000
387000
000000
FF0000
FF0000
3F0000
1F0000
1F0000
1F0000
1F0000
1F0000
1F0F00
1F3FC0
1F7FC0
1F7FE0
1FC3E0
1F83E0
1F03E0
1F03E0
1F03E0
1F03E0
1F03E0
1F03E0
1F03E0
1F03E0
1F03E0
3F87F0
FFFFFC
FFFFFC
ENDCHAR
STARTCHAR uni1E28
ENCODING 7720
SWIDTH 798 0
DWIDTH 27 0
BBX 26 32 1 -7
BITMAP
FFE1FFC0
FFE1FFC0
3F807F00
1F003E00
1F003E00
1F003E00
1F003E00
1F003E00
1F003E00
1F003E00
1F003E00
1FFFFE00
1FFFFE00
1F003E00
1F003E00
1F003E00
1F003E00
1F003E00
1F003E00
1F003E00
1F003E00
1F003E00
3F807F00
FFE1FFC0
FFE1FFC0
000C0000
00180000
001E0000
000F0000
000F0000
003F0000
003E0000
ENDCHAR
STARTCHAR uni1E29
ENCODING 7721
SWIDTH 654 0
DWIDTH 22 0
BBX 22 33 0 -7
BITMAP
FF0000
FF0000
3F0000
1F0000
1F0000
1F0000
1F0000
1F0000
1F0F00
1F3FC0
1F7FC0
1F7FE0
1FC3E0
1F83E0
1F03E0
1F03E0
1F03E0
1F03E0
1F03E0
1F03E0
1F03E0
1F03E0
1F03E0
3F87F0
FFFFFC
FFFFFC
003000
006000
007800
003C00
003C00
00FC00
00F800
ENDCHAR
STARTCHAR uni1E2A
ENCODING 7722
SWIDTH 798 0
DWIDTH 27 0
BBX 26 31 1 -6
BITMAP
FFE1FFC0
FFE1FFC0
3F807F00
1F003E00
1F003E00
1F003E00
1F003E00
1F003E00
1F003E00
1F003E00
1F003E00
1FFFFE00
1FFFFE00
1F003E00
1F003E00
1F003E00
1F003E00
1F003E00
1F003E00
1F003E00
1F003E00
1F003E00
3F807F00
FFE1FFC0
FFE1FFC0
00000000
01806000
01C0E000
00FFC000
007F8000
003F0000
ENDCHAR
STARTCHAR uni1E2B
ENCODING 7723
SWIDTH 654 0
DWIDTH 22 0
BBX 22 32 0 -6
BITMAP
FF0000
FF0000
3F0000
1F0000
1F0000
1F0000
1F0000
1F0000
1F0F00
1F3FC0
1F7FC0
1F7FE0
1FC3E0
1F83E0
1F03E0
1F03E0
1F03E0
1F03E0
1F03E0
1F03E0
1F03E0
1F03E0
1F03E0
3F87F0
FFFFFC
FFFFFC
000000
060180
070380
03FF00
01FE00
00FC00
ENDCHAR
STARTCHAR uni1E2C
ENCODING 7724
SWIDTH 349 0
DWIDTH 12 0
BBX 12 31 -1 -6
BITMAP
7FF0
7FF0
1FC0
0F80
0F80
0F80
0F80
0F80
0F80
0F80
0F80
0F80
0F80
0F80
0F80
0F80
0F80
0F80
0F80
0F80
0F80
0F80
1FC0
7FF0
7FF0
0000
3C30
7FF0
FFF0
FFE0
C1C0
ENDCHAR
STARTCHAR uni1E2D
ENCODING 7725
SWIDTH 325 0
DWIDTH 11 0
BBX 12 32 -1 -6
BITMAP
0F80
0F80
0F80
0F80
0F80
0000
0000
0000
7F80
7F80
1F80
0F80
0F80
0F80
0F80
0F80
0F80
0F80
0F80
0F80
0F80
0F80
0F80
1FC0
7FF0
7FF0
0000
3C30
7FF0
FFF0
FFE0
C1C0
ENDCHAR
STARTCHAR uni1E2E
ENCODING 7726
SWIDTH 349 0
DWIDTH 12 0
BBX 11 37 0 0
BITMAP
03E0
0780
0700
0E00
1C00
0000
E1C0
E1C0
E1C0
E1C0
0000
0000
FFE0
FFE0
3F80
1F00
1F00
1F00
1F00
1F00
1F00
1F00
1F00
1F00
1F00
1F00
1F00
1F00
1F00
1F00
1F00
1F00
1F00
1F00
3F80
FFE0
FFE0
ENDCHAR
STARTCHAR uni1E2F
ENCODING 7727
SWIDTH 325 0
DWIDTH 11 0
BBX 11 30 0 0
BITMAP
07C0
0F00
0E00
1C00
3800
0000
E1C0
E1C0
E1C0
E1C0
0000
0000
FF00
FF00
3F00
1F00
1F00
1F00
1F00
1F00
1F00
1F00
1F00
1F00
1F00
1F00
1F00
3F80
FFE0
FFE0
ENDCHAR
STARTCHAR uni1E30
ENCODING 7728
SWIDTH 747 0
DWIDTH 25 0
BBX 25 31 1 0
BITMAP
001F0000
003C0000
00380000
00700000
00E00000
00000000
FFC0FE00
FFC0FE00
3F807800
1F007000
1F00E000
1F018000
1F070000
1F0E0000
1F1C0000
1F380000
1F700000
1FF80000
1FFC0000
1FFE0000
1F7F0000
1F3F8000
1F1F8000
1F0FC000
1F07E000
1F07F000
1F03F800
1F01FC00
3F80FE00
FFC7FF80
FFC7FF80
ENDCHAR
STARTCHAR uni1E31
ENCODING 7729
SWIDTH 654 0
DWIDTH 21 0
BBX 22 32 0 0
BITMAP
01F000
03C000
038000
070000
0E0000
000000
FF0000
FF0000
3F0000
1F0000
1F0000
1F0000
1F0000
1F0000
1F07F0
1F07F0
1F01C0
1F0380
1F0700
1F1E00
1F3800
1F7800
1FFC00
1FFC00
1F7E00
1F3F00
1F1F80
1F1FC0
1F0FE0
3F07F0
FFC3FC
FFC3FC
ENDCHAR
STARTCHAR uni1E32
ENCODING 7730
SWIDTH 747 0
DWIDTH 25 0
BBX 25 31 1 -6
BITMAP
FFC0FE00
FFC0FE00
3F807800
1F007000
1F00E000
1F018000
1F070000
1F0E0000
1F1C0000
1F380000
1F700000
1FF80000
1FFC0000
1FFE0000
1F7F0000
1F3F8000
1F1F8000
1F0FC000
1F07E000
1F07F000
1F03F800
1F01FC00
3F80FE00
FFC7FF80
FFC7FF80
00000000
003C0000
003C0000
003C0000
003C0000
003C0000
ENDCHAR
STARTCHAR uni1E33
ENCODING 7731
SWIDTH 654 0
DWIDTH 21 0
BBX 22 32 0 -6
BITMAP
FF0000
FF0000
3F0000
1F0000
1F0000
1F0000
1F0000
1F0000
1F07F0
1F07F0
1F01C0
1F0380
1F0700
1F1E00
1F3800
1F7800
1FFC00
1FFC00
1F7E00
1F3F00
1F1F80
1F1FC0
1F0FE0
3F07F0
FFC3FC
FFC3FC
000000
007800
007800
007800
007800
007800
ENDCHAR
STARTCHAR uni1E34
ENCODING 7732
SWIDTH 747 0
DWIDTH 25 0
BBX 25 29 1 -4
BITMAP
FFC0FE00
FFC0FE00
3F807800
1F007000
1F00E000
1F018000
1F070000
1F0E0000
1F1C0000
1F380000
1F700000
1FF80000
1FFC0000
1FFE0000
1F7F0000
1F3F8000
1F1F8000
1F0FC000
1F07E000
1F07F000
1F03F800
1F01FC00
3F80FE00
FFC7FF80
FFC7FF80
00000000
01FF8000
01FF8000
01FF8000
ENDCHAR
STARTCHAR uni1E35
ENCODING 7733
SWIDTH 654 0
DWIDTH 21 0
BBX 22 30 0 -4
BITMAP
FF0000
FF0000
3F0000
1F0000
1F0000
1F0000
1F0000
1F0000
1F07F0
1F07F0
1F01C0
1F0380
1F0700
1F1E00
1F3800
1F7800
1FFC00
1FFC00
1F7E00
1F3F00
1F1F80
1F1FC0
1F0FE0
3F07F0
FFC3FC
FFC3FC
000000
03FF00
03FF00
03FF00
ENDCHAR
STARTCHAR uni1E36
ENCODING 7734
SWIDTH 584 0
DWIDTH 20 0
BBX 19 31 1 -6
BITMAP
FFE000
FFE000
3F8000
1F0000
1F0000
1F0000
1F0000
1F0000
1F0000
1F0000
1F0000
1F0000
1F0000
1F0000
1F0000
1F0000
1F0000
1F0000
1F0000
1F00E0
1F00E0
1F00E0
3F80E0
FFFFE0
FFFFE0
000000
01E000
01E000
01E000
01E000
01E000
ENDCHAR
STARTCHAR uni1E37
ENCODING 7735
SWIDTH 325 0
DWIDTH 11 0
BBX 11 32 0 -6
BITMAP
FF00
FF00
3F00
1F00
1F00
1F00
1F00
1F00
1F00
1F00
1F00
1F00
1F00
1F00
1F00
1F00
1F00
1F00
1F00
1F00
1F00
1F00
1F00
3F80
FFE0
FFE0
0000
0F00
0F00
0F00
0F00
0F00
ENDCHAR
STARTCHAR uni1E38
ENCODING 7736
SWIDTH 584 0
DWIDTH 20 0
BBX 19 35 1 -6
BITMAP
3FF000
3FF000
3FF000
000000
FFE000
FFE000
3F8000
1F0000
1F0000
1F0000
1F0000
1F0000
1F0000
1F0000
1F0000
1F0000
1F0000
1F0000
1F0000
1F0000
1F0000
1F0000
1F0000
1F00E0
1F00E0
1F00E0
3F80E0
FFFFE0
FFFFE0
000000
01E000
01E000
01E000
01E000
01E000
ENDCHAR
STARTCHAR uni1E39
ENCODING 7737
SWIDTH 325 0
DWIDTH 11 0
BBX 11 36 0 -6
BITMAP
FFC0
FFC0
FFC0
0000
FF00
FF00
3F00
1F00
1F00
1F00
1F00
1F00
1F00
1F00
1F00
1F00
1F00
1F00
1F00
1F00
1F00
1F00
1F00
1F00
1F00
1F00
1F00
3F80
FFE0
FFE0
0000
0F00
0F00
0F00
0F00
0F00
ENDCHAR
STARTCHAR uni1E3A
ENCODING 7738
SWIDTH 584 0
DWIDTH 20 0
BBX 19 29 1 -4
BITMAP
FFE000
FFE000
3F8000
1F0000
1F0000
1F0000
1F0000
1F0000
1F0000
1F0000
1F0000
1F0000
1F0000
1F0000
1F0000
1F0000
1F0000
1F0000
1F0000
1F00E0
1F00E0
1F00E0
3F80E0
FFFFE0
FFFFE0
000000
0FFC00
0FFC00
0FFC00
ENDCHAR
STARTCHAR uni1E3B
ENCODING 7739
SWIDTH 325 0
DWIDTH 11 0
BBX 11 30 0 -4
BITMAP
FF00
FF00
3F00
1F00
1F00
1F00
1F00
1F00
1F00
1F00
1F00
1F00
1F00
1F00
1F00
1F00
1F00
1F00
1F00
1F00
1F00
1F00
1F00
3F80
FFE0
FFE0
0000
7FE0
7FE0
7FE0
ENDCHAR
STARTCHAR uni1E3C
ENCODING 7740
SWIDTH 584 0
DWIDTH 20 0
BBX 19 31 1 -6
BITMAP
FFE000
FFE000
3F8000
1F0000
1F0000
1F0000
1F0000
1F0000
1F0000
1F0000
1F0000
1F0000
1F0000
1F0000
1F0000
1F0000
1F0000
1F0000
1F0000
1F00E0
1F00E0
1F00E0
3F80E0
FFFFE0
FFFFE0
000000
03F000
03F000
073800
0E1C00
1C0E00
ENDCHAR
STARTCHAR uni1E3D
ENCODING 7741
SWIDTH 325 0
DWIDTH 11 0
BBX 12 32 0 -6
BITMAP
FF00
FF00
3F00
1F00
1F00
1F00
1F00
1F00
1F00
1F00
1F00
1F00
1F00
1F00
1F00
1F00
1F00
1F00
1F00
1F00
1F00
1F00
1F00
3F80
FFE0
FFE0
0000
1F80
1F80
39C0
70E0
E070
ENDCHAR
STARTCHAR uni1E3E
ENCODING 7742
SWIDTH 904 0
DWIDTH 31 0
BBX 30 31 0 0
BITMAP
0001F000
0003C000
00038000
00070000
000E0000
00000000
FF8003FC
FFC007FC
3FC007F0
1FC00FE0
1FE00FE0
1FE01FE0
1FF01FE0
1DF03FE0
1DF83BE0
1CF83BE0
1CF873E0
1CFC73E0
1C7CF3E0
1C7EE3E0
1C3FE3E0
1C3FC3E0
1C3FC3E0
1C1F83E0
1C1F83E0
1C0F03E0
1C0F03E0
1C0603E0
3E0007F0
FF000FFC
FF000FFC
ENDCHAR
STARTCHAR uni1E3F
ENCODING 7743
SWIDTH 967 0
DWIDTH 33 0
BBX 33 24 0 0
BITMAP
0000F80000
0001E00000
0001C00000
0003800000
0007000000
0000000000
FF1F01E000
FF3FC7F800
3F7FCFF800
1FFFFFFC00
1FC7F87C00
1F83F07C00
1F03E07C00
1F03E07C00
1F03E07C00
1F03E07C00
1F03E07C00
1F03E07C00
1F03E07C00
1F03E07C00
1F03E07C00
3F03E07E00
FFCFF9FF80
FFCFF9FF80
ENDCHAR
STARTCHAR uni1E40
ENCODING 7744
SWIDTH 904 0
DWIDTH 31 0
BBX 30 31 0 0
BITMAP
00078000
00078000
00078000
00078000
00078000
00000000
FF8003FC
FFC007FC
3FC007F0
1FC00FE0
1FE00FE0
1FE01FE0
1FF01FE0
1DF03FE0
1DF83BE0
1CF83BE0
1CF873E0
1CFC73E0
1C7CF3E0
1C7EE3E0
1C3FE3E0
1C3FC3E0
1C3FC3E0
1C1F83E0
1C1F83E0
1C0F03E0
1C0F03E0
1C0603E0
3E0007F0
FF000FFC
FF000FFC
ENDCHAR
STARTCHAR uni1E41
ENCODING 7745
SWIDTH 967 0
DWIDTH 33 0
BBX 33 24 0 0
BITMAP
0003C00000
0003C00000
0003C00000
0003C00000
0003C00000
0000000000
FF1F01E000
FF3FC7F800
3F7FCFF800
1FFFFFFC00
1FC7F87C00
1F83F07C00
1F03E07C00
1F03E07C00
1F03E07C00
1F03E07C00
1F03E07C00
1F03E07C00
1F03E07C00
1F03E07C00
1F03E07C00
3F03E07E00
FFCFF9FF80
FFCFF9FF80
ENDCHAR
STARTCHAR uni1E42
ENCODING 7746
SWIDTH 904 0
DWIDTH 31 0
BBX 30 31 0 -6
BITMAP
FF8003FC
FFC007FC
3FC007F0
1FC00FE0
1FE00FE0
1FE01FE0
1FF01FE0
1DF03FE0
1DF83BE0
1CF83BE0
1CF873E0
1CFC73E0
1C7CF3E0
1C7EE3E0
1C3FE3E0
1C3FC3E0
1C3FC3E0
1C1F83E0
1C1F83E0
1C0F03E0
1C0F03E0
1C0603E0
3E0007F0
FF000FFC
FF000FFC
00000000
0003C000
0003C000
0003C000
0003C000
0003C000
ENDCHAR
STARTCHAR uni1E43
ENCODING 7747
SWIDTH 967 0
DWIDTH 33 0
BBX 33 24 0 -6
BITMAP
FF1F01E000
FF3FC7F800
3F7FCFF800
1FFFFFFC00
1FC7F87C00
1F83F07C00
1F03E07C00
1F03E07C00
1F03E07C00
1F03E07C00
1F03E07C00
1F03E07C00
1F03E07C00
1F03E07C00
1F03E07C00
3F03E07E00
FFCFF9FF80
FFCFF9FF80
0000000000
0001E00000
0001E00000
0001E00000
0001E00000
0001E00000
ENDCHAR
STARTCHAR uni1E44
ENCODING 7748
SWIDTH 788 0
DWIDTH 27 0
BBX 25 31 1 0
BITMAP
003C0000
003C0000
003C0000
003C0000
003C0000
00000000
FE00FF80
FF00FF80
3F003E00
1F801C00
1FC01C00
1FC01C00
1FE01C00
1FF01C00
1DF81C00
1DF81C00
1CFC1C00
1C7E1C00
1C7E1C00
1C3F1C00
1C1F9C00
1C1FDC00
1C0FDC00
1C07FC00
1C03FC00
1C03FC00
1C01FC00
1C00FC00
3E00FC00
FF807C00
FF803C00
ENDCHAR
STARTCHAR uni1E45
ENCODING 7749
SWIDTH 654 0
DWIDTH 22 0
BBX 22 24 0 0
BITMAP
00F000
00F000
00F000
00F000
00F000
000000
FF0F00
FF3FC0
7F7FC0
1F7FE0
1FC3E0
1F83E0
1F03E0
1F03E0
1F03E0
1F03E0
1F03E0
1F03E0
1F03E0
1F03E0
1F03E0
3F87F0
FFFFFC
FFFFFC
ENDCHAR
STARTCHAR uni1E46
ENCODING 7750
SWIDTH 788 0
DWIDTH 27 0
BBX 25 31 1 -6
BITMAP
FE00FF80
FF00FF80
3F003E00
1F801C00
1FC01C00
1FC01C00
1FE01C00
1FF01C00
1DF81C00
1DF81C00
1CFC1C00
1C7E1C00
1C7E1C00
1C3F1C00
1C1F9C00
1C1FDC00
1C0FDC00
1C07FC00
1C03FC00
1C03FC00
1C01FC00
1C00FC00
3E00FC00
FF807C00
FF803C00
00000000
003C0000
003C0000
003C0000
003C0000
003C0000
ENDCHAR
STARTCHAR uni1E47
ENCODING 7751
SWIDTH 654 0
DWIDTH 22 0
BBX 22 24 0 -6
BITMAP
FF0F00
FF3FC0
7F7FC0
1F7FE0
1FC3E0
1F83E0
1F03E0
1F03E0
1F03E0
1F03E0
1F03E0
1F03E0
1F03E0
1F03E0
1F03E0
3F87F0
FFFFFC
FFFFFC
000000
007800
007800
007800
007800
007800
ENDCHAR
STARTCHAR uni1E48
ENCODING 7752
SWIDTH 788 0
DWIDTH 27 0
BBX 25 29 1 -4
BITMAP
FE00FF80
FF00FF80
3F003E00
1F801C00
1FC01C00
1FC01C00
1FE01C00
1FF01C00
1DF81C00
1DF81C00
1CFC1C00
1C7E1C00
1C7E1C00
1C3F1C00
1C1F9C00
1C1FDC00
1C0FDC00
1C07FC00
1C03FC00
1C03FC00
1C01FC00
1C00FC00
3E00FC00
FF807C00
FF803C00
00000000
01FF8000
01FF8000
01FF8000
ENDCHAR
STARTCHAR uni1E49
ENCODING 7753
SWIDTH 654 0
DWIDTH 22 0
BBX 22 22 0 -4
BITMAP
FF0F00
FF3FC0
7F7FC0
1F7FE0
1FC3E0
1F83E0
1F03E0
1F03E0
1F03E0
1F03E0
1F03E0
1F03E0
1F03E0
1F03E0
1F03E0
3F87F0
FFFFFC
FFFFFC
000000
03FF00
03FF00
03FF00
ENDCHAR
STARTCHAR uni1E4A
ENCODING 7754
SWIDTH 788 0
DWIDTH 27 0
BBX 25 31 1 -6
BITMAP
FE00FF80
FF00FF80
3F003E00
1F801C00
1FC01C00
1FC01C00
1FE01C00
1FF01C00
1DF81C00
1DF81C00
1CFC1C00
1C7E1C00
1C7E1C00
1C3F1C00
1C1F9C00
1C1FDC00
1C0FDC00
1C07FC00
1C03FC00
1C03FC00
1C01FC00
1C00FC00
3E00FC00
FF807C00
FF803C00
00000000
007E0000
007E0000
00E70000
01C38000
0381C000
ENDCHAR
STARTCHAR uni1E4B
ENCODING 7755
SWIDTH 654 0
DWIDTH 22 0
BBX 22 24 0 -6
BITMAP
FF0F00
FF3FC0
7F7FC0
1F7FE0
1FC3E0
1F83E0
1F03E0
1F03E0
1F03E0
1F03E0
1F03E0
1F03E0
1F03E0
1F03E0
1F03E0
3F87F0
FFFFFC
FFFFFC
000000
00FC00
00FC00
01CE00
038700
070380
ENDCHAR
STARTCHAR uni1E4C
ENCODING 7756
SWIDTH 810 0
DWIDTH 28 0
BBX 25 38 1 0
BITMAP
0007C000
000F0000
000E0000
001C0000
00380000
00000000
00F0C000
01FFC000
03FFC000
03FF8000
03070000
00000000
00000000
00FF8000
03FFE000
0FC1F800
1F007C00
3E003E00
3C001E00
7C001F00
7C001F00
F8000F80
F8000F80
F8000F80
F8000F80
F8000F80
F8000F80
F8000F80
F8000F80
F8000F80
7C001F00
7C001F00
3E003E00
3E003E00
1F007C00
0FC1F800
03FFE000
00FF8000
ENDCHAR
STARTCHAR uni1E4D
ENCODING 7757
SWIDTH 617 0
DWIDTH 21 0
BBX 19 31 1 0
BITMAP
007C00
00F000
00E000
01C000
038000
000000
078600
0FFE00
1FFE00
1FFC00
183800
000000
000000
03F800
0FFE00
3F1F80
3C0780
7C07C0
7803C0
F803E0
F803E0
F803E0
F803E0
F803E0
F803E0
7803C0
7C07C0
3C0780
3F1F80
0FFE00
03F800
ENDCHAR
STARTCHAR uni1E4E
ENCODING 7758
SWIDTH 810 0
DWIDTH 28 0
BBX 25 37 1 0
BITMAP
01C38000
01C38000
01C38000
01C38000
00000000
00F0C000
01FFC000
03FFC000
03FF8000
03070000
00000000
00000000
00FF8000
03FFE000
0FC1F800
1F007C00
3E003E00
3C001E00
7C001F00
7C001F00
F8000F80
F8000F80
F8000F80
F8000F80
F8000F80
F8000F80
F8000F80
F8000F80
F8000F80
7C001F00
7C001F00
3E003E00
3E003E00
1F007C00
0FC1F800
03FFE000
00FF8000
ENDCHAR
STARTCHAR uni1E4F
ENCODING 7759
SWIDTH 617 0
DWIDTH 21 0
BBX 19 30 1 0
BITMAP
0E1C00
0E1C00
0E1C00
0E1C00
000000
078600
0FFE00
1FFE00
1FFC00
183800
000000
000000
03F800
0FFE00
3F1F80
3C0780
7C07C0
7803C0
F803E0
F803E0
F803E0
F803E0
F803E0
F803E0
7803C0
7C07C0
3C0780
3F1F80
0FFE00
03F800
ENDCHAR
STARTCHAR uni1E50
ENCODING 7760
SWIDTH 810 0
DWIDTH 28 0
BBX 25 35 1 0
BITMAP
01F00000
00700000
00380000
001C0000
000E0000
00000000
00FFC000
00FFC000
00FFC000
00000000
00FF8000
03FFE000
0FC1F800
1F007C00
3E003E00
3C001E00
7C001F00
7C001F00
F8000F80
F8000F80
F8000F80
F8000F80
F8000F80
F8000F80
F8000F80
F8000F80
F8000F80
7C001F00
7C001F00
3E003E00
3E003E00
1F007C00
0FC1F800
03FFE000
00FF8000
ENDCHAR
STARTCHAR uni1E51
ENCODING 7761
SWIDTH 617 0
DWIDTH 21 0
BBX 19 28 1 0
BITMAP
0F8000
038000
01C000
00E000
007000
000000
07FE00
07FE00
07FE00
000000
03F800
0FFE00
3F1F80
3C0780
7C07C0
7803C0
F803E0
F803E0
F803E0
F803E0
F803E0
F803E0
7803C0
7C07C0
3C0780
3F1F80
0FFE00
03F800
ENDCHAR
STARTCHAR uni1E52
ENCODING 7762
SWIDTH 810 0
DWIDTH 28 0
BBX 25 35 1 0
BITMAP
0007C000
000F0000
000E0000
001C0000
00380000
00000000
00FFC000
00FFC000
00FFC000
00000000
00FF8000
03FFE000
0FC1F800
1F007C00
3E003E00
3C001E00
7C001F00
7C001F00
F8000F80
F8000F80
F8000F80
F8000F80
F8000F80
F8000F80
F8000F80
F8000F80
F8000F80
7C001F00
7C001F00
3E003E00
3E003E00
1F007C00
0FC1F800
03FFE000
00FF8000
ENDCHAR
STARTCHAR uni1E53
ENCODING 7763
SWIDTH 617 0
DWIDTH 21 0
BBX 19 28 1 0
BITMAP
003E00
007800
007000
00E000
01C000
000000
07FE00
07FE00
07FE00
000000
03F800
0FFE00
3F1F80
3C0780
7C07C0
7803C0
F803E0
F803E0
F803E0
F803E0
F803E0
F803E0
7803C0
7C07C0
3C0780
3F1F80
0FFE00
03F800
ENDCHAR
STARTCHAR uni1E54
ENCODING 7764
SWIDTH 614 0
DWIDTH 21 0
BBX 20 31 0 0
BITMAP
003E00
007800
007000
00E000
01C000
000000
FFFF00
FFFFC0
3F07E0
1F03E0
1F01F0
1F01F0
1F01F0
1F01F0
1F01F0
1F01F0
1F03E0
1F03C0
1F0FC0
1FFF00
1FFC00
1F0000
1F0000
1F0000
1F0000
1F0000
1F0000
1F0000
3F8000
FFE000
FFE000
ENDCHAR
STARTCHAR uni1E55
ENCODING 7765
SWIDTH 652 0
DWIDTH 22 0
BBX 21 31 0 -7
BITMAP
001F00
003C00
003800
007000
00E000
000000
FF0F80
FF3FC0
3F7FE0
1F7FF0
1FC3F0
1F81F8
1F00F8
1F00F8
1F00F8
1F00F8
1F00F8
1F00F8
1F01F0
1F01F0
1FC3F0
1FFFE0
1F7FC0
1F1F00
1F0000
1F0000
1F0000
1F0000
3F8000
FFE000
FFE000
ENDCHAR
STARTCHAR uni1E56
ENCODING 7766
SWIDTH 614 0
DWIDTH 21 0
BBX 20 31 0 0
BITMAP
00F000
00F000
00F000
00F000
00F000
000000
FFFF00
FFFFC0
3F07E0
1F03E0
1F01F0
1F01F0
1F01F0
1F01F0
1F01F0
1F01F0
1F03E0
1F03C0
1F0FC0
1FFF00
1FFC00
1F0000
1F0000
1F0000
1F0000
1F0000
1F0000
1F0000
3F8000
FFE000
FFE000
ENDCHAR
STARTCHAR uni1E57
ENCODING 7767
SWIDTH 652 0
DWIDTH 22 0
BBX 21 31 0 -7
BITMAP
007800
007800
007800
007800
007800
000000
FF0F80
FF3FC0
3F7FE0
1F7FF0
1FC3F0
1F81F8
1F00F8
1F00F8
1F00F8
1F00F8
1F00F8
1F00F8
1F01F0
1F01F0
1FC3F0
1FFFE0
1F7FC0
1F1F00
1F0000
1F0000
1F0000
1F0000
3F8000
FFE000
FFE000
ENDCHAR
STARTCHAR uni1E58
ENCODING 7768
SWIDTH 720 0
DWIDTH 24 0
BBX 24 31 1 0
BITMAP
007800
007800
007800
007800
007800
000000
FFFF00
FFFFC0
3F07E0
1F03E0
1F01F0
1F01F0
1F01F0
1F01F0
1F01F0
1F03E0
1F07E0
1F0FC0
1FFF80
1FFF00
1F3F00
1F1F80
1F0FC0
1F0FC0
1F07E0
1F03F0
1F03F0
1F01F8
3F81FC
FFC0FF
FFC07F
ENDCHAR
STARTCHAR uni1E59
ENCODING 7769
SWIDTH 462 0
DWIDTH 16 0
BBX 15 24 0 0
BITMAP
03C0
03C0
03C0
03C0
03C0
0000
FF0E
FF3E
3F7E
1FFE
1F8E
1F0E
1F00
1F00
1F00
1F00
1F00
1F00
1F00
1F00
1F00
3F80
FFE0
FFE0
ENDCHAR
STARTCHAR uni1E5A
ENCODING 7770
SWIDTH 720 0
DWIDTH 24 0
BBX 24 31 1 -6
BITMAP
FFFF00
FFFFC0
3F07E0
1F03E0
1F01F0
1F01F0
1F01F0
1F01F0
1F01F0
1F03E0
1F07E0
1F0FC0
1FFF80
1FFF00
1F3F00
1F1F80
1F0FC0
1F0FC0
1F07E0
1F03F0
1F03F0
1F01F8
3F81FC
FFC0FF
FFC07F
000000
003C00
003C00
003C00
003C00
003C00
ENDCHAR
STARTCHAR uni1E5B
ENCODING 7771
SWIDTH 462 0
DWIDTH 16 0
BBX 15 24 0 -6
BITMAP
FF0E
FF3E
3F7E
1FFE
1F8E
1F0E
1F00
1F00
1F00
1F00
1F00
1F00
1F00
1F00
1F00
3F80
FFE0
FFE0
0000
0F00
0F00
0F00
0F00
0F00
ENDCHAR
STARTCHAR uni1E5C
ENCODING 7772
SWIDTH 720 0
DWIDTH 24 0
BBX 24 35 1 -6
BITMAP
03FF00
03FF00
03FF00
000000
FFFF00
FFFFC0
3F07E0
1F03E0
1F01F0
1F01F0
1F01F0
1F01F0
1F01F0
1F03E0
1F07E0
1F0FC0
1FFF80
1FFF00
1F3F00
1F1F80
1F0FC0
1F0FC0
1F07E0
1F03F0
1F03F0
1F01F8
3F81FC
FFC0FF
FFC07F
000000
003C00
003C00
003C00
003C00
003C00
ENDCHAR
STARTCHAR uni1E5D
ENCODING 7773
SWIDTH 462 0
DWIDTH 16 0
BBX 15 28 0 -6
BITMAP
1FF8
1FF8
1FF8
0000
FF0E
FF3E
3F7E
1FFE
1F8E
1F0E
1F00
1F00
1F00
1F00
1F00
1F00
1F00
1F00
1F00
3F80
FFE0
FFE0
0000
0F00
0F00
0F00
0F00
0F00
ENDCHAR
STARTCHAR uni1E5E
ENCODING 7774
SWIDTH 720 0
DWIDTH 24 0
BBX 24 29 1 -4
BITMAP
FFFF00
FFFFC0
3F07E0
1F03E0
1F01F0
1F01F0
1F01F0
1F01F0
1F01F0
1F03E0
1F07E0
1F0FC0
1FFF80
1FFF00
1F3F00
1F1F80
1F0FC0
1F0FC0
1F07E0
1F03F0
1F03F0
1F01F8
3F81FC
FFC0FF
FFC07F
000000
01FF80
01FF80
01FF80
ENDCHAR
STARTCHAR uni1E5F
ENCODING 7775
SWIDTH 462 0
DWIDTH 16 0
BBX 15 22 0 -4
BITMAP
FF0E
FF3E
3F7E
1FFE
1F8E
1F0E
1F00
1F00
1F00
1F00
1F00
1F00
1F00
1F00
1F00
3F80
FFE0
FFE0
0000
7FE0
7FE0
7FE0
ENDCHAR
STARTCHAR uni1E60
ENCODING 7776
SWIDTH 556 0
DWIDTH 19 0
BBX 16 31 2 0
BITMAP
03C0
03C0
03C0
03C0
03C0
0000
07F8
1FFE
3E1E
7C0E
F80E
F80E
F800
FC00
FE00
7F00
7FC0
3FF0
0FF8
03FC
01FE
007F
003F
001F
001F
E01F
E01F
E03E
F87C
FFF8
3FE0
ENDCHAR
STARTCHAR uni1E61
ENCODING 7777
SWIDTH 525 0
DWIDTH 18 0
BBX 15 24 2 0
BITMAP
0780
0780
0780
0780
0780
0000
0FE0
3FF8
7C78
F838
F838
FC38
FF00
7FE0
7FF8
3FFC
0FFE
01FE
E07E
E03E
E03E
F87C
FFF8
3FE0
ENDCHAR
STARTCHAR uni1E62
ENCODING 7778
SWIDTH 556 0
DWIDTH 19 0
BBX 16 31 2 -6
BITMAP
07F8
1FFE
3E1E
7C0E
F80E
F80E
F800
FC00
FE00
7F00
7FC0
3FF0
0FF8
03FC
01FE
007F
003F
001F
001F
E01F
E01F
E03E
F87C
FFF8
3FE0
0000
03C0
03C0
03C0
03C0
03C0
ENDCHAR
STARTCHAR uni1E63
ENCODING 7779
SWIDTH 525 0
DWIDTH 18 0
BBX 15 24 2 -6
BITMAP
0FE0
3FF8
7C78
F838
F838
FC38
FF00
7FE0
7FF8
3FFC
0FFE
01FE
E07E
E03E
E03E
F87C
FFF8
3FE0
0000
0780
0780
0780
0780
0780
ENDCHAR
STARTCHAR uni1E64
ENCODING 7780
SWIDTH 556 0
DWIDTH 19 0
BBX 16 37 2 0
BITMAP
01E0
01E0
01E0
01E0
01E0
0000
00F8
01E0
01C0
0380
0700
0000
07F8
1FFE
3E1E
7C0E
F80E
F80E
F800
FC00
FE00
7F00
7FC0
3FF0
0FF8
03FC
01FE
007F
003F
001F
001F
E01F
E01F
E03E
F87C
FFF8
3FE0
ENDCHAR
STARTCHAR uni1E65
ENCODING 7781
SWIDTH 525 0
DWIDTH 18 0
BBX 15 30 2 0
BITMAP
03C0
03C0
03C0
03C0
03C0
0000
01F0
03C0
0380
0700
0E00
0000
0FE0
3FF8
7C78
F838
F838
FC38
FF00
7FE0
7FF8
3FFC
0FFE
01FE
E07E
E03E
E03E
F87C
FFF8
3FE0
ENDCHAR
STARTCHAR uni1E66
ENCODING 7782
SWIDTH 556 0
DWIDTH 19 0
BBX 16 38 2 0
BITMAP
03C0
03C0
03C0
03C0
03C0
0000
381C
1C38
0E70
07E0
07E0
0000
0000
07F8
1FFE
3E1E
7C0E
F80E
F80E
F800
FC00
FE00
7F00
7FC0
3FF0
0FF8
03FC
01FE
007F
003F
001F
001F
E01F
E01F
E03E
F87C
FFF8
3FE0
ENDCHAR
STARTCHAR uni1E67
ENCODING 7783
SWIDTH 525 0
DWIDTH 18 0
BBX 15 31 2 0
BITMAP
0780
0780
0780
0780
0780
0000
7038
3870
1CE0
0FC0
0FC0
0000
0000
0FE0
3FF8
7C78
F838
F838
FC38
FF00
7FE0
7FF8
3FFC
0FFE
01FE
E07E
E03E
E03E
F87C
FFF8
3FE0
ENDCHAR
STARTCHAR uni1E68
ENCODING 7784
SWIDTH 556 0
DWIDTH 19 0
BBX 16 37 2 -6
BITMAP
0780
0780
0780
0780
0780
0000
07F8
1FFE
3E1E
7C0E
F80E
F80E
F800
FC00
FE00
7F00
7FC0
3FF0
0FF8
03FC
01FE
007F
003F
001F
001F
E01F
E01F
E03E
F87C
FFF8
3FE0
0000
03C0
03C0
03C0
03C0
03C0
ENDCHAR
STARTCHAR uni1E69
ENCODING 7785
SWIDTH 525 0
DWIDTH 18 0
BBX 15 30 2 -6
BITMAP
0780
0780
0780
0780
0780
0000
0FE0
3FF8
7C78
F838
F838
FC38
FF00
7FE0
7FF8
3FFC
0FFE
01FE
E07E
E03E
E03E
F87C
FFF8
3FE0
0000
0780
0780
0780
0780
0780
ENDCHAR
STARTCHAR uni1E6A
ENCODING 7786
SWIDTH 714 0
DWIDTH 24 0
BBX 23 31 1 0
BITMAP
003C00
003C00
003C00
003C00
003C00
000000
FFFFFE
FFFFFE
E07C1E
E07C0E
E07C0E
007C00
007C00
007C00
007C00
007C00
007C00
007C00
007C00
007C00
007C00
007C00
007C00
007C00
007C00
007C00
007C00
007C00
00FE00
03FF80
03FF80
ENDCHAR
STARTCHAR uni1E6B
ENCODING 7787
SWIDTH 389 0
DWIDTH 13 0
BBX 11 29 1 0
BITMAP
1E00
1E00
1E00
1E00
1E00
0000
0600
3E00
3E00
3E00
3E00
FFE0
FFE0
3E00
3E00
3E00
3E00
3E00
3E00
3E00
3E00
3E00
3E00
3E00
3E00
3F00
1FE0
1FE0
07E0
ENDCHAR
STARTCHAR uni1E6C
ENCODING 7788
SWIDTH 714 0
DWIDTH 24 0
BBX 23 31 1 -6
BITMAP
FFFFFE
FFFFFE
E07C1E
E07C0E
E07C0E
007C00
007C00
007C00
007C00
007C00
007C00
007C00
007C00
007C00
007C00
007C00
007C00
007C00
007C00
007C00
007C00
007C00
00FE00
03FF80
03FF80
000000
003C00
003C00
003C00
003C00
003C00
ENDCHAR
STARTCHAR uni1E6D
ENCODING 7789
SWIDTH 389 0
DWIDTH 13 0
BBX 11 29 1 -6
BITMAP
0600
3E00
3E00
3E00
3E00
FFE0
FFE0
3E00
3E00
3E00
3E00
3E00
3E00
3E00
3E00
3E00
3E00
3E00
3E00
3F00
1FE0
1FE0
07E0
0000
0F00
0F00
0F00
0F00
0F00
ENDCHAR
STARTCHAR uni1E6E
ENCODING 7790
SWIDTH 714 0
DWIDTH 24 0
BBX 23 29 1 -4
BITMAP
FFFFFE
FFFFFE
E07C1E
E07C0E
E07C0E
007C00
007C00
007C00
007C00
007C00
007C00
007C00
007C00
007C00
007C00
007C00
007C00
007C00
007C00
007C00
007C00
007C00
00FE00
03FF80
03FF80
000000
01FF80
01FF80
01FF80
ENDCHAR
STARTCHAR uni1E6F
ENCODING 7791
SWIDTH 389 0
DWIDTH 13 0
BBX 11 27 1 -4
BITMAP
0600
3E00
3E00
3E00
3E00
FFE0
FFE0
3E00
3E00
3E00
3E00
3E00
3E00
3E00
3E00
3E00
3E00
3E00
3E00
3F00
1FE0
1FE0
07E0
0000
7FE0
7FE0
7FE0
ENDCHAR
STARTCHAR uni1E70
ENCODING 7792
SWIDTH 714 0
DWIDTH 24 0
BBX 23 31 1 -6
BITMAP
FFFFFE
FFFFFE
E07C1E
E07C0E
E07C0E
007C00
007C00
007C00
007C00
007C00
007C00
007C00
007C00
007C00
007C00
007C00
007C00
007C00
007C00
007C00
007C00
007C00
00FE00
03FF80
03FF80
000000
007E00
007E00
00E700
01C380
0381C0
ENDCHAR
STARTCHAR uni1E71
ENCODING 7793
SWIDTH 389 0
DWIDTH 13 0
BBX 12 29 1 -6
BITMAP
0600
3E00
3E00
3E00
3E00
FFE0
FFE0
3E00
3E00
3E00
3E00
3E00
3E00
3E00
3E00
3E00
3E00
3E00
3E00
3F00
1FE0
1FE0
07E0
0000
1F80
1F80
39C0
70E0
E070
ENDCHAR
STARTCHAR uni1E72
ENCODING 7794
SWIDTH 747 0
DWIDTH 25 0
BBX 25 30 0 -5
BITMAP
FFE0FF80
FFE0FF80
3F803E00
1F001C00
1F001C00
1F001C00
1F001C00
1F001C00
1F001C00
1F001C00
1F001C00
1F001C00
1F001C00
1F001C00
1F001C00
1F001C00
1F001C00
1F001C00
1F001C00
0F003C00
0F803800
0F807800
07E0F000
03FFE000
007F8000
00000000
01C38000
01C38000
01C38000
01C38000
ENDCHAR
STARTCHAR uni1E73
ENCODING 7795
SWIDTH 654 0
DWIDTH 22 0
BBX 22 23 0 -5
BITMAP
FF1FE0
FF1FE0
3F07E0
1F03E0
1F03E0
1F03E0
1F03E0
1F03E0
1F03E0
1F03E0
1F03E0
1F03E0
1F07E0
1F0FE0
1FFBE0
0FFBF8
0FF3FC
03C3FC
000000
01C380
01C380
01C380
01C380
ENDCHAR
STARTCHAR uni1E74
ENCODING 7796
SWIDTH 747 0
DWIDTH 25 0
BBX 25 31 0 -6
BITMAP
FFE0FF80
FFE0FF80
3F803E00
1F001C00
1F001C00
1F001C00
1F001C00
1F001C00
1F001C00
1F001C00
1F001C00
1F001C00
1F001C00
1F001C00
1F001C00
1F001C00
1F001C00
1F001C00
1F001C00
0F003C00
0F803800
0F807800
07E0F000
03FFE000
007F8000
00000000
00F0C000
01FFC000
03FFC000
03FF8000
03070000
ENDCHAR
STARTCHAR uni1E75
ENCODING 7797
SWIDTH 654 0
DWIDTH 22 0
BBX 22 24 0 -6
BITMAP
FF1FE0
FF1FE0
3F07E0
1F03E0
1F03E0
1F03E0
1F03E0
1F03E0
1F03E0
1F03E0
1F03E0
1F03E0
1F07E0
1F0FE0
1FFBE0
0FFBF8
0FF3FC
03C3FC
000000
00F0C0
01FFC0
03FFC0
03FF80
030700
ENDCHAR
STARTCHAR uni1E76
ENCODING 7798
SWIDTH 747 0
DWIDTH 25 0
BBX 25 31 0 -6
BITMAP
FFE0FF80
FFE0FF80
3F803E00
1F001C00
1F001C00
1F001C00
1F001C00
1F001C00
1F001C00
1F001C00
1F001C00
1F001C00
1F001C00
1F001C00
1F001C00
1F001C00
1F001C00
1F001C00
1F001C00
0F003C00
0F803800
0F807800
07E0F000
03FFE000
007F8000
00000000
007E0000
007E0000
00E70000
01C38000
0381C000
ENDCHAR
STARTCHAR uni1E77
ENCODING 7799
SWIDTH 654 0
DWIDTH 22 0
BBX 22 24 0 -6
BITMAP
FF1FE0
FF1FE0
3F07E0
1F03E0
1F03E0
1F03E0
1F03E0
1F03E0
1F03E0
1F03E0
1F03E0
1F03E0
1F07E0
1F0FE0
1FFBE0
0FFBF8
0FF3FC
03C3FC
000000
007E00
007E00
00E700
01C380
0381C0
ENDCHAR
STARTCHAR uni1E78
ENCODING 7800
SWIDTH 747 0
DWIDTH 25 0
BBX 25 37 0 0
BITMAP
0007C000
000F0000
000E0000
001C0000
00380000
00000000
00F0C000
01FFC000
03FFC000
03FF8000
03070000
00000000
FFE0FF80
FFE0FF80
3F803E00
1F001C00
1F001C00
1F001C00
1F001C00
1F001C00
1F001C00
1F001C00
1F001C00
1F001C00
1F001C00
1F001C00
1F001C00
1F001C00
1F001C00
1F001C00
1F001C00
0F003C00
0F803800
0F807800
07E0F000
03FFE000
007F8000
ENDCHAR
STARTCHAR uni1E79
ENCODING 7801
SWIDTH 654 0
DWIDTH 22 0
BBX 22 30 0 0
BITMAP
001F00
003C00
003800
007000
00E000
000000
01E180
03FF80
07FF80
07FF00
060E00
000000
FF1FE0
FF1FE0
3F07E0
1F03E0
1F03E0
1F03E0
1F03E0
1F03E0
1F03E0
1F03E0
1F03E0
1F03E0
1F07E0
1F0FE0
1FFBE0
0FFBF8
0FF3FC
03C3FC
ENDCHAR
STARTCHAR uni1E7A
ENCODING 7802
SWIDTH 747 0
DWIDTH 25 0
BBX 25 34 0 0
BITMAP
01C38000
01C38000
01C38000
01C38000
00000000
01FF8000
01FF8000
01FF8000
00000000
FFE0FF80
FFE0FF80
3F803E00
1F001C00
1F001C00
1F001C00
1F001C00
1F001C00
1F001C00
1F001C00
1F001C00
1F001C00
1F001C00
1F001C00
1F001C00
1F001C00
1F001C00
1F001C00
1F001C00
0F003C00
0F803800
0F807800
07E0F000
03FFE000
007F8000
ENDCHAR
STARTCHAR uni1E7B
ENCODING 7803
SWIDTH 654 0
DWIDTH 22 0
BBX 22 27 0 0
BITMAP
070E00
070E00
070E00
070E00
000000
07FE00
07FE00
07FE00
000000
FF1FE0
FF1FE0
3F07E0
1F03E0
1F03E0
1F03E0
1F03E0
1F03E0
1F03E0
1F03E0
1F03E0
1F03E0
1F07E0
1F0FE0
1FFBE0
0FFBF8
0FF3FC
03C3FC
ENDCHAR
STARTCHAR uni1E7C
ENCODING 7804
SWIDTH 753 0
DWIDTH 26 0
BBX 26 31 0 0
BITMAP
00F0C000
01FFC000
03FFC000
03FF8000
03070000
00000000
FFE01FC0
FFE01FC0
3F800700
1F800600
1F800600
0F800E00
0FC00C00
07C01C00
07E01800
03E03800
03F03000
03F03000
01F07000
01F86000
00F8E000
00FCC000
007CC000
007F8000
003F8000
003F8000
003F0000
001F0000
001E0000
000E0000
000C0000
ENDCHAR
STARTCHAR uni1E7D
ENCODING 7805
SWIDTH 657 0
DWIDTH 22 0
BBX 22 24 0 0
BITMAP
01E180
03FF80
07FF80
07FF00
060E00
000000
FFC1FC
FFC1FC
3F0070
1F0060
1F80E0
0F80C0
0FC1C0
07C180
07E380
03E300
03F700
01F600
01FE00
00FC00
00FC00
007800
007800
003000
ENDCHAR
STARTCHAR uni1E7E
ENCODING 7806
SWIDTH 753 0
DWIDTH 26 0
BBX 26 31 0 -6
BITMAP
FFE01FC0
FFE01FC0
3F800700
1F800600
1F800600
0F800E00
0FC00C00
07C01C00
07E01800
03E03800
03F03000
03F03000
01F07000
01F86000
00F8E000
00FCC000
007CC000
007F8000
003F8000
003F8000
003F0000
001F0000
001E0000
000E0000
000C0000
00000000
001E0000
001E0000
001E0000
001E0000
001E0000
ENDCHAR
STARTCHAR uni1E7F
ENCODING 7807
SWIDTH 657 0
DWIDTH 22 0
BBX 22 24 0 -6
BITMAP
FFC1FC
FFC1FC
3F0070
1F0060
1F80E0
0F80C0
0FC1C0
07C180
07E380
03E300
03F700
01F600
01FE00
00FC00
00FC00
007800
007800
003000
000000
007800
007800
007800
007800
007800
ENDCHAR
STARTCHAR Wgrave
ENCODING 7808
SWIDTH 955 0
DWIDTH 32 0
BBX 32 31 0 0
BITMAP
007C0000
001C0000
000E0000
00070000
00038000
00000000
FF80C03F
FF80E03F
7E01E00C
3F01E01C
3F01F018
1F03F018
1F03F010
1F83F030
0F87F830
0F86F830
0FC6F860
0FCEFC60
07CC7C60
07CC7CC0
07FC7EC0
03F83EC0
03F83F80
03F83F80
03F01F80
01F01F80
01F01F00
01E00F00
00E00F00
00E00E00
00C00600
ENDCHAR
STARTCHAR wgrave
ENCODING 7809
SWIDTH 880 0
DWIDTH 30 0
BBX 30 24 0 0
BITMAP
007C0000
001C0000
000E0000
00070000
00038000
00000000
FFC1C1FC
FFC1C1FC
7E03E070
3F03E060
1F07E060
1F07F0E0
1F87F0C0
0F8FF8C0
0F8CF9C0
07DCF980
07D8FF80
07F87F00
03F07F00
03F03F00
03E03E00
01E01E00
01C01C00
00C01C00
ENDCHAR
STARTCHAR Wacute
ENCODING 7810
SWIDTH 955 0
DWIDTH 32 0
BBX 32 31 0 0
BITMAP
0001F000
0003C000
00038000
00070000
000E0000
00000000
FF80C03F
FF80E03F
7E01E00C
3F01E01C
3F01F018
1F03F018
1F03F010
1F83F030
0F87F830
0F86F830
0FC6F860
0FCEFC60
07CC7C60
07CC7CC0
07FC7EC0
03F83EC0
03F83F80
03F83F80
03F01F80
01F01F80
01F01F00
01E00F00
00E00F00
00E00E00
00C00600
ENDCHAR
STARTCHAR wacute
ENCODING 7811
SWIDTH 880 0
DWIDTH 30 0
BBX 30 24 0 0
BITMAP
0003E000
00078000
00070000
000E0000
001C0000
00000000
FFC1C1FC
FFC1C1FC
7E03E070
3F03E060
1F07E060
1F07F0E0
1F87F0C0
0F8FF8C0
0F8CF9C0
07DCF980
07D8FF80
07F87F00
03F07F00
03F03F00
03E03E00
01E01E00
01C01C00
00C01C00
ENDCHAR
STARTCHAR Wdieresis
ENCODING 7812
SWIDTH 955 0
DWIDTH 32 0
BBX 32 30 0 0
BITMAP
00387000
00387000
00387000
00387000
00000000
FF80C03F
FF80E03F
7E01E00C
3F01E01C
3F01F018
1F03F018
1F03F010
1F83F030
0F87F830
0F86F830
0FC6F860
0FCEFC60
07CC7C60
07CC7CC0
07FC7EC0
03F83EC0
03F83F80
03F83F80
03F01F80
01F01F80
01F01F00
01E00F00
00E00F00
00E00E00
00C00600
ENDCHAR
STARTCHAR wdieresis
ENCODING 7813
SWIDTH 880 0
DWIDTH 30 0
BBX 30 23 0 0
BITMAP
0070E000
0070E000
0070E000
0070E000
00000000
FFC1C1FC
FFC1C1FC
7E03E070
3F03E060
1F07E060
1F07F0E0
1F87F0C0
0F8FF8C0
0F8CF9C0
07DCF980
07D8FF80
07F87F00
03F07F00
03F03F00
03E03E00
01E01E00
01C01C00
00C01C00
ENDCHAR
STARTCHAR uni1E86
ENCODING 7814
SWIDTH 955 0
DWIDTH 32 0
BBX 32 31 0 0
BITMAP
00078000
00078000
00078000
00078000
00078000
00000000
FF80C03F
FF80E03F
7E01E00C
3F01E01C
3F01F018
1F03F018
1F03F010
1F83F030
0F87F830
0F86F830
0FC6F860
0FCEFC60
07CC7C60
07CC7CC0
07FC7EC0
03F83EC0
03F83F80
03F83F80
03F01F80
01F01F80
01F01F00
01E00F00
00E00F00
00E00E00
00C00600
ENDCHAR
STARTCHAR uni1E87
ENCODING 7815
SWIDTH 880 0
DWIDTH 30 0
BBX 30 24 0 0
BITMAP
000F0000
000F0000
000F0000
000F0000
000F0000
00000000
FFC1C1FC
FFC1C1FC
7E03E070
3F03E060
1F07E060
1F07F0E0
1F87F0C0
0F8FF8C0
0F8CF9C0
07DCF980
07D8FF80
07F87F00
03F07F00
03F03F00
03E03E00
01E01E00
01C01C00
00C01C00
ENDCHAR
STARTCHAR uni1E88
ENCODING 7816
SWIDTH 955 0
DWIDTH 32 0
BBX 32 31 0 -6
BITMAP
FF80C03F
FF80E03F
7E01E00C
3F01E01C
3F01F018
1F03F018
1F03F010
1F83F030
0F87F830
0F86F830
0FC6F860
0FCEFC60
07CC7C60
07CC7CC0
07FC7EC0
03F83EC0
03F83F80
03F83F80
03F01F80
01F01F80
01F01F00
01E00F00
00E00F00
00E00E00
00C00600
00000000
0003C000
0003C000
0003C000
0003C000
0003C000
ENDCHAR
STARTCHAR uni1E89
ENCODING 7817
SWIDTH 880 0
DWIDTH 30 0
BBX 30 24 0 -6
BITMAP
FFC1C1FC
FFC1C1FC
7E03E070
3F03E060
1F07E060
1F07F0E0
1F87F0C0
0F8FF8C0
0F8CF9C0
07DCF980
07D8FF80
07F87F00
03F07F00
03F03F00
03E03E00
01E01E00
01C01C00
00C01C00
00000000
00078000
00078000
00078000
00078000
00078000
ENDCHAR
STARTCHAR uni1E8A
ENCODING 7818
SWIDTH 702 0
DWIDTH 24 0
BBX 24 31 0 0
BITMAP
007800
007800
007800
007800
007800
000000
7FE07F
7FE07F
3F801C
1FC038
0FC030
07E070
07E0E0
03F0C0
01F180
01FB80
00FF00
007E00
007E00
00FF00
01FF80
03DF80
038FC0
0787E0
0F07E0
0E03F0
1E03F8
3C01F8
7800FC
FE07FF
FE07FF
ENDCHAR
STARTCHAR uni1E8B
ENCODING 7819
SWIDTH 608 0
DWIDTH 21 0
BBX 21 24 0 0
BITMAP
00F000
00F000
00F000
00F000
00F000
000000
FFE3F8
FFE3F8
3F81E0
1F8180
0FC380
07E700
03FE00
03FC00
01F800
00FC00
01FE00
03FF00
073F80
0E1F80
1C0FC0
3807E0
FE1FF8
FE1FF8
ENDCHAR
STARTCHAR uni1E8C
ENCODING 7820
SWIDTH 702 0
DWIDTH 24 0
BBX 24 30 0 0
BITMAP
038700
038700
038700
038700
000000
7FE07F
7FE07F
3F801C
1FC038
0FC030
07E070
07E0E0
03F0C0
01F180
01FB80
00FF00
007E00
007E00
00FF00
01FF80
03DF80
038FC0
0787E0
0F07E0
0E03F0
1E03F8
3C01F8
7800FC
FE07FF
FE07FF
ENDCHAR
STARTCHAR uni1E8D
ENCODING 7821
SWIDTH 608 0
DWIDTH 21 0
BBX 21 23 0 0
BITMAP
070E00
070E00
070E00
070E00
000000
FFE3F8
FFE3F8
3F81E0
1F8180
0FC380
07E700
03FE00
03FC00
01F800
00FC00
01FE00
03FF00
073F80
0E1F80
1C0FC0
3807E0
FE1FF8
FE1FF8
ENDCHAR
STARTCHAR uni1E8E
ENCODING 7822
SWIDTH 717 0
DWIDTH 24 0
BBX 25 31 0 0
BITMAP
003C0000
003C0000
003C0000
003C0000
003C0000
00000000
FFE03F80
FFE03F80
3F800E00
1F800C00
0FC01C00
0FC03800
07E03000
03F07000
03F06000
01F8C000
00FDC000
00FD8000
007F0000
003F0000
003E0000
003E0000
003E0000
003E0000
003E0000
003E0000
003E0000
003E0000
007F0000
01FFC000
01FFC000
ENDCHAR
STARTCHAR uni1E8F
ENCODING 7823
SWIDTH 654 0
DWIDTH 22 0
BBX 22 31 0 -7
BITMAP
00F000
00F000
00F000
00F000
00F000
000000
FFC0FC
FFC0FC
3F0070
1F0060
1F8060
0F80C0
0FC0C0
07C180
07E380
07E300
03E700
03F600
01FE00
01FC00
00F800
00F800
007000
007000
002000
006000
00C000
01C000
038000
078000
1F0000
ENDCHAR
STARTCHAR uni1E90
ENCODING 7824
SWIDTH 639 0
DWIDTH 22 0
BBX 18 31 2 0
BITMAP
01F800
01F800
039C00
070E00
0E0700
000000
7FFFC0
7FFFC0
700FC0
701F80
701F80
003F00
003E00
007E00
00FC00
00FC00
01F800
01F000
03F000
03E000
07E000
0FC000
0FC000
1F8000
1F0000
3F0000
7E01C0
7E01C0
FC01C0
FFFFC0
FFFFC0
ENDCHAR
STARTCHAR uni1E91
ENCODING 7825
SWIDTH 584 0
DWIDTH 20 0
BBX 16 24 2 0
BITMAP
03F0
03F0
0738
0E1C
1C0E
0000
7FFF
7FFF
607F
607E
70FC
01F8
01F8
03F0
07E0
0FE0
0FC0
1F80
3F00
3F07
7E07
FC07
FFFF
FFFF
ENDCHAR
STARTCHAR uni1E92
ENCODING 7826
SWIDTH 639 0
DWIDTH 22 0
BBX 18 31 2 -6
BITMAP
7FFFC0
7FFFC0
700FC0
701F80
701F80
003F00
003E00
007E00
00FC00
00FC00
01F800
01F000
03F000
03E000
07E000
0FC000
0FC000
1F8000
1F0000
3F0000
7E01C0
7E01C0
FC01C0
FFFFC0
FFFFC0
000000
03C000
03C000
03C000
03C000
03C000
ENDCHAR
STARTCHAR uni1E93
ENCODING 7827
SWIDTH 584 0
DWIDTH 20 0
BBX 16 24 2 -6
BITMAP
7FFF
7FFF
607F
607E
70FC
01F8
01F8
03F0
07E0
0FE0
0FC0
1F80
3F00
3F07
7E07
FC07
FFFF
FFFF
0000
03C0
03C0
03C0
03C0
03C0
ENDCHAR
STARTCHAR uni1E94
ENCODING 7828
SWIDTH 639 0
DWIDTH 22 0
BBX 18 29 2 -4
BITMAP
7FFFC0
7FFFC0
700FC0
701F80
701F80
003F00
003E00
007E00
00FC00
00FC00
01F800
01F000
03F000
03E000
07E000
0FC000
0FC000
1F8000
1F0000
3F0000
7E01C0
7E01C0
FC01C0
FFFFC0
FFFFC0
000000
1FF800
1FF800
1FF800
ENDCHAR
STARTCHAR uni1E95
ENCODING 7829
SWIDTH 584 0
DWIDTH 20 0
BBX 16 22 2 -4
BITMAP
7FFF
7FFF
607F
607E
70FC
01F8
01F8
03F0
07E0
0FE0
0FC0
1F80
3F00
3F07
7E07
FC07
FFFF
FFFF
0000
1FF8
1FF8
1FF8
ENDCHAR
STARTCHAR uni1E96
ENCODING 7830
SWIDTH 654 0
DWIDTH 22 0
BBX 22 30 0 -4
BITMAP
FF0000
FF0000
3F0000
1F0000
1F0000
1F0000
1F0000
1F0000
1F0F00
1F3FC0
1F7FC0
1F7FE0
1FC3E0
1F83E0
1F03E0
1F03E0
1F03E0
1F03E0
1F03E0
1F03E0
1F03E0
1F03E0
1F03E0
3F87F0
FFFFFC
FFFFFC
000000
03FF00
03FF00
03FF00
ENDCHAR
STARTCHAR uni1E97
ENCODING 7831
SWIDTH 389 0
DWIDTH 13 0
BBX 11 28 1 0
BITMAP
E1C0
E1C0
E1C0
E1C0
0000
0600
3E00
3E00
3E00
3E00
FFE0
FFE0
3E00
3E00
3E00
3E00
3E00
3E00
3E00
3E00
3E00
3E00
3E00
3E00
3F00
1FE0
1FE0
07E0
ENDCHAR
STARTCHAR uni1E98
ENCODING 7832
SWIDTH 880 0
DWIDTH 30 0
BBX 30 24 0 0
BITMAP
00070000
000D8000
00088000
000D8000
00070000
00000000
FFC1C1FC
FFC1C1FC
7E03E070
3F03E060
1F07E060
1F07F0E0
1F87F0C0
0F8FF8C0
0F8CF9C0
07DCF980
07D8FF80
07F87F00
03F07F00
03F03F00
03E03E00
01E01E00
01C01C00
00C01C00
ENDCHAR
STARTCHAR uni1E99
ENCODING 7833
SWIDTH 654 0
DWIDTH 22 0
BBX 22 31 0 -7
BITMAP
007000
00D800
008800
00D800
007000
000000
FFC0FC
FFC0FC
3F0070
1F0060
1F8060
0F80C0
0FC0C0
07C180
07E380
07E300
03E700
03F600
01FE00
01FC00
00F800
00F800
007000
007000
002000
006000
00C000
01C000
038000
078000
1F0000
ENDCHAR
STARTCHAR uni1EA0
ENCODING 7840
SWIDTH 795 0
DWIDTH 27 0
BBX 27 31 0 -6
BITMAP
000E0000
000E0000
001F0000
001F0000
003F8000
003F8000
003FC000
006FC000
0067C000
00C7E000
00C3E000
0183F000
0181F000
0301F800
0300F800
07FFFC00
07FFFC00
0E007E00
0C003E00
1C003F00
18001F00
38001F80
78001F80
FE007FE0
FE007FE0
00000000
00078000
00078000
00078000
00078000
00078000
ENDCHAR
STARTCHAR uni1EA1
ENCODING 7841
SWIDTH 556 0
DWIDTH 19 0
BBX 17 24 1 -6
BITMAP
0FF000
3FF800
387C00
383E00
383E00
003E00
003E00
0FFE00
3FFE00
7E3E00
FC3E00
F83E00
F83E00
F83E00
FC7E00
7FDE00
7F9F80
1F0F80
000000
03C000
03C000
03C000
03C000
03C000
ENDCHAR
STARTCHAR uni1EA4
ENCODING 7844
SWIDTH 795 0
DWIDTH 27 0
BBX 27 38 0 0
BITMAP
0003E000
00078000
00070000
000E0000
001C0000
00000000
003F0000
003F0000
00738000
00E1C000
01C0E000
00000000
00000000
000E0000
000E0000
001F0000
001F0000
003F8000
003F8000
003FC000
006FC000
0067C000
00C7E000
00C3E000
0183F000
0181F000
0301F800
0300F800
07FFFC00
07FFFC00
0E007E00
0C003E00
1C003F00
18001F00
38001F80
78001F80
FE007FE0
FE007FE0
ENDCHAR
STARTCHAR uni1EA5
ENCODING 7845
SWIDTH 556 0
DWIDTH 19 0
BBX 17 31 1 0
BITMAP
007C00
00F000
00E000
01C000
038000
000000
07E000
07E000
0E7000
1C3800
381C00
000000
000000
0FF000
3FF800
387C00
383E00
383E00
003E00
003E00
0FFE00
3FFE00
7E3E00
FC3E00
F83E00
F83E00
F83E00
FC7E00
7FDE00
7F9F80
1F0F80
ENDCHAR
STARTCHAR uni1EA6
ENCODING 7846
SWIDTH 795 0
DWIDTH 27 0
BBX 27 38 0 0
BITMAP
00F80000
00380000
001C0000
000E0000
00070000
00000000
003F0000
003F0000
00738000
00E1C000
01C0E000
00000000
00000000
000E0000
000E0000
001F0000
001F0000
003F8000
003F8000
003FC000
006FC000
0067C000
00C7E000
00C3E000
0183F000
0181F000
0301F800
0300F800
07FFFC00
07FFFC00
0E007E00
0C003E00
1C003F00
18001F00
38001F80
78001F80
FE007FE0
FE007FE0
ENDCHAR
STARTCHAR uni1EA7
ENCODING 7847
SWIDTH 556 0
DWIDTH 19 0
BBX 17 31 1 0
BITMAP
1F0000
070000
038000
01C000
00E000
000000
07E000
07E000
0E7000
1C3800
381C00
000000
000000
0FF000
3FF800
387C00
383E00
383E00
003E00
003E00
0FFE00
3FFE00
7E3E00
FC3E00
F83E00
F83E00
F83E00
FC7E00
7FDE00
7F9F80
1F0F80
ENDCHAR
STARTCHAR uni1EAA
ENCODING 7850
SWIDTH 795 0
DWIDTH 27 0
BBX 27 38 0 0
BITMAP
003C3000
007FF000
00FFF000
00FFE000
00C1C000
00000000
003F0000
003F0000
00738000
00E1C000
01C0E000
00000000
00000000
000E0000
000E0000
001F0000
001F0000
003F8000
003F8000
003FC000
006FC000
0067C000
00C7E000
00C3E000
0183F000
0181F000
0301F800
0300F800
07FFFC00
07FFFC00
0E007E00
0C003E00
1C003F00
18001F00
38001F80
78001F80
FE007FE0
FE007FE0
ENDCHAR
STARTCHAR uni1EAB
ENCODING 7851
SWIDTH 556 0
DWIDTH 19 0
BBX 17 31 1 0
BITMAP
078600
0FFE00
1FFE00
1FFC00
183800
000000
07E000
07E000
0E7000
1C3800
381C00
000000
000000
0FF000
3FF800
387C00
383E00
383E00
003E00
003E00
0FFE00
3FFE00
7E3E00
FC3E00
F83E00
F83E00
F83E00
FC7E00
7FDE00
7F9F80
1F0F80
ENDCHAR
STARTCHAR uni1EAC
ENCODING 7852
SWIDTH 795 0
DWIDTH 27 0
BBX 27 37 0 -6
BITMAP
001F8000
001F8000
0039C000
0070E000
00E07000
00000000
000E0000
000E0000
001F0000
001F0000
003F8000
003F8000
003FC000
006FC000
0067C000
00C7E000
00C3E000
0183F000
0181F000
0301F800
0300F800
07FFFC00
07FFFC00
0E007E00
0C003E00
1C003F00
18001F00
38001F80
78001F80
FE007FE0
FE007FE0
00000000
00078000
00078000
00078000
00078000
00078000
ENDCHAR
STARTCHAR uni1EAD
ENCODING 7853
SWIDTH 556 0
DWIDTH 19 0
BBX 17 30 1 -6
BITMAP
03F000
03F000
073800
0E1C00
1C0E00
000000
0FF000
3FF800
387C00
383E00
383E00
003E00
003E00
0FFE00
3FFE00
7E3E00
FC3E00
F83E00
F83E00
F83E00
FC7E00
7FDE00
7F9F80
1F0F80
000000
03C000
03C000
03C000
03C000
03C000
ENDCHAR
STARTCHAR uni1EAE
ENCODING 7854
SWIDTH 795 0
DWIDTH 27 0
BBX 27 37 0 0
BITMAP
0003E000
00078000
00070000
000E0000
001C0000
00000000
00C03000
00E07000
007FE000
003FC000
001F8000
00000000
000E0000
000E0000
001F0000
001F0000
003F8000
003F8000
003FC000
006FC000
0067C000
00C7E000
00C3E000
0183F000
0181F000
0301F800
0300F800
07FFFC00
07FFFC00
0E007E00
0C003E00
1C003F00
18001F00
38001F80
78001F80
FE007FE0
FE007FE0
ENDCHAR
STARTCHAR uni1EAF
ENCODING 7855
SWIDTH 556 0
DWIDTH 19 0
BBX 17 30 1 0
BITMAP
007C00
00F000
00E000
01C000
038000
000000
300C00
381C00
1FF800
0FF000
07E000
000000
0FF000
3FF800
387C00
383E00
383E00
003E00
003E00
0FFE00
3FFE00
7E3E00
FC3E00
F83E00
F83E00
F83E00
FC7E00
7FDE00
7F9F80
1F0F80
ENDCHAR
STARTCHAR uni1EB0
ENCODING 7856
SWIDTH 795 0
DWIDTH 27 0
BBX 27 37 0 0
BITMAP
00F80000
00380000
001C0000
000E0000
00070000
00000000
00C03000
00E07000
007FE000
003FC000
001F8000
00000000
000E0000
000E0000
001F0000
001F0000
003F8000
003F8000
003FC000
006FC000
0067C000
00C7E000
00C3E000
0183F000
0181F000
0301F800
0300F800
07FFFC00
07FFFC00
0E007E00
0C003E00
1C003F00
18001F00
38001F80
78001F80
FE007FE0
FE007FE0
ENDCHAR
STARTCHAR uni1EB1
ENCODING 7857
SWIDTH 556 0
DWIDTH 19 0
BBX 17 30 1 0
BITMAP
1F0000
070000
038000
01C000
00E000
000000
300C00
381C00
1FF800
0FF000
07E000
000000
0FF000
3FF800
387C00
383E00
383E00
003E00
003E00
0FFE00
3FFE00
7E3E00
FC3E00
F83E00
F83E00
F83E00
FC7E00
7FDE00
7F9F80
1F0F80
ENDCHAR
STARTCHAR uni1EB4
ENCODING 7860
SWIDTH 795 0
DWIDTH 27 0
BBX 27 37 0 0
BITMAP
003C3000
007FF000
00FFF000
00FFE000
00C1C000
00000000
00C03000
00E07000
007FE000
003FC000
001F8000
00000000
000E0000
000E0000
001F0000
001F0000
003F8000
003F8000
003FC000
006FC000
0067C000
00C7E000
00C3E000
0183F000
0181F000
0301F800
0300F800
07FFFC00
07FFFC00
0E007E00
0C003E00
1C003F00
18001F00
38001F80
78001F80
FE007FE0
FE007FE0
ENDCHAR
STARTCHAR uni1EB5
ENCODING 7861
SWIDTH 556 0
DWIDTH 19 0
BBX 17 30 1 0
BITMAP
078600
0FFE00
1FFE00
1FFC00
183800
000000
300C00
381C00
1FF800
0FF000
07E000
000000
0FF000
3FF800
387C00
383E00
383E00
003E00
003E00
0FFE00
3FFE00
7E3E00
FC3E00
F83E00
F83E00
F83E00
FC7E00
7FDE00
7F9F80
1F0F80
ENDCHAR
STARTCHAR uni1EB6
ENCODING 7862
SWIDTH 795 0
DWIDTH 27 0
BBX 27 37 0 -6
BITMAP
00C03000
00E07000
007FE000
003FC000
001F8000
00000000
000E0000
000E0000
001F0000
001F0000
003F8000
003F8000
003FC000
006FC000
0067C000
00C7E000
00C3E000
0183F000
0181F000
0301F800
0300F800
07FFFC00
07FFFC00
0E007E00
0C003E00
1C003F00
18001F00
38001F80
78001F80
FE007FE0
FE007FE0
00000000
00078000
00078000
00078000
00078000
00078000
ENDCHAR
STARTCHAR uni1EB7
ENCODING 7863
SWIDTH 556 0
DWIDTH 19 0
BBX 17 30 1 -6
BITMAP
180600
1C0E00
0FFC00
07F800
03F000
000000
0FF000
3FF800
387C00
383E00
383E00
003E00
003E00
0FFE00
3FFE00
7E3E00
FC3E00
F83E00
F83E00
F83E00
FC7E00
7FDE00
7F9F80
1F0F80
000000
03C000
03C000
03C000
03C000
03C000
ENDCHAR
STARTCHAR uni1EB8
ENCODING 7864
SWIDTH 601 0
DWIDTH 20 0
BBX 19 31 1 -6
BITMAP
FFFFE0
FFFFE0
3F01E0
1F00E0
1F00E0
1F0000
1F0000
1F0000
1F0000
1F0300
1F0300
1FFF00
1FFF00
1F0300
1F0300
1F0000
1F0000
1F0000
1F0000
1F0000
1F00E0
1F00E0
3F80E0
FFFFE0
FFFFE0
000000
01E000
01E000
01E000
01E000
01E000
ENDCHAR
STARTCHAR uni1EB9
ENCODING 7865
SWIDTH 568 0
DWIDTH 19 0
BBX 16 24 1 -6
BITMAP
07F0
1FF8
3C3C
7C1E
781E
781F
F81F
FFFF
FFFF
F800
F800
F800
7C00
7E00
3F01
1FFF
0FFF
03FC
0000
03C0
03C0
03C0
03C0
03C0
ENDCHAR
STARTCHAR uni1EBC
ENCODING 7868
SWIDTH 601 0
DWIDTH 20 0
BBX 19 31 1 0
BITMAP
03C300
07FF00
0FFF00
0FFE00
0C1C00
000000
FFFFE0
FFFFE0
3F01E0
1F00E0
1F00E0
1F0000
1F0000
1F0000
1F0000
1F0300
1F0300
1FFF00
1FFF00
1F0300
1F0300
1F0000
1F0000
1F0000
1F0000
1F0000
1F00E0
1F00E0
3F80E0
FFFFE0
FFFFE0
ENDCHAR
STARTCHAR uni1EBD
ENCODING 7869
SWIDTH 568 0
DWIDTH 19 0
BBX 16 24 1 0
BITMAP
0F0C
1FFC
3FFC
3FF8
3070
0000
07F0
1FF8
3C3C
7C1E
781E
781F
F81F
FFFF
FFFF
F800
F800
F800
7C00
7E00
3F01
1FFF
0FFF
03FC
ENDCHAR
STARTCHAR uni1EBE
ENCODING 7870
SWIDTH 601 0
DWIDTH 20 0
BBX 19 38 1 0
BITMAP
003E00
007800
007000
00E000
01C000
000000
01F800
01F800
039C00
070E00
0E0700
000000
000000
FFFFE0
FFFFE0
3F01E0
1F00E0
1F00E0
1F0000
1F0000
1F0000
1F0000
1F0300
1F0300
1FFF00
1FFF00
1F0300
1F0300
1F0000
1F0000
1F0000
1F0000
1F0000
1F00E0
1F00E0
3F80E0
FFFFE0
FFFFE0
ENDCHAR
STARTCHAR uni1EBF
ENCODING 7871
SWIDTH 568 0
DWIDTH 19 0
BBX 16 31 1 0
BITMAP
00F8
01E0
01C0
0380
0700
0000
07E0
07E0
0E70
1C38
381C
0000
0000
07F0
1FF8
3C3C
7C1E
781E
781F
F81F
FFFF
FFFF
F800
F800
F800
7C00
7E00
3F01
1FFF
0FFF
03FC
ENDCHAR
STARTCHAR uni1EC0
ENCODING 7872
SWIDTH 601 0
DWIDTH 20 0
BBX 19 38 1 0
BITMAP
0F8000
038000
01C000
00E000
007000
000000
01F800
01F800
039C00
070E00
0E0700
000000
000000
FFFFE0
FFFFE0
3F01E0
1F00E0
1F00E0
1F0000
1F0000
1F0000
1F0000
1F0300
1F0300
1FFF00
1FFF00
1F0300
1F0300
1F0000
1F0000
1F0000
1F0000
1F0000
1F00E0
1F00E0
3F80E0
FFFFE0
FFFFE0
ENDCHAR
STARTCHAR uni1EC1
ENCODING 7873
SWIDTH 568 0
DWIDTH 19 0
BBX 16 31 1 0
BITMAP
1F00
0700
0380
01C0
00E0
0000
07E0
07E0
0E70
1C38
381C
0000
0000
07F0
1FF8
3C3C
7C1E
781E
781F
F81F
FFFF
FFFF
F800
F800
F800
7C00
7E00
3F01
1FFF
0FFF
03FC
ENDCHAR
STARTCHAR uni1EC4
ENCODING 7876
SWIDTH 601 0
DWIDTH 20 0
BBX 19 38 1 0
BITMAP
03C300
07FF00
0FFF00
0FFE00
0C1C00
000000
01F800
01F800
039C00
070E00
0E0700
000000
000000
FFFFE0
FFFFE0
3F01E0
1F00E0
1F00E0
1F0000
1F0000
1F0000
1F0000
1F0300
1F0300
1FFF00
1FFF00
1F0300
1F0300
1F0000
1F0000
1F0000
1F0000
1F0000
1F00E0
1F00E0
3F80E0
FFFFE0
FFFFE0
ENDCHAR
STARTCHAR uni1EC5
ENCODING 7877
SWIDTH 568 0
DWIDTH 19 0
BBX 16 31 1 0
BITMAP
0F0C
1FFC
3FFC
3FF8
3070
0000
07E0
07E0
0E70
1C38
381C
0000
0000
07F0
1FF8
3C3C
7C1E
781E
781F
F81F
FFFF
FFFF
F800
F800
F800
7C00
7E00
3F01
1FFF
0FFF
03FC
ENDCHAR
STARTCHAR uni1EC6
ENCODING 7878
SWIDTH 601 0
DWIDTH 20 0
BBX 19 37 1 -6
BITMAP
03F000
03F000
073800
0E1C00
1C0E00
000000
FFFFE0
FFFFE0
3F01E0
1F00E0
1F00E0
1F0000
1F0000
1F0000
1F0000
1F0300
1F0300
1FFF00
1FFF00
1F0300
1F0300
1F0000
1F0000
1F0000
1F0000
1F0000
1F00E0
1F00E0
3F80E0
FFFFE0
FFFFE0
000000
01E000
01E000
01E000
01E000
01E000
ENDCHAR
STARTCHAR uni1EC7
ENCODING 7879
SWIDTH 568 0
DWIDTH 19 0
BBX 16 30 1 -6
BITMAP
07E0
07E0
0E70
1C38
381C
0000
07F0
1FF8
3C3C
7C1E
781E
781F
F81F
FFFF
FFFF
F800
F800
F800
7C00
7E00
3F01
1FFF
0FFF
03FC
0000
03C0
03C0
03C0
03C0
03C0
ENDCHAR
STARTCHAR uni1ECA
ENCODING 7882
SWIDTH 349 0
DWIDTH 12 0
BBX 11 31 0 -6
BITMAP
FFE0
FFE0
3F80
1F00
1F00
1F00
1F00
1F00
1F00
1F00
1F00
1F00
1F00
1F00
1F00
1F00
1F00
1F00
1F00
1F00
1F00
1F00
3F80
FFE0
FFE0
0000
0F00
0F00
0F00
0F00
0F00
ENDCHAR
STARTCHAR uni1ECB
ENCODING 7883
SWIDTH 325 0
DWIDTH 11 0
BBX 11 32 0 -6
BITMAP
1F00
1F00
1F00
1F00
1F00
0000
0000
0000
FF00
FF00
3F00
1F00
1F00
1F00
1F00
1F00
1F00
1F00
1F00
1F00
1F00
1F00
1F00
3F80
FFE0
FFE0
0000
0F00
0F00
0F00
0F00
0F00
ENDCHAR
STARTCHAR uni1ECC
ENCODING 7884
SWIDTH 810 0
DWIDTH 28 0
BBX 25 31 1 -6
BITMAP
00FF8000
03FFE000
0FC1F800
1F007C00
3E003E00
3C001E00
7C001F00
7C001F00
F8000F80
F8000F80
F8000F80
F8000F80
F8000F80
F8000F80
F8000F80
F8000F80
F8000F80
7C001F00
7C001F00
3E003E00
3E003E00
1F007C00
0FC1F800
03FFE000
00FF8000
00000000
001E0000
001E0000
001E0000
001E0000
001E0000
ENDCHAR
STARTCHAR uni1ECD
ENCODING 7885
SWIDTH 617 0
DWIDTH 21 0
BBX 19 24 1 -6
BITMAP
03F800
0FFE00
3F1F80
3C0780
7C07C0
7803C0
F803E0
F803E0
F803E0
F803E0
F803E0
F803E0
7803C0
7C07C0
3C0780
3F1F80
0FFE00
03F800
000000
00F000
00F000
00F000
00F000
00F000
ENDCHAR
STARTCHAR uni1ED0
ENCODING 7888
SWIDTH 810 0
DWIDTH 28 0
BBX 25 38 1 0
BITMAP
0007C000
000F0000
000E0000
001C0000
00380000
00000000
007E0000
007E0000
00E70000
01C38000
0381C000
00000000
00000000
00FF8000
03FFE000
0FC1F800
1F007C00
3E003E00
3C001E00
7C001F00
7C001F00
F8000F80
F8000F80
F8000F80
F8000F80
F8000F80
F8000F80
F8000F80
F8000F80
F8000F80
7C001F00
7C001F00
3E003E00
3E003E00
1F007C00
0FC1F800
03FFE000
00FF8000
ENDCHAR
STARTCHAR uni1ED1
ENCODING 7889
SWIDTH 617 0
DWIDTH 21 0
BBX 19 31 1 0
BITMAP
003E00
007800
007000
00E000
01C000
000000
03F000
03F000
073800
0E1C00
1C0E00
000000
000000
03F800
0FFE00
3F1F80
3C0780
7C07C0
7803C0
F803E0
F803E0
F803E0
F803E0
F803E0
F803E0
7803C0
7C07C0
3C0780
3F1F80
0FFE00
03F800
ENDCHAR
STARTCHAR uni1ED2
ENCODING 7890
SWIDTH 810 0
DWIDTH 28 0
BBX 25 38 1 0
BITMAP
01F00000
00700000
00380000
001C0000
000E0000
00000000
007E0000
007E0000
00E70000
01C38000
0381C000
00000000
00000000
00FF8000
03FFE000
0FC1F800
1F007C00
3E003E00
3C001E00
7C001F00
7C001F00
F8000F80
F8000F80
F8000F80
F8000F80
F8000F80
F8000F80
F8000F80
F8000F80
F8000F80
7C001F00
7C001F00
3E003E00
3E003E00
1F007C00
0FC1F800
03FFE000
00FF8000
ENDCHAR
STARTCHAR uni1ED3
ENCODING 7891
SWIDTH 617 0
DWIDTH 21 0
BBX 19 31 1 0
BITMAP
0F8000
038000
01C000
00E000
007000
000000
03F000
03F000
073800
0E1C00
1C0E00
000000
000000
03F800
0FFE00
3F1F80
3C0780
7C07C0
7803C0
F803E0
F803E0
F803E0
F803E0
F803E0
F803E0
7803C0
7C07C0
3C0780
3F1F80
0FFE00
03F800
ENDCHAR
STARTCHAR uni1ED6
ENCODING 7894
SWIDTH 810 0
DWIDTH 28 0
BBX 25 38 1 0
BITMAP
00786000
00FFE000
01FFE000
01FFC000
01838000
00000000
007E0000
007E0000
00E70000
01C38000
0381C000
00000000
00000000
00FF8000
03FFE000
0FC1F800
1F007C00
3E003E00
3C001E00
7C001F00
7C001F00
F8000F80
F8000F80
F8000F80
F8000F80
F8000F80
F8000F80
F8000F80
F8000F80
F8000F80
7C001F00
7C001F00
3E003E00
3E003E00
1F007C00
0FC1F800
03FFE000
00FF8000
ENDCHAR
STARTCHAR uni1ED7
ENCODING 7895
SWIDTH 617 0
DWIDTH 21 0
BBX 19 31 1 0
BITMAP
03C300
07FF00
0FFF00
0FFE00
0C1C00
000000
03F000
03F000
073800
0E1C00
1C0E00
000000
000000
03F800
0FFE00
3F1F80
3C0780
7C07C0
7803C0
F803E0
F803E0
F803E0
F803E0
F803E0
F803E0
7803C0
7C07C0
3C0780
3F1F80
0FFE00
03F800
ENDCHAR
STARTCHAR uni1ED8
ENCODING 7896
SWIDTH 810 0
DWIDTH 28 0
BBX 25 37 1 -6
BITMAP
003F0000
003F0000
00738000
00E1C000
01C0E000
00000000
00FF8000
03FFE000
0FC1F800
1F007C00
3E003E00
3C001E00
7C001F00
7C001F00
F8000F80
F8000F80
F8000F80
F8000F80
F8000F80
F8000F80
F8000F80
F8000F80
F8000F80
7C001F00
7C001F00
3E003E00
3E003E00
1F007C00
0FC1F800
03FFE000
00FF8000
00000000
001E0000
001E0000
001E0000
001E0000
001E0000
ENDCHAR
STARTCHAR uni1ED9
ENCODING 7897
SWIDTH 617 0
DWIDTH 21 0
BBX 19 30 1 -6
BITMAP
01F800
01F800
039C00
070E00
0E0700
000000
03F800
0FFE00
3F1F80
3C0780
7C07C0
7803C0
F803E0
F803E0
F803E0
F803E0
F803E0
F803E0
7803C0
7C07C0
3C0780
3F1F80
0FFE00
03F800
000000
00F000
00F000
00F000
00F000
00F000
ENDCHAR
STARTCHAR uni1EDA
ENCODING 7898
SWIDTH 810 0
DWIDTH 28 0
BBX 27 31 1 0
BITMAP
0000F800
0001E000
0001C000
00038000
00070000
00000000
00FF83E0
03FFE3E0
0FC1FBE0
1F007FE0
3E003FE0
3C001FE0
7C001FE0
7C001FE0
F8000FC0
F8000FC0
F8000F80
F8000F80
F8000F80
F8000F80
F8000F80
F8000F80
F8000F80
7C001F00
7C001F00
3E003E00
3E003E00
1F007C00
0FC1F800
03FFE000
00FF8000
ENDCHAR
STARTCHAR uni1EDB
ENCODING 7899
SWIDTH 617 0
DWIDTH 21 0
BBX 22 24 1 0
BITMAP
0007C0
000F00
000E00
001C00
003800
000000
03F87C
0FFE7C
3F1FFC
3C07FC
7C07FC
7803FC
F803FC
F803FC
F803F8
F803F8
F803F0
F803E0
7803C0
7C07C0
3C0780
3F1F80
0FFE00
03F800
ENDCHAR
STARTCHAR uni1EDC
ENCODING 7900
SWIDTH 810 0
DWIDTH 28 0
BBX 27 31 1 0
BITMAP
003E0000
000E0000
00070000
00038000
0001C000
00000000
00FF83E0
03FFE3E0
0FC1FBE0
1F007FE0
3E003FE0
3C001FE0
7C001FE0
7C001FE0
F8000FC0
F8000FC0
F8000F80
F8000F80
F8000F80
F8000F80
F8000F80
F8000F80
F8000F80
7C001F00
7C001F00
3E003E00
3E003E00
1F007C00
0FC1F800
03FFE000
00FF8000
ENDCHAR
STARTCHAR uni1EDD
ENCODING 7901
SWIDTH 617 0
DWIDTH 21 0
BBX 22 24 1 0
BITMAP
01F000
007000
003800
001C00
000E00
000000
03F87C
0FFE7C
3F1FFC
3C07FC
7C07FC
7803FC
F803FC
F803FC
F803F8
F803F8
F803F0
F803E0
7803C0
7C07C0
3C0780
3F1F80
0FFE00
03F800
ENDCHAR
STARTCHAR uni1EE0
ENCODING 7904
SWIDTH 810 0
DWIDTH 28 0
BBX 27 31 1 0
BITMAP
000F0C00
001FFC00
003FFC00
003FF800
00307000
00000000
00FF83E0
03FFE3E0
0FC1FBE0
1F007FE0
3E003FE0
3C001FE0
7C001FE0
7C001FE0
F8000FC0
F8000FC0
F8000F80
F8000F80
F8000F80
F8000F80
F8000F80
F8000F80
F8000F80
7C001F00
7C001F00
3E003E00
3E003E00
1F007C00
0FC1F800
03FFE000
00FF8000
ENDCHAR
STARTCHAR uni1EE1
ENCODING 7905
SWIDTH 617 0
DWIDTH 21 0
BBX 22 24 1 0
BITMAP
007860
00FFE0
01FFE0
01FFC0
018380
000000
03F87C
0FFE7C
3F1FFC
3C07FC
7C07FC
7803FC
F803FC
F803FC
F803F8
F803F8
F803F0
F803E0
7803C0
7C07C0
3C0780
3F1F80
0FFE00
03F800
ENDCHAR
STARTCHAR uni1EE2
ENCODING 7906
SWIDTH 810 0
DWIDTH 28 0
BBX 27 31 1 -6
BITMAP
00FF83E0
03FFE3E0
0FC1FBE0
1F007FE0
3E003FE0
3C001FE0
7C001FE0
7C001FE0
F8000FC0
F8000FC0
F8000F80
F8000F80
F8000F80
F8000F80
F8000F80
F8000F80
F8000F80
7C001F00
7C001F00
3E003E00
3E003E00
1F007C00
0FC1F800
03FFE000
00FF8000
00000000
001E0000
001E0000
001E0000
001E0000
001E0000
ENDCHAR
STARTCHAR uni1EE3
ENCODING 7907
SWIDTH 617 0
DWIDTH 21 0
BBX 22 24 1 -6
BITMAP
03F87C
0FFE7C
3F1FFC
3C07FC
7C07FC
7803FC
F803FC
F803FC
F803F8
F803F8
F803F0
F803E0
7803C0
7C07C0
3C0780
3F1F80
0FFE00
03F800
000000
00F000
00F000
00F000
00F000
00F000
ENDCHAR
STARTCHAR uni1EE4
ENCODING 7908
SWIDTH 747 0
DWIDTH 25 0
BBX 25 31 0 -6
BITMAP
FFE0FF80
FFE0FF80
3F803E00
1F001C00
1F001C00
1F001C00
1F001C00
1F001C00
1F001C00
1F001C00
1F001C00
1F001C00
1F001C00
1F001C00
1F001C00
1F001C00
1F001C00
1F001C00
1F001C00
0F003C00
0F803800
0F807800
07E0F000
03FFE000
007F8000
00000000
003C0000
003C0000
003C0000
003C0000
003C0000
ENDCHAR
STARTCHAR uni1EE5
ENCODING 7909
SWIDTH 654 0
DWIDTH 22 0
BBX 22 24 0 -6
BITMAP
FF1FE0
FF1FE0
3F07E0
1F03E0
1F03E0
1F03E0
1F03E0
1F03E0
1F03E0
1F03E0
1F03E0
1F03E0
1F07E0
1F0FE0
1FFBE0
0FFBF8
0FF3FC
03C3FC
000000
003C00
003C00
003C00
003C00
003C00
ENDCHAR
STARTCHAR uni1EE8
ENCODING 7912
SWIDTH 747 0
DWIDTH 25 0
BBX 27 31 0 0
BITMAP
0001F000
0003C000
00038000
00070000
000E0000
00000000
FFE0FFE0
FFE0FFE0
3F803FE0
1F001FE0
1F001FE0
1F001DE0
1F001DE0
1F001DE0
1F001DC0
1F001FC0
1F001F80
1F001C00
1F001C00
1F001C00
1F001C00
1F001C00
1F001C00
1F001C00
1F001C00
0F003C00
0F803800
0F807800
07E0F000
03FFE000
007F8000
ENDCHAR
STARTCHAR uni1EE9
ENCODING 7913
SWIDTH 654 0
DWIDTH 22 0
BBX 25 24 0 0
BITMAP
0003E000
00078000
00070000
000E0000
001C0000
00000000
FF1FEF80
FF1FEF80
3F07EF80
1F03EF80
1F03EF80
1F03E780
1F03E780
1F03E780
1F03E700
1F03EF00
1F03EE00
1F03E000
1F07E000
1F0FE000
1FFBE000
0FFBF800
0FF3FC00
03C3FC00
ENDCHAR
STARTCHAR uni1EEA
ENCODING 7914
SWIDTH 747 0
DWIDTH 25 0
BBX 27 31 0 0
BITMAP
007C0000
001C0000
000E0000
00070000
00038000
00000000
FFE0FFE0
FFE0FFE0
3F803FE0
1F001FE0
1F001FE0
1F001DE0
1F001DE0
1F001DE0
1F001DC0
1F001FC0
1F001F80
1F001C00
1F001C00
1F001C00
1F001C00
1F001C00
1F001C00
1F001C00
1F001C00
0F003C00
0F803800
0F807800
07E0F000
03FFE000
007F8000
ENDCHAR
STARTCHAR uni1EEB
ENCODING 7915
SWIDTH 654 0
DWIDTH 22 0
BBX 25 24 0 0
BITMAP
00F80000
00380000
001C0000
000E0000
00070000
00000000
FF1FEF80
FF1FEF80
3F07EF80
1F03EF80
1F03EF80
1F03E780
1F03E780
1F03E780
1F03E700
1F03EF00
1F03EE00
1F03E000
1F07E000
1F0FE000
1FFBE000
0FFBF800
0FF3FC00
03C3FC00
ENDCHAR
STARTCHAR uni1EEE
ENCODING 7918
SWIDTH 747 0
DWIDTH 25 0
BBX 27 31 0 0
BITMAP
001E1800
003FF800
007FF800
007FF000
0060E000
00000000
FFE0FFE0
FFE0FFE0
3F803FE0
1F001FE0
1F001FE0
1F001DE0
1F001DE0
1F001DE0
1F001DC0
1F001FC0
1F001F80
1F001C00
1F001C00
1F001C00
1F001C00
1F001C00
1F001C00
1F001C00
1F001C00
0F003C00
0F803800
0F807800
07E0F000
03FFE000
007F8000
ENDCHAR
STARTCHAR uni1EEF
ENCODING 7919
SWIDTH 654 0
DWIDTH 22 0
BBX 25 24 0 0
BITMAP
003C3000
007FF000
00FFF000
00FFE000
00C1C000
00000000
FF1FEF80
FF1FEF80
3F07EF80
1F03EF80
1F03EF80
1F03E780
1F03E780
1F03E780
1F03E700
1F03EF00
1F03EE00
1F03E000
1F07E000
1F0FE000
1FFBE000
0FFBF800
0FF3FC00
03C3FC00
ENDCHAR
STARTCHAR uni1EF0
ENCODING 7920
SWIDTH 747 0
DWIDTH 25 0
BBX 27 31 0 -6
BITMAP
FFE0FFE0
FFE0FFE0
3F803FE0
1F001FE0
1F001FE0
1F001DE0
1F001DE0
1F001DE0
1F001DC0
1F001FC0
1F001F80
1F001C00
1F001C00
1F001C00
1F001C00
1F001C00
1F001C00
1F001C00
1F001C00
0F003C00
0F803800
0F807800
07E0F000
03FFE000
007F8000
00000000
001E0000
001E0000
001E0000
001E0000
001E0000
ENDCHAR
STARTCHAR uni1EF1
ENCODING 7921
SWIDTH 654 0
DWIDTH 22 0
BBX 25 24 0 -6
BITMAP
FF1FEF80
FF1FEF80
3F07EF80
1F03EF80
1F03EF80
1F03E780
1F03E780
1F03E780
1F03E700
1F03EF00
1F03EE00
1F03E000
1F07E000
1F0FE000
1FFBE000
0FFBF800
0FF3FC00
03C3FC00
00000000
003C0000
003C0000
003C0000
003C0000
003C0000
ENDCHAR
STARTCHAR Ygrave
ENCODING 7922
SWIDTH 717 0
DWIDTH 24 0
BBX 25 31 0 0
BITMAP
03E00000
00E00000
00700000
00380000
001C0000
00000000
FFE03F80
FFE03F80
3F800E00
1F800C00
0FC01C00
0FC03800
07E03000
03F07000
03F06000
01F8C000
00FDC000
00FD8000
007F0000
003F0000
003E0000
003E0000
003E0000
003E0000
003E0000
003E0000
003E0000
003E0000
007F0000
01FFC000
01FFC000
ENDCHAR
STARTCHAR ygrave
ENCODING 7923
SWIDTH 654 0
DWIDTH 22 0
BBX 22 31 0 -7
BITMAP
07C000
01C000
00E000
007000
003800
000000
FFC0FC
FFC0FC
3F0070
1F0060
1F8060
0F80C0
0FC0C0
07C180
07E380
07E300
03E700
03F600
01FE00
01FC00
00F800
00F800
007000
007000
002000
006000
00C000
01C000
038000
078000
1F0000
ENDCHAR
STARTCHAR uni1EF4
ENCODING 7924
SWIDTH 717 0
DWIDTH 24 0
BBX 25 31 0 -6
BITMAP
FFE03F80
FFE03F80
3F800E00
1F800C00
0FC01C00
0FC03800
07E03000
03F07000
03F06000
01F8C000
00FDC000
00FD8000
007F0000
003F0000
003E0000
003E0000
003E0000
003E0000
003E0000
003E0000
003E0000
003E0000
007F0000
01FFC000
01FFC000
00000000
001E0000
001E0000
001E0000
001E0000
001E0000
ENDCHAR
STARTCHAR uni1EF5
ENCODING 7925
SWIDTH 654 0
DWIDTH 22 0
BBX 22 31 0 -13
BITMAP
FFC0FC
FFC0FC
3F0070
1F0060
1F8060
0F80C0
0FC0C0
07C180
07E380
07E300
03E700
03F600
01FE00
01FC00
00F800
00F800
007000
007000
002000
006000
00C000
01C000
038000
078000
1F0000
000000
01E000
01E000
01E000
01E000
01E000
ENDCHAR
STARTCHAR uni1EF8
ENCODING 7928
SWIDTH 717 0
DWIDTH 24 0
BBX 25 31 0 0
BITMAP
00F0C000
01FFC000
03FFC000
03FF8000
03070000
00000000
FFE03F80
FFE03F80
3F800E00
1F800C00
0FC01C00
0FC03800
07E03000
03F07000
03F06000
01F8C000
00FDC000
00FD8000
007F0000
003F0000
003E0000
003E0000
003E0000
003E0000
003E0000
003E0000
003E0000
003E0000
007F0000
01FFC000
01FFC000
ENDCHAR
STARTCHAR uni1EF9
ENCODING 7929
SWIDTH 654 0
DWIDTH 22 0
BBX 22 31 0 -7
BITMAP
03C300
07FF00
0FFF00
0FFE00
0C1C00
000000
FFC0FC
FFC0FC
3F0070
1F0060
1F8060
0F80C0
0FC0C0
07C180
07E380
07E300
03E700
03F600
01FE00
01FC00
00F800
00F800
007000
007000
002000
006000
00C000
01C000
038000
078000
1F0000
ENDCHAR
STARTCHAR uni2000
ENCODING 8192
SWIDTH 500 0
DWIDTH 17 0
BBX 1 1 0 0
BITMAP
00
ENDCHAR
STARTCHAR uni2001
ENCODING 8193
SWIDTH 1000 0
DWIDTH 33 0
BBX 1 1 0 0
BITMAP
00
ENDCHAR
STARTCHAR uni2002
ENCODING 8194
SWIDTH 500 0
DWIDTH 17 0
BBX 1 1 0 0
BITMAP
00
ENDCHAR
STARTCHAR uni2003
ENCODING 8195
SWIDTH 1000 0
DWIDTH 33 0
BBX 1 1 0 0
BITMAP
00
ENDCHAR
STARTCHAR uni2004
ENCODING 8196
SWIDTH 333 0
DWIDTH 11 0
BBX 1 1 0 0
BITMAP
00
ENDCHAR
STARTCHAR uni2005
ENCODING 8197
SWIDTH 250 0
DWIDTH 8 0
BBX 1 1 0 0
BITMAP
00
ENDCHAR
STARTCHAR uni2006
ENCODING 8198
SWIDTH 167 0
DWIDTH 6 0
BBX 1 1 0 0
BITMAP
00
ENDCHAR
STARTCHAR uni2007
ENCODING 8199
SWIDTH 623 0
DWIDTH 21 0
BBX 1 1 0 0
BITMAP
00
ENDCHAR
STARTCHAR uni2008
ENCODING 8200
SWIDTH 265 0
DWIDTH 9 0
BBX 1 1 0 0
BITMAP
00
ENDCHAR
STARTCHAR uni2009
ENCODING 8201
SWIDTH 200 0
DWIDTH 7 0
BBX 1 1 0 0
BITMAP
00
ENDCHAR
STARTCHAR uni200A
ENCODING 8202
SWIDTH 100 0
DWIDTH 3 0
BBX 1 1 0 0
BITMAP
00
ENDCHAR
STARTCHAR uni200B
ENCODING 8203
SWIDTH 0 0
DWIDTH 0 0
BBX 1 1 0 0
BITMAP
00
ENDCHAR
STARTCHAR uni2010
ENCODING 8208
SWIDTH 289 0
DWIDTH 10 0
BBX 8 4 1 8
BITMAP
FF
FF
FF
FF
ENDCHAR
STARTCHAR uni2011
ENCODING 8209
SWIDTH 289 0
DWIDTH 10 0
BBX 8 4 1 8
BITMAP
FF
FF
FF
FF
ENDCHAR
STARTCHAR figuredash
ENCODING 8210
SWIDTH 500 0
DWIDTH 17 0
BBX 15 3 1 9
BITMAP
FFFE
FFFE
FFFE
ENDCHAR
STARTCHAR endash
ENCODING 8211
SWIDTH 500 0
DWIDTH 17 0
BBX 15 3 1 9
BITMAP
FFFE
FFFE
FFFE
ENDCHAR
STARTCHAR emdash
ENCODING 8212
SWIDTH 1000 0
DWIDTH 34 0
BBX 31 3 2 8
BITMAP
FFFFFFFE
FFFFFFFE
FFFFFFFE
ENDCHAR
STARTCHAR afii00208
ENCODING 8213
SWIDTH 1000 0
DWIDTH 34 0
BBX 31 3 2 8
BITMAP
FFFFFFFE
FFFFFFFE
FFFFFFFE
ENDCHAR
STARTCHAR quoteleft
ENCODING 8216
SWIDTH 265 0
DWIDTH 9 0
BBX 5 11 2 15
BITMAP
38
78
70
F0
F0
F8
F8
F8
F8
F8
F8
ENDCHAR
STARTCHAR quoteright
ENCODING 8217
SWIDTH 265 0
DWIDTH 9 0
BBX 5 11 2 15
BITMAP
F8
F8
F8
F8
F8
78
78
78
70
F0
E0
ENDCHAR
STARTCHAR quotesinglbase
ENCODING 8218
SWIDTH 265 0
DWIDTH 9 0
BBX 5 12 2 -6
BITMAP
F8
F8
F8
F8
F8
F8
78
78
70
F0
E0
C0
ENDCHAR
STARTCHAR quotereversed
ENCODING 8219
SWIDTH 265 0
DWIDTH 9 0
BBX 5 11 2 15
BITMAP
F8
F8
F8
F8
F8
F0
F0
F0
70
78
38
ENDCHAR
STARTCHAR quotedblleft
ENCODING 8220
SWIDTH 470 0
DWIDTH 16 0
BBX 12 10 2 16
BITMAP
1830
38F0
71E0
F3C0
F3C0
FBF0
FBF0
FBF0
FBF0
FBF0
ENDCHAR
STARTCHAR quotedblright
ENCODING 8221
SWIDTH 470 0
DWIDTH 16 0
BBX 12 10 2 16
BITMAP
F9F0
F9F0
F9F0
F9F0
F9F0
78F0
78F0
70E0
E1C0
C180
ENDCHAR
STARTCHAR quotedblbase
ENCODING 8222
SWIDTH 470 0
DWIDTH 16 0
BBX 12 11 2 -6
BITMAP
F9F0
F9F0
F9F0
F9F0
F9F0
78F0
78F0
78F0
70E0
E1C0
C180
ENDCHAR
STARTCHAR uni201F
ENCODING 8223
SWIDTH 470 0
DWIDTH 16 0
BBX 12 10 2 16
BITMAP
F9F0
F9F0
F9F0
F9F0
F9F0
F1E0
F1E0
70E0
3870
1830
ENDCHAR
STARTCHAR dagger
ENCODING 8224
SWIDTH 623 0
DWIDTH 21 0
BBX 17 31 2 -6
BITMAP
03E000
03E000
03E000
03E000
03E000
03E000
03E000
03E000
03E000
E3E380
FFFF80
FFFF80
E3E380
03E000
03E000
03E000
03E000
03E000
03E000
03E000
03E000
03E000
03E000
03E000
03E000
03E000
03E000
03E000
03E000
03E000
03E000
ENDCHAR
STARTCHAR daggerdbl
ENCODING 8225
SWIDTH 623 0
DWIDTH 21 0
BBX 17 31 2 -6
BITMAP
03E000
03E000
03E000
03E000
03E000
03E000
03E000
03E000
03E000
E3E380
FFFF80
FFFF80
E3E380
03E000
03E000
03E000
03E000
03E000
03E000
E3E380
FFFF80
FFFF80
E3E380
03E000
03E000
03E000
03E000
03E000
03E000
03E000
03E000
ENDCHAR
STARTCHAR bullet
ENCODING 8226
SWIDTH 623 0
DWIDTH 21 0
BBX 12 12 5 4
BITMAP
1F80
3FC0
7FE0
FFF0
FFF0
FFF0
FFF0
FFF0
FFF0
7FE0
3FC0
1F80
ENDCHAR
STARTCHAR ellipsis
ENCODING 8230
SWIDTH 1000 0
DWIDTH 34 0
BBX 26 4 4 0
BITMAP
F01E03C0
F01E03C0
F01E03C0
F01E03C0
ENDCHAR
STARTCHAR perthousand
ENCODING 8240
SWIDTH 1139 0
DWIDTH 39 0
BBX 38 25 0 0
BITMAP
1F80078000
3FC00F0000
79E01E0000
F0F03C0000
F0F0780000
F0F0780000
F0F0F00000
F0F1E00000
F0F3C00000
79E7800000
3FCF000000
1F9E000000
001EFC07E0
003DFE0FF0
007BCF1E78
00F3871C38
01E787BC3C
03C787BC3C
078787BC3C
070787BC3C
0F0787BC3C
1E03871C38
3C03CF1E78
7801FE0FF0
F000FC07E0
ENDCHAR
STARTCHAR guilsinglleft
ENCODING 8249
SWIDTH 337 0
DWIDTH 11 0
BBX 9 16 1 1
BITMAP
0100
0380
0700
0F00
1E00
3E00
7C00
F800
F800
7C00
3E00
1E00
0F00
0700
0380
0100
ENDCHAR
STARTCHAR guilsinglright
ENCODING 8250
SWIDTH 337 0
DWIDTH 11 0
BBX 9 16 2 1
BITMAP
4000
E000
7000
7800
3C00
3E00
1F00
0F80
0F80
1F00
3E00
3C00
7800
7000
E000
4000
ENDCHAR
STARTCHAR fraction
ENCODING 8260
SWIDTH 55 0
DWIDTH 2 0
BBX 24 25 -8 0
BITMAP
00003F
00003E
00007C
0000F8
0001F0
0001F0
0003E0
0007C0
000F80
000F80
001F00
003E00
007E00
007C00
00F800
01F000
01F000
03E000
07C000
0F8000
0F8000
1F0000
3E0000
7C0000
FC0000
ENDCHAR
STARTCHAR oneinferior
ENCODING 8321
SWIDTH 374 0
DWIDTH 13 0
BBX 9 15 -21 -8
BITMAP
FC00
1C00
1C00
1C00
1C00
1C00
1C00
1C00
1C00
1C00
1C00
1C00
1C00
3E00
FF80
ENDCHAR
STARTCHAR twoinferior
ENCODING 8322
SWIDTH 374 0
DWIDTH 13 0
BBX 10 15 -20 -8
BITMAP
7F00
C380
C1C0
81C0
01C0
01C0
0380
0300
0400
1800
3000
6000
7FC0
FFC0
FFC0
ENDCHAR
STARTCHAR threeinferior
ENCODING 8323
SWIDTH 374 0
DWIDTH 13 0
BBX 10 15 -20 -8
BITMAP
FF00
C380
81C0
01C0
01C0
0180
0200
7F00
0780
03C0
01C0
01C0
81C0
8380
FE00
ENDCHAR
STARTCHAR uni20A5
ENCODING 8357
SWIDTH 967 0
DWIDTH 33 0
BBX 33 32 0 -7
BITMAP
000001C000
000003C000
0000038000
0000078000
0000070000
00000F0000
00000E0000
FF1F1FE000
FF3FDFF800
3F7FFFF800
1FFFFFFC00
1FC7F87C00
1F83F07C00
1F03F07C00
1F03E07C00
1F03E07C00
1F03E07C00
1F03E07C00
1F03E07C00
1F03E07C00
1F07E07C00
1F07E07C00
3F0FE07E00
FFCFF9FF80
FFDFF9FF80
001C000000
003C000000
0038000000
0078000000
0070000000
00F0000000
00E0000000
ENDCHAR
STARTCHAR uni20A6
ENCODING 8358
SWIDTH 788 0
DWIDTH 27 0
BBX 25 25 1 0
BITMAP
FE00FF80
FF00FF80
3F003E00
1F801C00
1FC01C00
1FC01C00
1FE01C00
1FF01C00
1FFFFE00
1FFFFE00
1FFFFE00
1C7E1C00
1C7E1C00
1C3F1C00
1FFFFE00
1FFFFE00
1FFFFE00
1C07FC00
1C03FC00
1C03FC00
1C01FC00
1C00FC00
3E00FC00
FF807C00
FF803C00
ENDCHAR
STARTCHAR uni20A9
ENCODING 8361
SWIDTH 955 0
DWIDTH 32 0
BBX 32 25 0 0
BITMAP
FF80C03F
FF80E03F
7E01E00C
3F01E01C
3F01F018
1F03F018
1F03F010
1F83F030
0FFFFFF0
0FFFFFF0
0FFFFFE0
0FCEFC60
07CC7C60
07CC7CC0
07FFFFC0
03FFFFC0
03FFFFC0
03F83F80
03F01F80
01F01F80
01F01F00
01E00F00
00E00F00
00E00E00
00C00600
ENDCHAR
STARTCHAR Euro
ENCODING 8364
SWIDTH 711 0
DWIDTH 24 0
BBX 27 25 -5 0
BITMAP
0001FF00
000FFFE0
003F03E0
007C00E0
00F800E0
00F000E0
01F00000
01F00000
FFFFF000
FFFFF000
FFFFF000
03E00000
03E00000
03E00000
FFFFF000
FFFFF000
FFFFF000
01F00000
01F80000
00F80000
00FE0020
007F01E0
003FFFE0
000FFFC0
0001FF00
ENDCHAR
STARTCHAR uni20AD
ENCODING 8365
SWIDTH 747 0
DWIDTH 25 0
BBX 25 25 1 0
BITMAP
FFC0FE00
FFC0FE00
3F807800
1F007000
1F00E000
1F018000
1F070000
1F0E0000
1F1C0000
1F380000
1F700000
FFFFFF80
FFFFFF80
FFFFFF80
1F7F0000
1F3F8000
1F1F8000
1F0FC000
1F07E000
1F07F000
1F03F800
1F01FC00
3F80FE00
FFC7FF80
FFC7FF80
ENDCHAR
STARTCHAR uni2103
ENCODING 8451
SWIDTH 957 0
DWIDTH 33 0
BBX 30 25 1 0
BITMAP
78003FE0
FC01FFFC
CC07E07C
CC0F801C
FC1F001C
781E001C
003E0000
003E0000
007C0000
007C0000
007C0000
007C0000
007C0000
007C0000
007C0000
007C0000
007E0000
003E0000
003F0000
001F0000
001FC004
000FE03C
0007FFFC
0001FFF8
00003FE0
ENDCHAR
STARTCHAR uni2109
ENCODING 8457
SWIDTH 830 0
DWIDTH 29 0
BBX 27 25 1 0
BITMAP
787FFFE0
FC7FFFE0
CC1F81E0
CC0F80E0
FC0F80E0
780F8000
000F8000
000F8000
000F8000
000F8180
000F8180
000FFF80
000FFF80
000F8180
000F8180
000F8000
000F8000
000F8000
000F8000
000F8000
000F8000
000F8000
001FC000
007FF000
007FF000
ENDCHAR
STARTCHAR trademark
ENCODING 8482
SWIDTH 1044 0
DWIDTH 35 0
BBX 33 14 1 11
BITMAP
FFFDFC1F80
FFFDFC3F80
C78C7C3E00
C78C7E3E00
C78C7E7E00
07807F7E00
07807FDE00
078077DE00
078077DE00
0780779E00
0780739E00
0780739E00
1FE1F11F80
1FE1F01F80
ENDCHAR
STARTCHAR uni212A
ENCODING 8490
SWIDTH 747 0
DWIDTH 25 0
BBX 25 25 1 0
BITMAP
FFC0FE00
FFC0FE00
3F807800
1F007000
1F00E000
1F018000
1F070000
1F0E0000
1F1C0000
1F380000
1F700000
1FF80000
1FFC0000
1FFE0000
1F7F0000
1F3F8000
1F1F8000
1F0FC000
1F07E000
1F07F000
1F03F800
1F01FC00
3F80FE00
FFC7FF80
FFC7FF80
ENDCHAR
STARTCHAR uni212B
ENCODING 8491
SWIDTH 795 0
DWIDTH 27 0
BBX 27 32 0 0
BITMAP
000E0000
001B0000
00110000
001B0000
000E0000
00000000
00000000
000E0000
000E0000
001F0000
001F0000
003F8000
003F8000
003FC000
006FC000
0067C000
00C7E000
00C3E000
0183F000
0181F000
0301F800
0300F800
07FFFC00
07FFFC00
0E007E00
0C003E00
1C003F00
18001F00
38001F80
78001F80
FE007FE0
FE007FE0
ENDCHAR
STARTCHAR uni2132
ENCODING 8498
SWIDTH 584 0
DWIDTH 20 0
BBX 18 25 1 0
BITMAP
01FFC0
01FFC0
007F00
003E00
003E00
003E00
003E00
003E00
003E00
003E00
303E00
303E00
3FFE00
3FFE00
303E00
303E00
003E00
003E00
003E00
003E00
E03E00
E03E00
F03F00
FFFFC0
FFFFC0
ENDCHAR
STARTCHAR universal
ENCODING 8704
SWIDTH 795 0
DWIDTH 27 0
BBX 27 25 0 0
BITMAP
FE007FE0
FE007FE0
78001F80
38001F80
18001F00
1C003F00
0C003E00
0E007E00
07FFFC00
07FFFC00
0300F800
0301F800
0181F000
0183F000
00C3E000
00C7E000
0067C000
006FC000
003FC000
003F8000
003F8000
001F0000
001F0000
000E0000
000E0000
ENDCHAR
STARTCHAR existential
ENCODING 8707
SWIDTH 601 0
DWIDTH 20 0
BBX 19 25 1 0
BITMAP
FFFFE0
FFFFE0
F01F80
E01F00
E01F00
001F00
001F00
001F00
001F00
181F00
181F00
1FFF00
1FFF00
181F00
181F00
001F00
001F00
001F00
001F00
001F00
E01F00
E01F00
E03F80
FFFFE0
FFFFE0
ENDCHAR
STARTCHAR uni2204
ENCODING 8708
SWIDTH 601 0
DWIDTH 20 0
BBX 19 32 1 -3
BITMAP
0000E0
0001E0
0001C0
0003C0
FFFFE0
FFFFE0
F01F80
E01F00
E01F00
001F00
001F00
003F00
003F00
183F00
187F00
1FFF00
1FFF00
18FF00
19DF00
01DF00
03DF00
039F00
079F00
071F00
EF1F00
EE1F00
FE3F80
FFFFE0
FFFFE0
380000
780000
700000
ENDCHAR
STARTCHAR minus
ENCODING 8722
SWIDTH 623 0
DWIDTH 21 0
BBX 20 3 1 8
BITMAP
FFFFF0
FFFFF0
FFFFF0
ENDCHAR
STARTCHAR fraction
ENCODING 8725
SWIDTH 55 0
DWIDTH 2 0
BBX 24 25 -8 0
BITMAP
00003F
00003E
00007C
0000F8
0001F0
0001F0
0003E0
0007C0
000F80
000F80
001F00
003E00
007E00
007C00
00F800
01F000
01F000
03E000
07C000
0F8000
0F8000
1F0000
3E0000
7C0000
FC0000
ENDCHAR
STARTCHAR periodcentered
ENCODING 8729
SWIDTH 623 0
DWIDTH 21 0
BBX 4 5 9 7
BITMAP
F0
F0
F0
F0
F0
ENDCHAR
STARTCHAR uni2236
ENCODING 8758
SWIDTH 265 0
DWIDTH 9 0
BBX 5 18 2 0
BITMAP
F8
F8
F8
F8
F8
00
00
00
00
00
00
00
00
F8
F8
F8
F8
F8
ENDCHAR
STARTCHAR uni2259
ENCODING 8793
SWIDTH 623 0
DWIDTH 21 0
BBX 20 15 1 5
BITMAP
01F800
01F800
039C00
070E00
0E0700
000000
FFFFF0
FFFFF0
FFFFF0
000000
000000
000000
FFFFF0
FFFFF0
FFFFF0
ENDCHAR
STARTCHAR uni225A
ENCODING 8794
SWIDTH 623 0
DWIDTH 21 0
BBX 20 15 1 5
BITMAP
0E0700
070E00
039C00
01F800
01F800
000000
FFFFF0
FFFFF0
FFFFF0
000000
000000
000000
FFFFF0
FFFFF0
FFFFF0
ENDCHAR
ENDFONT
